<?xml version="1.0" encoding="UTF-8" ?>
<!DOCTYPE svg PUBLIC "-//W3C//DTD SVG 1.1//EN" "http://www.w3.org/Graphics/SVG/1.1/DTD/svg11.dtd">
<svg width="604pt" height="604pt" viewBox="0 0 604 604" version="1.1" xmlns="http://www.w3.org/2000/svg">
<path fill="#97a4ff" opacity="1.00" d=" M 261.83 165.90 C 271.09 162.86 280.78 161.43 290.45 160.44 C 290.43 161.99 290.41 163.54 290.38 165.09 C 281.47 165.90 272.58 167.25 263.98 169.80 C 263.88 168.95 263.66 167.25 263.56 166.40 C 263.13 166.27 262.26 166.02 261.83 165.90 Z" />
<path fill="#97a4ff" opacity="1.00" d=" M 243.11 233.11 C 251.50 232.84 259.87 232.11 268.26 232.07 C 270.41 232.49 272.56 232.98 274.70 233.45 C 274.80 234.21 275.00 235.72 275.10 236.48 C 260.21 236.75 245.37 237.87 230.51 238.57 C 232.68 237.33 235.07 236.62 237.49 236.04 C 236.23 235.39 234.97 234.76 233.70 234.13 C 236.86 234.01 239.98 233.50 243.11 233.11 Z" />
<path fill="#7ea2ff" opacity="1.00" d=" M 290.45 160.44 C 300.31 160.08 310.30 159.63 320.07 161.34 C 319.78 162.83 319.51 164.33 319.23 165.83 C 309.69 164.41 299.99 164.69 290.38 165.09 C 290.41 163.54 290.43 161.99 290.45 160.44 Z" />
<path fill="#7ea2ff" opacity="1.00" d=" M 288.20 251.09 C 304.99 250.54 321.80 250.53 338.60 250.75 C 336.55 254.39 331.55 252.06 328.41 254.16 C 314.92 253.75 301.40 253.59 287.91 254.04 C 287.98 253.30 288.13 251.83 288.20 251.09 Z" />
<path fill="#65a1ff" opacity="1.00" d=" M 320.07 161.34 C 327.33 161.95 334.40 163.77 341.41 165.70 L 341.93 166.07 C 344.10 167.76 346.69 168.74 349.06 170.10 C 349.39 171.03 349.37 172.03 349.49 173.01 C 339.67 169.63 329.57 166.95 319.23 165.83 C 319.51 164.33 319.78 162.83 320.07 161.34 Z" />
<path fill="#b2a5ff" opacity="1.00" d=" M 227.60 181.26 C 238.22 174.64 249.79 169.35 261.83 165.90 C 262.26 166.02 263.13 166.27 263.56 166.40 C 263.66 167.25 263.88 168.95 263.98 169.80 C 259.33 171.07 254.98 173.19 250.48 174.87 C 247.54 176.07 244.55 177.17 241.72 178.62 C 245.46 178.18 248.88 176.52 252.48 175.53 C 254.27 175.53 256.07 175.58 257.87 175.63 C 257.83 176.05 257.74 176.89 257.70 177.31 C 254.82 178.02 252.09 179.21 249.78 181.09 C 243.25 183.37 236.67 185.57 230.44 188.58 C 230.24 186.78 230.16 184.97 230.23 183.16 C 229.36 182.51 228.49 181.87 227.60 181.26 Z" />
<path fill="#b2a5ff" opacity="1.00" d=" M 230.20 188.70 C 237.07 186.20 244.38 185.21 251.39 183.16 C 251.33 184.55 251.27 185.95 251.21 187.35 C 248.33 187.86 245.56 188.82 242.90 190.00 C 236.92 192.24 230.58 193.36 224.69 195.85 C 226.70 195.63 228.71 195.33 230.70 194.94 C 235.15 194.12 239.60 193.21 244.02 192.24 C 245.19 193.37 245.74 194.91 246.25 196.42 C 241.74 197.38 237.24 198.36 232.83 199.67 C 227.18 200.59 222.04 203.37 216.32 204.07 C 216.32 204.37 216.32 204.96 216.32 205.26 C 221.14 204.13 226.05 203.42 230.84 202.15 C 230.25 203.91 229.80 205.73 229.59 207.58 C 220.52 209.13 211.67 211.63 202.84 214.17 C 202.93 212.65 203.03 211.13 203.13 209.62 C 205.98 208.72 208.82 207.78 211.65 206.78 C 212.97 206.30 214.31 205.87 215.60 205.31 C 214.63 205.37 212.69 205.49 211.72 205.55 C 211.77 204.12 211.96 202.72 212.31 201.34 C 215.02 199.90 218.38 199.71 220.76 197.67 C 221.75 196.08 221.77 194.07 222.43 192.34 C 224.94 190.97 227.70 190.10 230.20 188.70 Z" />
<path fill="#b2a5ff" opacity="1.00" d=" M 190.97 223.37 C 200.77 222.48 210.31 219.64 220.13 218.80 C 221.58 220.09 222.93 221.48 224.22 222.94 C 213.14 225.17 201.96 226.94 190.79 228.62 C 190.85 226.87 190.91 225.12 190.97 223.37 Z" />
<path fill="#b2a5ff" opacity="1.00" d=" M 189.23 373.41 C 201.97 376.60 215.12 377.58 228.02 379.90 C 227.33 380.03 225.96 380.30 225.27 380.43 C 225.09 381.87 224.92 383.32 224.75 384.77 C 213.05 383.20 201.42 381.10 189.80 379.01 C 189.35 377.18 189.26 375.28 189.23 373.41 Z" />
<path fill="#49a0ff" opacity="1.00" d=" M 341.93 166.07 C 354.08 169.13 365.34 174.91 376.24 180.98 L 376.27 181.25 C 375.60 184.84 379.23 185.85 381.55 187.45 C 383.95 188.77 384.07 192.11 386.39 193.52 C 387.98 194.56 389.68 195.42 391.34 196.36 C 391.66 200.83 396.14 201.73 399.20 203.87 C 399.80 205.13 400.14 206.49 400.57 207.82 C 399.12 207.29 397.60 207.12 396.08 207.14 C 389.49 204.65 382.86 202.21 375.96 200.71 C 375.08 199.03 374.25 197.32 373.52 195.57 C 376.68 196.34 379.88 196.92 383.05 197.64 C 377.36 194.58 371.08 193.00 364.94 191.10 C 364.62 189.51 364.29 187.92 363.97 186.34 C 366.21 187.23 368.61 187.55 371.00 187.70 C 368.24 186.18 365.34 184.96 362.42 183.82 C 361.77 181.92 361.11 180.02 360.08 178.29 L 360.91 178.58 C 357.56 175.90 353.47 174.45 349.49 173.01 C 349.37 172.03 349.39 171.03 349.06 170.10 C 346.69 168.74 344.10 167.76 341.93 166.07 M 372.18 188.16 C 372.51 191.43 375.13 186.51 372.18 188.16 M 384.33 198.06 C 384.56 199.38 385.31 199.66 386.59 198.90 C 386.35 197.58 385.60 197.30 384.33 198.06 Z" />
<path fill="#81a3ff" opacity="1.00" d=" M 282.43 169.86 C 293.61 168.76 304.92 168.22 316.12 169.43 C 316.00 170.19 315.78 171.71 315.67 172.47 C 314.33 172.99 312.99 173.51 311.66 174.03 C 301.74 173.24 291.77 173.61 281.88 174.52 C 282.91 173.65 283.95 172.78 284.98 171.92 C 284.34 171.40 283.06 170.37 282.43 169.86 Z" />
<path fill="#6aa1ff" opacity="1.00" d=" M 316.12 169.43 C 325.06 169.89 333.94 171.40 342.66 173.41 C 342.13 174.91 341.61 176.41 341.09 177.91 C 331.45 175.57 321.57 174.28 311.66 174.03 C 312.99 173.51 314.33 172.99 315.67 172.47 C 315.78 171.71 316.00 170.19 316.12 169.43 Z" />
<path fill="#6aa1ff" opacity="1.00" d=" M 321.60 187.32 C 330.10 187.63 338.49 189.02 346.92 190.05 C 348.31 190.79 350.56 190.94 350.96 192.75 C 350.58 193.34 349.82 194.51 349.44 195.10 C 343.04 194.12 336.62 193.30 330.16 192.86 C 326.92 191.68 324.35 189.30 321.60 187.32 Z" />
<path fill="#6aa1ff" opacity="1.00" d=" M 321.35 401.82 C 332.23 401.86 343.01 400.27 353.77 398.80 C 356.38 401.06 359.42 402.96 363.06 402.15 C 349.28 403.95 335.55 406.23 321.63 406.61 C 321.53 405.01 321.44 403.41 321.35 401.82 Z" />
<path fill="#9ba4ff" opacity="1.00" d=" M 252.48 175.53 C 262.22 172.65 272.32 170.94 282.43 169.86 C 283.06 170.37 284.34 171.40 284.98 171.92 C 283.95 172.78 282.91 173.65 281.88 174.52 C 271.00 175.59 260.26 178.03 249.78 181.09 C 252.09 179.21 254.82 178.02 257.70 177.31 C 257.74 176.89 257.83 176.05 257.87 175.63 C 256.07 175.58 254.27 175.53 252.48 175.53 Z" />
<path fill="#9ba4ff" opacity="1.00" d=" M 245.15 191.94 C 254.74 190.60 264.35 189.50 273.95 188.20 C 273.76 189.74 273.59 191.29 273.41 192.84 C 264.31 193.65 255.18 194.51 246.25 196.42 C 245.74 194.91 245.19 193.37 244.02 192.24 C 244.30 192.16 244.87 192.01 245.15 191.94 Z" />
<path fill="#9ba4ff" opacity="1.00" d=" M 207.36 350.42 C 211.42 350.55 215.03 349.15 218.02 346.47 C 234.35 347.42 250.70 348.07 267.05 348.40 C 266.97 349.17 266.79 350.71 266.70 351.48 C 264.58 351.84 262.49 352.36 260.47 353.10 C 248.31 352.95 236.18 351.85 224.02 351.49 C 222.59 351.39 221.15 351.32 219.72 351.36 C 215.60 351.37 211.48 351.27 207.37 351.22 L 207.36 350.42 Z" />
<path fill="#9ba4ff" opacity="1.00" d=" M 215.74 354.95 C 232.54 355.45 249.31 357.08 266.13 357.08 C 265.61 358.65 265.09 360.21 264.58 361.79 C 256.72 361.52 248.85 361.45 241.01 360.82 C 232.62 360.55 224.26 359.30 215.84 359.74 C 217.17 359.34 218.48 358.88 219.80 358.44 C 219.81 357.96 219.85 357.01 219.86 356.53 C 218.49 355.99 217.12 355.44 215.74 354.95 Z" />
<path fill="#59a0ff" opacity="1.00" d=" M 342.66 173.41 C 348.47 175.00 354.42 176.17 360.08 178.29 C 361.11 180.02 361.77 181.92 362.42 183.82 C 355.39 181.57 348.32 179.41 341.09 177.91 C 341.61 176.41 342.13 174.91 342.66 173.41 Z" />
<path fill="#59a0ff" opacity="1.00" d=" M 353.64 207.31 C 362.95 208.47 372.27 209.53 381.47 211.36 C 383.05 212.87 385.21 213.22 387.25 213.69 C 386.61 214.74 385.93 215.75 385.23 216.74 C 377.85 215.20 370.39 214.21 362.94 213.10 C 361.55 212.13 360.37 210.91 359.22 209.69 C 357.22 209.23 355.27 208.59 353.64 207.31 Z" />
<path fill="#88a3ff" opacity="1.00" d=" M 272.85 179.43 C 287.63 177.34 302.61 177.66 317.48 178.29 C 314.34 178.86 311.16 178.85 308.00 179.04 C 304.46 179.92 301.08 181.40 297.49 182.18 C 291.15 182.47 284.78 182.47 278.45 183.05 C 277.71 180.46 275.30 179.60 272.85 179.43 Z" />
<path fill="#88a3ff" opacity="1.00" d=" M 276.77 427.37 C 288.20 429.36 299.84 429.35 311.41 429.10 C 310.00 429.58 308.61 430.13 307.22 430.67 C 307.21 431.22 307.17 432.33 307.15 432.89 C 311.18 432.88 315.21 433.02 319.23 433.28 C 308.85 434.42 298.34 434.62 287.94 433.58 C 280.58 432.92 273.30 431.33 265.89 431.23 L 265.10 430.56 C 270.17 430.72 275.24 431.01 280.31 430.69 C 279.16 429.55 277.99 428.43 276.77 427.37 Z" />
<path fill="#73a2ff" opacity="1.00" d=" M 297.49 182.18 C 301.08 181.40 304.46 179.92 308.00 179.04 C 311.16 178.85 314.34 178.86 317.48 178.29 C 321.47 178.44 325.47 178.75 329.41 179.46 C 331.08 180.49 332.91 181.17 334.82 181.60 C 334.78 182.40 334.68 184.01 334.64 184.81 C 326.90 183.52 319.05 183.15 311.23 182.70 C 306.66 182.29 302.07 182.25 297.49 182.18 Z" />
<path fill="#73a2ff" opacity="1.00" d=" M 325.32 375.21 C 334.15 374.32 343.07 374.76 351.91 373.83 C 352.62 374.57 353.34 375.32 354.07 376.07 C 352.59 376.79 351.12 377.52 349.63 378.18 C 335.91 379.20 322.19 379.66 308.43 379.48 C 308.15 378.97 307.57 377.96 307.28 377.46 C 301.89 376.73 296.39 377.36 290.99 376.62 C 297.29 376.00 303.62 376.44 309.94 376.21 C 315.07 375.98 320.32 376.69 325.32 375.21 Z" />
<path fill="#9ca4ff" opacity="1.00" d=" M 251.39 183.16 C 258.48 181.58 265.70 180.64 272.85 179.43 C 275.30 179.60 277.71 180.46 278.45 183.05 C 269.37 184.50 260.20 185.41 251.21 187.35 C 251.27 185.95 251.33 184.55 251.39 183.16 Z" />
<path fill="#9ca4ff" opacity="1.00" d=" M 215.63 243.23 C 220.74 242.67 225.88 242.78 230.99 242.29 C 238.60 241.45 246.27 242.09 253.88 241.26 C 257.00 241.58 258.59 244.52 261.13 245.94 C 248.09 246.10 235.09 246.85 222.09 247.67 C 221.99 246.86 221.78 245.23 221.68 244.42 C 219.67 244.01 217.66 243.58 215.63 243.23 Z" />
<path fill="#5da1ff" opacity="1.00" d=" M 329.41 179.46 C 341.05 180.92 352.78 182.77 363.97 186.34 C 364.29 187.92 364.62 189.51 364.94 191.10 C 355.02 188.21 344.84 186.35 334.64 184.81 C 334.68 184.01 334.78 182.40 334.82 181.60 C 332.91 181.17 331.08 180.49 329.41 179.46 Z" />
<path fill="#5da1ff" opacity="1.00" d=" M 340.27 200.33 C 341.09 199.49 341.91 198.65 342.77 197.84 C 353.12 199.03 363.57 200.15 373.69 202.70 C 375.03 203.46 376.40 204.19 377.80 204.87 C 377.44 205.81 377.09 206.75 376.74 207.69 C 362.47 204.91 348.09 202.76 333.60 201.57 C 335.82 201.18 338.05 200.74 340.27 200.33 Z" />
<path fill="#cda7ff" opacity="1.00" d=" M 223.54 183.77 C 224.87 182.90 226.14 181.91 227.60 181.26 C 228.49 181.87 229.36 182.51 230.23 183.16 C 230.16 184.97 230.24 186.78 230.44 188.58 L 230.20 188.70 C 227.70 190.10 224.94 190.97 222.43 192.34 C 221.77 194.07 221.75 196.08 220.76 197.67 C 218.38 199.71 215.02 199.90 212.31 201.34 C 211.96 202.72 211.77 204.12 211.72 205.55 C 211.70 205.86 211.66 206.47 211.65 206.78 C 208.82 207.78 205.98 208.72 203.13 209.62 C 203.03 211.13 202.93 212.65 202.84 214.17 C 201.93 214.47 201.02 214.79 200.11 215.12 C 198.34 213.77 195.88 216.50 199.04 216.23 C 197.74 216.71 196.42 217.14 195.10 217.59 C 194.97 219.05 194.83 220.50 194.70 221.96 C 193.04 222.38 191.39 222.83 189.77 223.38 L 190.97 223.37 C 190.91 225.12 190.85 226.87 190.79 228.62 C 188.46 228.88 186.34 229.89 184.62 231.48 C 182.85 233.04 180.49 232.88 178.30 232.75 C 178.30 232.46 178.31 231.88 178.31 231.60 C 176.96 231.84 175.61 232.07 174.27 232.31 C 174.26 232.65 174.26 233.34 174.26 233.69 C 174.25 235.01 174.25 236.34 174.28 237.67 L 174.28 238.75 C 172.44 239.08 170.59 239.39 168.79 239.86 C 168.59 240.09 168.18 240.55 167.98 240.77 C 166.53 242.48 165.28 244.37 164.57 246.51 C 164.43 247.06 164.15 248.15 164.01 248.70 C 161.74 249.36 159.39 249.29 157.08 248.96 C 156.40 248.45 155.73 247.93 155.07 247.41 C 153.29 248.22 151.52 249.05 149.77 249.91 L 151.52 249.91 C 149.34 250.88 147.00 251.29 144.71 251.85 C 144.30 252.93 144.03 254.04 143.88 255.20 C 140.10 255.94 136.33 256.75 132.58 257.63 C 132.42 257.80 132.08 258.15 131.91 258.32 C 131.52 260.14 131.34 262.00 131.16 263.86 C 130.05 264.03 128.94 264.24 127.83 264.39 C 124.97 264.14 122.64 265.56 121.16 267.93 C 121.34 267.10 121.72 265.43 121.91 264.60 C 119.23 265.10 116.55 265.68 113.98 266.60 C 111.87 266.59 109.77 266.70 107.68 267.00 C 105.29 267.24 102.93 267.74 100.63 268.48 C 98.39 268.61 96.13 268.61 93.92 269.00 C 91.46 269.46 88.94 269.92 86.73 271.13 C 83.85 270.56 80.99 271.02 78.37 272.25 C 78.04 272.29 77.38 272.39 77.05 272.44 C 77.97 270.81 78.86 269.18 79.75 267.55 C 82.49 266.68 85.29 266.02 88.03 265.16 C 90.33 264.74 91.00 262.12 92.89 261.05 C 95.81 259.70 99.16 259.57 102.01 258.07 C 103.61 256.49 104.40 254.31 105.48 252.39 C 112.81 248.27 120.79 245.17 128.44 241.58 C 132.67 239.46 136.69 236.92 141.11 235.20 C 147.89 232.11 154.19 228.09 160.83 224.72 C 169.01 219.96 177.53 215.75 185.25 210.23 C 186.89 209.24 188.54 208.26 190.17 207.26 C 193.23 205.32 196.32 203.41 199.22 201.24 C 207.50 195.66 215.46 189.63 223.54 183.77 M 179.24 226.44 C 180.17 227.21 182.88 226.58 182.05 225.04 C 181.14 224.03 178.63 225.06 179.24 226.44 M 163.16 235.10 C 163.32 238.36 166.21 233.59 163.16 235.10 M 155.95 242.63 C 158.20 243.24 160.05 242.01 161.71 240.65 C 159.75 241.21 157.79 241.76 155.95 242.63 M 146.16 244.09 C 146.30 247.36 149.22 242.61 146.16 244.09 M 137.86 251.70 C 139.16 251.73 140.46 251.76 141.77 251.78 C 142.54 251.22 143.31 250.66 144.08 250.11 C 141.85 249.96 139.75 250.55 137.86 251.70 M 127.14 253.10 C 127.30 256.37 130.20 251.58 127.14 253.10 M 120.80 259.33 C 121.53 260.81 126.61 260.46 123.90 258.94 C 122.90 258.18 121.79 259.11 120.80 259.33 Z" />
<path fill="#4c5484" opacity="0.52" d=" M 278.45 183.05 C 284.78 182.47 291.15 182.47 297.49 182.18 C 302.07 182.25 306.66 182.29 311.23 182.70 C 299.86 182.95 288.46 182.66 277.14 184.00 C 267.62 185.20 258.08 186.45 248.76 188.78 C 249.21 189.40 249.67 190.01 250.14 190.62 C 263.20 189.36 276.13 186.60 289.30 186.73 C 284.23 187.67 279.06 187.68 273.95 188.20 C 264.35 189.50 254.74 190.60 245.15 191.94 C 245.80 191.76 247.11 191.40 247.76 191.23 C 247.87 190.75 248.08 189.79 248.18 189.31 C 246.42 189.50 244.65 189.73 242.90 190.00 C 245.56 188.82 248.33 187.86 251.21 187.35 C 260.20 185.41 269.37 184.50 278.45 183.05 Z" />
<path fill="#369fff" opacity="1.00" d=" M 376.27 181.25 C 380.99 183.92 385.33 187.20 389.66 190.44 C 394.60 194.57 400.25 197.72 405.39 201.59 C 410.45 205.35 416.06 208.27 421.23 211.87 C 426.28 215.33 432.04 217.86 436.99 221.34 C 436.29 225.86 441.38 226.06 444.29 227.65 C 447.08 228.69 448.44 231.63 451.01 233.00 C 453.01 234.07 455.13 234.90 457.22 235.81 C 457.72 236.97 458.23 238.14 458.74 239.30 C 461.57 240.51 464.50 241.45 467.29 242.76 C 468.88 243.33 468.88 245.30 469.58 246.60 C 472.45 247.70 475.46 248.47 478.25 249.81 C 478.93 251.31 478.20 253.33 479.29 254.61 C 482.74 255.51 486.34 255.60 489.86 256.15 C 489.84 257.28 489.84 258.42 489.84 259.56 C 488.31 259.78 486.78 260.02 485.27 260.28 C 484.32 259.42 483.20 258.97 481.92 258.94 C 481.10 259.04 479.45 259.24 478.63 259.34 C 478.50 259.39 478.24 259.50 478.11 259.55 L 478.37 259.80 C 479.18 261.09 481.11 260.92 481.88 259.67 C 482.45 260.98 483.45 261.44 484.89 261.03 C 487.29 261.24 489.76 261.78 492.14 261.06 C 492.69 262.54 493.28 262.53 493.90 261.05 C 495.89 261.59 497.95 262.23 499.51 263.66 C 499.89 264.97 500.21 266.31 500.47 267.67 C 499.03 267.45 497.60 267.24 496.17 267.05 C 493.97 266.72 491.76 266.49 489.54 266.38 C 486.93 265.61 484.22 265.18 481.50 265.35 C 479.53 265.00 477.57 264.63 475.60 264.31 C 472.70 263.78 469.77 263.46 466.83 263.45 C 464.97 263.21 463.12 262.91 461.29 262.63 C 459.77 262.39 458.23 262.22 456.72 262.05 C 457.91 261.31 459.11 260.57 460.31 259.83 C 459.61 258.83 458.90 257.83 458.24 256.81 C 458.05 256.52 457.68 255.92 457.50 255.63 C 457.56 254.33 457.57 253.03 457.55 251.74 C 456.41 251.14 455.22 250.67 454.04 250.20 C 453.63 249.79 452.80 248.96 452.38 248.55 C 450.35 248.17 448.32 247.82 446.29 247.47 C 446.30 247.84 446.33 248.57 446.34 248.94 C 444.39 248.98 442.44 248.99 440.53 248.66 C 440.44 248.17 440.28 247.21 440.19 246.72 C 437.43 246.13 434.67 245.59 431.93 244.97 C 432.15 245.57 432.58 246.78 432.80 247.38 C 430.88 247.29 428.97 247.26 427.06 247.13 C 427.06 243.67 423.28 243.75 420.76 243.43 C 422.33 243.04 423.89 242.61 425.45 242.18 C 424.88 240.59 424.32 239.01 423.79 237.42 C 425.33 237.68 426.92 237.86 428.37 238.53 C 430.59 240.55 433.78 241.40 436.63 240.25 C 437.90 239.96 439.18 239.66 440.46 239.37 C 441.09 238.43 441.73 237.50 442.33 236.55 C 442.27 236.37 442.14 236.01 442.07 235.83 C 441.49 234.79 440.53 234.42 439.19 234.72 C 438.91 234.67 438.37 234.58 438.10 234.53 C 435.92 235.19 433.68 235.23 431.60 234.22 C 429.83 232.57 427.01 230.88 424.60 232.03 C 422.93 233.36 421.13 232.68 419.66 231.49 L 418.31 230.13 C 419.71 229.93 421.11 229.71 422.51 229.48 C 422.74 229.01 423.21 228.06 423.44 227.59 C 424.17 227.34 425.62 226.83 426.34 226.57 C 424.78 225.80 423.20 224.31 421.38 225.26 C 418.97 226.35 416.51 225.28 414.23 224.43 C 413.99 224.04 413.52 223.26 413.28 222.87 C 416.11 223.28 417.66 221.06 418.97 218.98 C 416.15 218.57 413.05 218.88 410.49 217.51 C 409.53 215.71 408.95 213.73 408.29 211.81 C 405.88 210.56 403.42 209.42 401.05 208.12 L 400.57 207.82 C 400.14 206.49 399.80 205.13 399.20 203.87 C 396.14 201.73 391.66 200.83 391.34 196.36 C 389.68 195.42 387.98 194.56 386.39 193.52 C 384.07 192.11 383.95 188.77 381.55 187.45 C 379.23 185.85 375.60 184.84 376.27 181.25 M 444.22 242.50 C 446.74 244.99 447.52 240.37 444.34 241.87 C 442.49 238.80 441.07 243.83 444.22 242.50 M 456.21 244.14 C 456.47 247.43 459.16 242.52 456.21 244.14 M 459.90 250.22 C 461.07 251.94 463.48 251.24 465.22 251.64 C 463.59 250.71 461.76 250.23 459.90 250.22 M 474.26 253.18 C 474.51 254.44 475.29 254.66 476.60 253.85 C 476.34 252.58 475.56 252.36 474.26 253.18 M 463.03 256.54 C 465.40 258.24 468.53 258.28 471.32 258.74 C 469.27 256.57 465.74 257.18 463.03 256.54 Z" />
<path fill="#7fa2ff" opacity="1.00" d=" M 273.95 188.20 C 279.06 187.68 284.23 187.67 289.30 186.73 C 300.06 186.91 310.87 186.28 321.60 187.32 C 324.35 189.30 326.92 191.68 330.16 192.86 C 319.83 191.46 309.41 191.67 299.01 191.47 C 290.46 191.33 281.91 191.94 273.41 192.84 C 273.59 191.29 273.76 189.74 273.95 188.20 Z" />
<path fill="#a2ceff" opacity="1.00" d=" M 372.18 188.16 C 375.13 186.51 372.51 191.43 372.18 188.16 Z" />
<path fill="#58a0ff" opacity="1.00" d=" M 346.92 190.05 C 355.90 191.31 364.79 193.11 373.52 195.57 C 374.25 197.32 375.08 199.03 375.96 200.71 C 367.26 198.26 358.34 196.63 349.44 195.10 C 349.82 194.51 350.58 193.34 350.96 192.75 C 350.56 190.94 348.31 190.79 346.92 190.05 Z" />
<path fill="#58a0ff" opacity="1.00" d=" M 414.99 344.95 C 421.27 345.43 427.63 345.76 433.86 344.57 C 433.83 345.58 433.81 346.60 433.80 347.63 C 428.67 347.00 423.36 347.11 418.46 348.87 C 402.99 350.69 387.40 351.15 371.85 351.76 C 372.13 351.13 372.70 349.89 372.99 349.26 C 368.30 348.97 363.63 348.42 358.97 347.85 C 377.66 347.25 396.34 346.24 414.99 344.95 Z" />
<path fill="#8ea3ff" opacity="1.00" d=" M 249.84 199.03 C 264.33 197.43 278.89 196.01 293.47 195.78 C 295.53 196.43 297.50 197.34 299.36 198.46 C 296.69 198.79 294.00 198.99 291.32 199.15 C 291.46 199.50 291.76 200.21 291.91 200.56 C 280.52 200.68 269.18 201.72 257.83 202.64 C 259.34 201.60 260.87 200.59 262.41 199.58 C 258.24 198.96 254.03 199.24 249.84 199.03 Z" />
<path fill="#8ea3ff" opacity="1.00" d=" M 247.68 249.71 C 265.11 249.59 282.56 250.96 299.98 249.77 C 320.65 251.06 341.41 249.63 362.11 250.58 C 354.27 250.72 346.43 250.28 338.60 250.75 C 321.80 250.53 304.99 250.54 288.20 251.09 C 288.13 251.83 287.98 253.30 287.91 254.04 C 271.08 254.10 254.26 254.84 237.44 255.23 C 240.68 253.59 244.34 253.73 247.86 253.68 C 247.83 252.82 247.75 251.11 247.72 250.25 L 247.68 249.71 Z" />
<path fill="#77a2ff" opacity="1.00" d=" M 293.47 195.78 C 302.33 195.80 311.21 195.66 320.07 195.89 C 327.64 196.56 335.22 196.98 342.77 197.84 C 341.91 198.65 341.09 199.49 340.27 200.33 C 338.05 200.74 335.82 201.18 333.60 201.57 C 319.73 200.65 305.81 200.22 291.91 200.56 C 291.76 200.21 291.46 199.50 291.32 199.15 C 294.00 198.99 296.69 198.79 299.36 198.46 C 297.50 197.34 295.53 196.43 293.47 195.78 Z" />
<path fill="#8cc3fd" opacity="1.00" d=" M 384.33 198.06 C 385.60 197.30 386.35 197.58 386.59 198.90 C 385.31 199.66 384.56 199.38 384.33 198.06 Z" />
<path fill="#a4a4ff" opacity="1.00" d=" M 230.84 202.15 C 237.09 200.65 243.43 199.64 249.84 199.03 C 254.03 199.24 258.24 198.96 262.41 199.58 C 260.87 200.59 259.34 201.60 257.83 202.64 C 248.36 203.89 238.81 205.00 229.59 207.58 C 229.80 205.73 230.25 203.91 230.84 202.15 Z" />
<path fill="#a4a4ff" opacity="1.00" d=" M 229.02 400.25 C 229.65 398.73 230.29 397.22 230.92 395.70 C 239.01 396.99 247.08 398.36 255.16 399.66 C 254.63 399.81 253.57 400.09 253.04 400.24 C 253.87 400.64 254.71 401.05 255.54 401.46 C 255.70 402.18 256.02 403.64 256.18 404.37 C 250.97 403.33 245.58 403.81 240.44 402.39 C 236.68 401.44 232.81 401.08 229.02 400.25 Z" />
<path fill="#48a0ff" opacity="1.00" d=" M 373.69 202.70 C 381.17 203.62 388.33 206.05 395.74 207.35 C 397.19 208.46 399.56 210.12 401.05 208.12 C 403.42 209.42 405.88 210.56 408.29 211.81 C 408.95 213.73 409.53 215.71 410.49 217.51 C 413.05 218.88 416.15 218.57 418.97 218.98 C 417.66 221.06 416.11 223.28 413.28 222.87 C 403.92 220.87 394.72 218.07 385.23 216.74 C 385.93 215.75 386.61 214.74 387.25 213.69 C 385.21 213.22 383.05 212.87 381.47 211.36 C 390.22 212.11 398.49 215.37 407.20 216.33 C 403.51 213.99 399.01 213.67 394.97 212.20 C 389.05 210.12 382.80 209.24 376.74 207.69 C 377.09 206.75 377.44 205.81 377.80 204.87 C 376.40 204.19 375.03 203.46 373.69 202.70 M 408.17 216.31 C 408.70 216.80 408.70 216.80 408.17 216.31 Z" />
<path fill="#7ba2ff" opacity="1.00" d=" M 262.90 206.10 C 283.77 204.78 304.73 204.21 325.63 205.25 C 325.62 207.80 328.24 208.83 330.03 210.04 C 317.55 209.51 305.05 209.15 292.55 209.39 C 291.69 208.00 290.86 206.17 288.92 206.28 C 280.26 205.53 271.57 206.70 262.90 206.10 Z" />
<path fill="#90a3ff" opacity="1.00" d=" M 250.89 207.04 C 254.87 206.49 258.89 206.42 262.90 206.10 C 271.57 206.70 280.26 205.53 288.92 206.28 C 290.86 206.17 291.69 208.00 292.55 209.39 C 282.66 209.52 272.79 210.06 262.93 210.71 C 261.94 209.61 261.10 208.30 259.86 207.47 C 256.88 207.16 253.88 207.18 250.89 207.04 Z" />
<path fill="#69a1ff" opacity="1.00" d=" M 330.03 210.04 C 328.24 208.83 325.62 207.80 325.63 205.25 C 333.55 205.90 341.51 205.77 349.41 206.76 C 350.82 206.91 352.23 207.08 353.64 207.31 C 355.27 208.59 357.22 209.23 359.22 209.69 C 360.37 210.91 361.55 212.13 362.94 213.10 C 352.01 211.70 341.03 210.72 330.03 210.04 Z" />
<path fill="#a2a4ff" opacity="1.00" d=" M 226.05 210.64 C 234.27 209.05 242.62 208.39 250.89 207.04 C 253.88 207.18 256.88 207.16 259.86 207.47 C 261.10 208.30 261.94 209.61 262.93 210.71 C 250.64 211.82 238.38 213.26 226.21 215.27 C 224.09 215.14 222.00 214.85 219.91 214.55 C 222.75 213.97 225.57 213.27 228.31 212.29 C 227.75 211.88 226.61 211.05 226.05 210.64 Z" />
<path fill="#a2a4ff" opacity="1.00" d=" M 227.14 217.52 C 236.10 217.60 244.94 215.90 253.87 215.34 C 254.30 215.61 255.18 216.14 255.61 216.40 C 255.77 217.22 256.09 218.88 256.25 219.70 C 245.58 220.79 234.91 221.98 224.22 222.94 C 222.93 221.48 221.58 220.09 220.13 218.80 C 222.49 218.47 224.78 217.77 227.14 217.52 Z" />
<path fill="#87c0fa" opacity="1.00" d=" M 396.08 207.14 C 397.60 207.12 399.12 207.29 400.57 207.82 L 401.05 208.12 C 399.56 210.12 397.19 208.46 395.74 207.35 L 396.08 207.14 Z" />
<path fill="#b4a5ff" opacity="1.00" d=" M 210.90 212.75 C 216.05 212.74 220.89 210.62 226.05 210.64 C 226.61 211.05 227.75 211.88 228.31 212.29 C 225.57 213.27 222.75 213.97 219.91 214.55 C 222.00 214.85 224.09 215.14 226.21 215.27 C 215.66 217.29 205.05 219.02 194.70 221.96 C 194.83 220.50 194.97 219.05 195.10 217.59 C 196.42 217.14 197.74 216.71 199.04 216.23 L 199.92 215.87 C 201.76 215.22 203.63 214.65 205.51 214.10 C 207.32 213.73 209.14 213.33 210.90 212.75 Z" />
<path fill="#75a2ff" opacity="1.00" d=" M 257.86 214.91 C 265.24 214.52 272.64 214.32 280.03 213.84 C 299.80 213.97 319.59 213.27 339.33 214.59 C 339.09 214.76 338.61 215.08 338.38 215.24 C 339.23 215.86 340.08 216.49 340.93 217.14 C 339.54 217.91 338.07 218.50 336.56 218.97 C 319.43 218.55 302.29 218.04 285.14 218.36 C 283.45 218.07 281.77 217.72 280.09 217.38 C 285.34 216.94 290.65 217.36 295.87 216.63 C 296.24 216.32 296.97 215.72 297.34 215.41 C 290.24 214.95 283.12 214.98 276.01 214.66 C 269.95 214.45 263.91 215.79 257.86 214.91 Z" />
<path fill="#eae3ff" opacity="1.00" d=" M 199.04 216.23 C 195.88 216.50 198.34 213.77 200.11 215.12 L 199.92 215.87 L 199.04 216.23 Z" />
<path fill="#92a3ff" opacity="1.00" d=" M 253.87 215.34 C 255.20 215.20 256.52 215.02 257.86 214.91 C 263.91 215.79 269.95 214.45 276.01 214.66 C 283.12 214.98 290.24 214.95 297.34 215.41 C 296.97 215.72 296.24 216.32 295.87 216.63 C 290.65 217.36 285.34 216.94 280.09 217.38 C 281.77 217.72 283.45 218.07 285.14 218.36 C 275.49 218.45 265.89 219.42 256.25 219.70 C 256.09 218.88 255.77 217.22 255.61 216.40 C 255.18 216.14 254.30 215.61 253.87 215.34 Z" />
<path fill="#63a1ff" opacity="1.00" d=" M 338.38 215.24 C 338.61 215.08 339.09 214.76 339.33 214.59 C 355.34 215.48 371.28 217.47 387.17 219.61 C 385.58 219.76 384.01 219.97 382.43 220.17 C 382.24 220.73 381.84 221.85 381.65 222.41 C 376.66 221.46 371.54 220.31 366.50 221.68 C 356.56 220.44 346.53 220.00 336.56 218.97 C 338.07 218.50 339.54 217.91 340.93 217.14 C 340.08 216.49 339.23 215.86 338.38 215.24 Z" />
<path fill="#a1cdf8" opacity="0.98" d=" M 408.17 216.31 C 408.70 216.80 408.70 216.80 408.17 216.31 Z" />
<path fill="#4ca0ff" opacity="1.00" d=" M 382.43 220.17 C 384.01 219.97 385.58 219.76 387.17 219.61 C 396.33 220.41 405.18 222.99 414.23 224.43 C 416.51 225.28 418.97 226.35 421.38 225.26 C 423.20 224.31 424.78 225.80 426.34 226.57 C 425.62 226.83 424.17 227.34 423.44 227.59 C 423.21 228.06 422.74 229.01 422.51 229.48 C 421.11 229.71 419.71 229.93 418.31 230.13 C 415.27 229.23 412.14 228.67 409.02 228.14 C 395.00 225.14 380.76 223.23 366.50 221.68 C 371.54 220.31 376.66 221.46 381.65 222.41 C 381.84 221.85 382.24 220.73 382.43 220.17 Z" />
<path fill="#4ca0ff" opacity="1.00" d=" M 386.83 227.33 C 397.88 227.71 408.67 231.19 419.66 231.49 C 421.13 232.68 422.93 233.36 424.60 232.03 C 426.93 232.77 429.25 233.55 431.60 234.22 C 433.68 235.23 435.92 235.19 438.10 234.53 C 438.37 234.58 438.91 234.67 439.19 234.72 L 439.36 235.49 C 440.04 235.58 441.39 235.75 442.07 235.83 C 442.14 236.01 442.27 236.37 442.33 236.55 C 441.73 237.50 441.09 238.43 440.46 239.37 C 439.18 239.66 437.90 239.96 436.63 240.25 C 433.93 239.44 431.19 238.71 428.37 238.53 C 426.92 237.86 425.33 237.68 423.79 237.42 C 424.32 239.01 424.88 240.59 425.45 242.18 C 423.89 242.61 422.33 243.04 420.76 243.43 C 408.06 242.29 395.44 240.30 382.72 239.36 C 386.23 238.90 389.76 238.62 393.31 238.52 C 391.78 237.41 390.22 236.32 388.59 235.38 C 399.48 236.30 410.37 237.36 421.14 239.23 C 423.13 240.69 423.66 236.97 421.81 237.20 C 408.47 234.75 395.02 232.92 381.55 231.32 C 384.41 231.00 387.26 230.68 390.13 230.49 C 389.03 229.44 387.92 228.39 386.83 227.33 Z" />
<path fill="#279eff" opacity="1.00" d=" M 436.99 221.34 C 459.75 233.96 483.13 245.49 507.07 255.70 C 507.26 255.84 507.62 256.11 507.80 256.25 C 508.87 260.91 513.87 261.33 517.67 262.44 C 519.92 262.82 521.07 264.93 522.71 266.28 C 525.84 267.71 529.51 267.62 532.55 269.34 C 532.76 270.38 532.94 271.43 533.09 272.49 C 532.25 272.72 530.56 273.18 529.71 273.41 C 528.14 272.81 526.53 272.33 524.92 271.91 C 522.53 271.15 520.02 271.21 517.57 271.47 C 515.33 270.19 512.80 269.59 510.28 269.19 C 508.06 269.08 505.85 269.07 503.63 269.02 C 502.62 268.45 501.57 267.98 500.47 267.67 C 500.21 266.31 499.89 264.97 499.51 263.66 C 497.95 262.23 495.89 261.59 493.90 261.05 C 493.46 261.05 492.58 261.06 492.14 261.06 C 489.76 261.78 487.29 261.24 484.89 261.03 L 485.27 260.28 C 486.78 260.02 488.31 259.78 489.84 259.56 C 489.84 258.42 489.84 257.28 489.86 256.15 C 486.34 255.60 482.74 255.51 479.29 254.61 C 478.20 253.33 478.93 251.31 478.25 249.81 C 475.46 248.47 472.45 247.70 469.58 246.60 C 468.88 245.30 468.88 243.33 467.29 242.76 C 464.50 241.45 461.57 240.51 458.74 239.30 C 458.23 238.14 457.72 236.97 457.22 235.81 C 455.13 234.90 453.01 234.07 451.01 233.00 C 448.44 231.63 447.08 228.69 444.29 227.65 C 441.38 226.06 436.29 225.86 436.99 221.34 Z" />
<path fill="#89a3ff" opacity="1.00" d=" M 261.74 223.43 C 281.46 222.05 301.25 223.00 321.00 222.77 C 326.86 222.85 332.75 222.45 338.58 223.28 C 332.09 224.72 325.47 222.94 318.94 223.79 C 316.60 224.36 314.51 225.91 312.02 225.78 C 303.02 225.82 294.01 225.86 285.03 226.38 C 286.71 226.69 288.39 226.99 290.09 227.23 C 280.64 227.63 271.18 227.83 261.73 227.87 C 264.60 226.74 267.69 226.57 270.74 226.56 C 270.77 225.98 270.83 224.83 270.86 224.25 C 267.81 224.00 264.78 223.68 261.74 223.43 Z" />
<path fill="#99a4ff" opacity="1.00" d=" M 238.34 225.17 C 246.14 224.55 253.94 224.00 261.74 223.43 C 264.78 223.68 267.81 224.00 270.86 224.25 C 270.83 224.83 270.77 225.98 270.74 226.56 C 267.69 226.57 264.60 226.74 261.73 227.87 C 257.29 228.86 252.73 228.77 248.23 229.12 C 241.30 229.35 234.41 230.02 227.49 230.42 C 229.11 229.75 230.71 229.03 232.32 228.33 C 232.64 227.93 233.29 227.11 233.61 226.70 C 235.18 226.17 236.75 225.63 238.34 225.17 Z" />
<path fill="#99a4ff" opacity="1.00" d=" M 246.98 414.00 C 258.28 416.25 269.63 418.27 281.10 419.45 C 281.33 420.44 281.57 421.43 281.82 422.43 C 279.44 422.77 277.06 423.15 274.68 423.45 C 268.48 423.02 262.29 422.18 256.25 420.67 C 256.10 419.82 255.79 418.14 255.63 417.29 C 252.72 416.26 249.85 415.14 246.98 414.00 Z" />
<path fill="#6ea2ff" opacity="1.00" d=" M 312.02 225.78 C 314.51 225.91 316.60 224.36 318.94 223.79 C 325.47 222.94 332.09 224.72 338.58 223.28 C 345.10 223.61 351.62 223.87 358.11 224.63 C 358.01 225.40 357.81 226.95 357.71 227.73 C 353.37 227.65 349.03 227.82 344.74 228.44 C 326.56 227.11 308.31 227.10 290.09 227.23 C 288.39 226.99 286.71 226.69 285.03 226.38 C 294.01 225.86 303.02 225.82 312.02 225.78 Z" />
<path fill="#aba5ff" opacity="1.00" d=" M 198.28 229.69 C 211.42 226.66 224.95 226.15 238.34 225.17 C 236.75 225.63 235.18 226.17 233.61 226.70 C 233.29 227.11 232.64 227.93 232.32 228.33 C 230.71 229.03 229.11 229.75 227.49 230.42 C 216.26 231.25 205.36 234.63 194.07 235.06 L 194.99 233.73 C 195.84 233.26 196.70 232.82 197.58 232.40 C 197.75 231.72 198.10 230.37 198.28 229.69 Z" />
<path fill="#aba5ff" opacity="1.00" d=" M 234.68 425.62 C 236.43 425.46 238.31 425.46 239.85 424.46 C 240.87 424.49 241.90 424.52 242.93 424.55 C 250.04 429.02 258.13 431.38 266.22 433.33 C 265.88 434.88 265.55 436.45 265.22 438.01 C 254.66 434.92 244.27 431.04 234.68 425.62 Z" />
<path fill="#5fa1ff" opacity="1.00" d=" M 358.11 224.63 C 367.72 225.14 377.28 226.24 386.83 227.33 C 387.92 228.39 389.03 229.44 390.13 230.49 C 387.26 230.68 384.41 231.00 381.55 231.32 C 369.29 230.29 357.04 228.97 344.74 228.44 C 349.03 227.82 353.37 227.65 357.71 227.73 C 357.81 226.95 358.01 225.40 358.11 224.63 Z" />
<path fill="#44435b" opacity="0.36" d=" M 227.49 230.42 C 234.41 230.02 241.30 229.35 248.23 229.12 C 237.65 230.67 226.78 230.46 216.38 233.04 C 219.22 235.03 222.75 234.31 225.96 233.97 C 231.65 233.24 237.40 233.57 243.11 233.11 C 239.98 233.50 236.86 234.01 233.70 234.13 C 223.35 234.62 212.98 235.09 202.69 236.31 C 201.12 234.66 198.88 235.44 196.94 235.56 C 192.86 236.12 188.74 236.31 184.66 236.88 C 187.65 235.66 190.90 235.50 194.07 235.06 C 205.36 234.63 216.26 231.25 227.49 230.42 Z" />
<path fill="#b9a5ff" opacity="1.00" d=" M 184.62 231.48 C 189.11 230.47 193.68 229.84 198.28 229.69 C 198.10 230.37 197.75 231.72 197.58 232.40 C 196.70 232.82 195.84 233.26 194.99 233.73 L 194.07 235.06 C 190.90 235.50 187.65 235.66 184.66 236.88 C 183.31 237.35 181.97 237.87 180.63 238.37 C 181.76 238.52 182.90 238.67 184.04 238.84 C 189.06 238.11 194.04 237.08 199.11 236.79 C 199.06 238.26 199.01 239.73 198.96 241.20 C 193.80 241.71 188.46 241.69 183.57 243.62 C 181.96 243.94 180.35 244.25 178.72 244.44 C 176.50 244.58 174.26 244.68 172.06 245.04 C 169.54 245.37 167.04 245.91 164.57 246.51 C 165.28 244.37 166.53 242.48 167.98 240.77 C 170.14 240.81 172.29 240.58 174.42 240.19 C 176.61 239.71 179.41 240.03 180.73 237.78 C 178.58 237.85 176.44 238.01 174.31 238.26 L 174.28 237.67 C 174.25 236.34 174.25 235.01 174.26 233.69 C 175.60 233.36 176.94 233.03 178.30 232.75 C 180.49 232.88 182.85 233.04 184.62 231.48 Z" />
<path fill="#82a3ff" opacity="1.00" d=" M 268.26 232.07 C 273.50 231.60 278.76 231.76 284.01 231.72 C 304.81 231.89 325.64 231.22 346.42 232.47 C 337.70 233.71 328.85 231.97 320.12 233.10 C 319.00 233.91 318.34 235.17 317.49 236.23 C 303.35 235.95 289.23 236.06 275.10 236.48 C 275.00 235.72 274.80 234.21 274.70 233.45 C 272.56 232.98 270.41 232.49 268.26 232.07 Z" />
<path fill="#82a3ff" opacity="1.00" d=" M 277.27 366.41 C 291.26 366.86 305.27 366.60 319.27 366.71 C 318.90 368.06 318.53 369.42 318.16 370.79 C 300.98 370.77 283.80 371.03 266.63 370.64 C 269.95 369.99 273.32 369.64 276.70 369.67 C 276.84 368.85 277.12 367.22 277.27 366.41 Z" />
<path fill="#6fa2ff" opacity="1.00" d=" M 317.49 236.23 C 318.34 235.17 319.00 233.91 320.12 233.10 C 328.85 231.97 337.70 233.71 346.42 232.47 C 351.39 232.82 356.38 232.78 361.35 233.25 C 360.88 235.03 360.53 236.98 358.76 237.96 C 345.03 236.87 331.25 236.62 317.49 236.23 Z" />
<path fill="#5ea1ff" opacity="1.00" d=" M 361.35 233.25 C 370.41 234.25 379.56 234.04 388.59 235.38 C 390.22 236.32 391.78 237.41 393.31 238.52 C 389.76 238.62 386.23 238.90 382.72 239.36 C 374.75 238.59 366.75 238.40 358.76 237.96 C 360.53 236.98 360.88 235.03 361.35 233.25 Z" />
<path fill="#5ea1ff" opacity="1.00" d=" M 351.91 373.83 C 364.48 373.30 377.00 372.03 389.48 370.36 C 389.68 371.27 390.10 373.08 390.31 373.99 C 392.55 374.11 394.79 374.24 397.04 374.22 C 384.74 375.18 372.59 377.43 360.25 377.93 C 356.71 377.97 353.16 377.97 349.63 378.18 C 351.12 377.52 352.59 376.79 354.07 376.07 C 353.34 375.32 352.62 374.57 351.91 373.83 Z" />
<path fill="#857b97" opacity="0.59" d=" M 163.16 235.10 C 166.21 233.59 163.32 238.36 163.16 235.10 Z" />
<path fill="#a8a5ff" opacity="1.00" d=" M 202.69 236.31 C 212.98 235.09 223.35 234.62 233.70 234.13 C 234.97 234.76 236.23 235.39 237.49 236.04 C 235.07 236.62 232.68 237.33 230.51 238.57 C 221.41 238.64 212.49 240.44 203.47 241.30 C 201.96 241.24 200.46 241.21 198.96 241.20 C 199.01 239.73 199.06 238.26 199.11 236.79 C 200.30 236.66 201.49 236.49 202.69 236.31 Z" />
<path fill="#93cbff" opacity="1.00" d=" M 439.19 234.72 C 440.53 234.42 441.49 234.79 442.07 235.83 C 441.39 235.75 440.04 235.58 439.36 235.49 L 439.19 234.72 Z" />
<path fill="#e6abff" opacity="1.00" d=" M 174.31 238.26 C 176.44 238.01 178.58 237.85 180.73 237.78 C 179.41 240.03 176.61 239.71 174.42 240.19 C 174.39 239.71 174.34 238.75 174.31 238.26 Z" />
<path fill="#8981b7" opacity="0.72" d=" M 183.57 243.62 C 188.46 241.69 193.80 241.71 198.96 241.20 C 200.46 241.21 201.96 241.24 203.47 241.30 C 197.01 243.10 190.27 244.06 183.57 243.62 Z" />
<path fill="#8da3ff" opacity="1.00" d=" M 253.88 241.26 C 260.39 240.68 266.94 240.69 273.47 240.86 C 275.26 241.51 277.11 242.06 279.04 241.97 C 284.60 241.89 290.15 241.92 295.70 242.25 C 295.79 242.98 295.98 244.44 296.08 245.18 C 284.42 245.35 272.76 245.13 261.13 245.94 C 258.59 244.52 257.00 241.58 253.88 241.26 Z" />
<path fill="#7da2ff" opacity="1.00" d=" M 273.47 240.86 C 287.51 240.67 301.55 240.53 315.59 240.86 C 322.13 243.02 329.12 241.50 335.86 242.25 C 335.86 242.85 335.86 244.05 335.87 244.65 C 330.20 244.69 324.51 244.42 318.87 245.17 C 311.27 245.17 303.67 245.15 296.08 245.18 C 295.98 244.44 295.79 242.98 295.70 242.25 C 290.15 241.92 284.60 241.89 279.04 241.97 C 277.11 242.06 275.26 241.51 273.47 240.86 Z" />
<path fill="#68a1ff" opacity="1.00" d=" M 315.59 240.86 C 328.40 240.98 341.26 240.29 354.03 241.65 C 366.12 241.91 378.21 242.53 390.24 243.74 C 387.19 243.98 384.13 244.09 381.07 244.00 C 380.09 245.19 379.12 246.38 378.16 247.57 C 358.44 245.98 338.64 245.69 318.87 245.17 C 324.51 244.42 330.20 244.69 335.87 244.65 C 335.86 244.05 335.86 242.85 335.86 242.25 C 329.12 241.50 322.13 243.02 315.59 240.86 Z" />
<path fill="#68a1ff" opacity="1.00" d=" M 346.06 356.98 C 353.25 357.32 360.38 356.16 367.56 356.22 C 371.19 357.34 375.07 356.66 378.72 357.54 C 381.64 358.96 384.87 359.41 388.10 359.21 C 369.61 360.47 351.09 361.87 332.53 361.79 C 335.63 360.73 338.91 360.55 342.16 360.48 C 343.35 359.19 344.60 357.95 346.06 356.98 Z" />
<path fill="#8fc5f8" opacity="0.98" d=" M 444.22 242.50 C 441.07 243.83 442.49 238.80 444.34 241.87 L 444.22 242.50 Z" />
<path fill="#28527b" opacity="0.49" d=" M 444.34 241.87 C 447.52 240.37 446.74 244.99 444.22 242.50 L 444.34 241.87 Z" />
<path fill="#817197" opacity="0.59" d=" M 146.16 244.09 C 149.22 242.61 146.30 247.36 146.16 244.09 Z" />
<path fill="#ecaafd" opacity="1.00" d=" M 172.06 245.04 C 174.26 244.68 176.50 244.58 178.72 244.44 C 178.38 245.23 178.04 246.01 177.69 246.80 C 175.45 246.95 173.22 247.05 170.98 247.22 C 171.25 246.68 171.79 245.58 172.06 245.04 Z" />
<path fill="#ada5ff" opacity="1.00" d=" M 185.24 245.65 C 195.41 245.50 205.49 243.88 215.63 243.23 C 217.66 243.58 219.67 244.01 221.68 244.42 C 221.78 245.23 221.99 246.86 222.09 247.67 C 215.50 247.81 209.00 248.87 202.45 249.52 C 194.82 249.47 187.27 250.86 179.63 250.81 C 180.96 249.98 182.27 249.13 183.59 248.29 C 184.14 247.40 184.69 246.53 185.24 245.65 Z" />
<path fill="#ada5ff" opacity="1.00" d=" M 217.40 400.47 C 218.12 400.29 219.55 399.93 220.26 399.74 C 227.92 402.64 235.96 404.36 244.03 405.66 C 245.49 406.48 247.18 407.20 248.10 408.68 C 247.42 409.59 246.71 410.47 245.97 411.34 C 238.92 409.89 232.04 407.82 225.13 405.88 C 222.26 404.80 219.27 404.17 216.30 403.46 C 216.57 402.72 217.13 401.22 217.40 400.47 Z" />
<path fill="#ada5ff" opacity="1.00" d=" M 222.97 407.03 C 230.94 409.50 239.01 411.57 246.98 414.00 C 249.85 415.14 252.72 416.26 255.63 417.29 C 255.79 418.14 256.10 419.82 256.25 420.67 C 247.67 418.51 239.06 416.44 230.52 414.16 C 228.92 413.12 227.26 412.18 225.58 411.30 C 224.71 409.87 223.88 408.43 222.97 407.03 Z" />
<path fill="#55a0ff" opacity="1.00" d=" M 378.16 247.57 C 379.12 246.38 380.09 245.19 381.07 244.00 C 384.13 244.09 387.19 243.98 390.24 243.74 C 401.02 244.10 411.73 245.63 422.49 246.48 C 424.08 247.46 425.64 248.50 427.22 249.53 C 423.66 249.62 420.11 249.96 416.61 250.56 C 403.78 249.72 391.02 247.98 378.16 247.57 Z" />
<path fill="#71bbff" opacity="1.00" d=" M 456.21 244.14 C 459.16 242.52 456.47 247.43 456.21 244.14 Z" />
<path fill="#baa6ff" opacity="1.00" d=" M 177.69 246.80 C 180.23 246.61 182.74 246.11 185.24 245.65 C 184.69 246.53 184.14 247.40 183.59 248.29 C 182.27 249.13 180.96 249.98 179.63 250.81 C 172.64 253.87 164.81 251.63 157.66 254.15 C 158.45 254.74 159.23 255.34 160.02 255.96 C 162.71 255.80 165.41 255.43 167.97 254.56 C 169.14 252.47 171.52 252.53 173.47 253.35 C 176.52 254.62 179.79 253.75 182.96 253.68 C 190.79 253.37 198.60 252.78 206.42 252.18 C 207.41 253.77 208.45 255.36 209.87 256.62 C 197.13 257.66 184.34 257.86 171.67 259.69 C 169.98 259.88 168.28 260.04 166.58 260.12 C 163.24 260.12 159.91 260.49 156.61 261.02 C 154.97 261.27 153.33 261.54 151.70 261.81 L 151.84 261.28 C 148.74 261.68 145.66 262.10 142.57 262.50 C 142.42 262.85 142.13 263.56 141.98 263.91 C 140.59 262.88 138.93 262.88 137.31 263.15 C 135.25 263.35 133.19 263.52 131.16 263.86 C 131.34 262.00 131.52 260.14 131.91 258.32 C 134.17 258.86 136.63 259.54 138.76 258.24 C 141.55 258.24 144.45 258.28 146.89 256.70 C 148.98 257.12 151.08 256.64 153.14 256.32 C 153.32 255.79 153.66 254.74 153.83 254.21 C 150.48 254.32 147.23 255.78 143.88 255.20 C 144.03 254.04 144.30 252.93 144.71 251.85 C 147.00 251.29 149.34 250.88 151.52 249.91 C 153.02 249.63 154.53 249.35 156.05 249.08 L 157.08 248.96 C 159.39 249.29 161.74 249.36 164.01 248.70 C 166.33 248.18 168.65 247.68 170.98 247.22 C 173.22 247.05 175.45 246.95 177.69 246.80 Z" />
<path fill="#baa6ff" opacity="1.00" d=" M 575.43 317.66 C 575.59 316.16 577.94 314.93 579.36 315.48 L 579.27 315.96 C 578.69 317.30 576.78 318.28 575.43 317.66 Z" />
<path fill="#469fff" opacity="1.00" d=" M 422.49 246.48 C 424.00 246.72 425.52 246.94 427.06 247.13 C 428.97 247.26 430.88 247.29 432.80 247.38 C 435.39 247.71 437.96 248.16 440.53 248.66 C 442.44 248.99 444.39 248.98 446.34 248.94 C 448.87 249.56 451.43 250.11 454.04 250.20 C 455.22 250.67 456.41 251.14 457.55 251.74 C 457.57 253.03 457.56 254.33 457.50 255.63 C 454.77 254.75 451.90 254.51 449.07 254.24 C 447.23 254.04 445.39 253.90 443.57 253.69 C 440.66 252.96 437.67 252.71 434.70 252.48 C 432.99 252.29 431.27 252.16 429.57 252.03 C 430.59 254.72 433.11 255.14 435.71 254.72 C 438.71 254.93 441.67 255.69 444.71 255.55 C 446.48 255.94 448.29 255.91 450.11 255.88 C 452.57 257.28 455.52 256.85 458.24 256.81 C 458.90 257.83 459.61 258.83 460.31 259.83 C 459.11 260.57 457.91 261.31 456.72 262.05 C 455.17 261.86 453.64 261.61 452.10 261.45 C 450.30 261.31 448.51 261.27 446.72 261.12 C 443.62 260.64 440.50 260.34 437.38 260.12 C 435.67 259.97 433.96 259.81 432.26 259.62 C 425.34 258.86 418.38 258.61 411.47 257.82 C 414.21 257.08 417.04 256.72 419.89 256.69 C 419.62 255.69 419.35 254.70 419.09 253.71 C 422.77 253.88 426.44 254.20 430.12 254.41 C 429.89 253.82 429.42 252.66 429.18 252.07 C 425.20 250.78 420.75 251.33 416.61 250.56 C 420.11 249.96 423.66 249.62 427.22 249.53 C 425.64 248.50 424.08 247.46 422.49 246.48 Z" />
<path fill="#2a2434" opacity="0.20" d=" M 179.63 250.81 C 187.27 250.86 194.82 249.47 202.45 249.52 C 197.73 250.92 192.78 250.80 187.97 251.67 C 184.36 252.32 180.68 252.47 177.02 252.56 C 187.05 252.79 197.06 251.88 207.05 251.23 C 214.42 251.56 221.64 249.51 229.01 249.95 C 235.24 250.34 241.45 249.39 247.68 249.71 L 247.72 250.25 C 240.77 250.05 233.88 251.04 226.95 251.14 C 220.09 251.05 213.25 251.66 206.42 252.18 C 198.60 252.78 190.79 253.37 182.96 253.68 C 179.79 253.75 176.52 254.62 173.47 253.35 C 171.52 252.53 169.14 252.47 167.97 254.56 C 165.41 255.43 162.71 255.80 160.02 255.96 C 159.23 255.34 158.45 254.74 157.66 254.15 C 164.81 251.63 172.64 253.87 179.63 250.81 Z" />
<path fill="#a1a4ff" opacity="1.00" d=" M 226.95 251.14 C 233.88 251.04 240.77 250.05 247.72 250.25 C 247.75 251.11 247.83 252.82 247.86 253.68 C 244.34 253.73 240.68 253.59 237.44 255.23 C 228.25 255.82 219.04 255.79 209.87 256.62 C 208.45 255.36 207.41 253.77 206.42 252.18 C 213.25 251.66 220.09 251.05 226.95 251.14 Z" />
<path fill="#66a1ff" opacity="1.00" d=" M 338.60 250.75 C 346.43 250.28 354.27 250.72 362.11 250.58 C 367.36 250.89 372.62 250.63 377.86 251.12 C 380.61 253.41 384.01 254.63 387.18 256.19 C 381.15 255.46 375.06 255.84 369.00 255.47 C 355.47 254.84 341.94 254.38 328.41 254.16 C 331.55 252.06 336.55 254.39 338.60 250.75 Z" />
<path fill="#57a0ff" opacity="1.00" d=" M 377.86 251.12 C 391.63 251.55 405.36 252.66 419.09 253.71 C 419.35 254.70 419.62 255.69 419.89 256.69 C 417.04 256.72 414.21 257.08 411.47 257.82 C 403.36 257.42 395.27 256.83 387.18 256.19 C 384.01 254.63 380.61 253.41 377.86 251.12 Z" />
<path fill="#57a0ff" opacity="1.00" d=" M 353.77 398.80 C 364.53 397.75 375.15 395.63 385.66 393.13 C 387.87 393.61 390.11 394.40 391.42 396.40 C 381.93 398.17 372.60 400.70 363.06 402.15 C 359.42 402.96 356.38 401.06 353.77 398.80 Z" />
<path fill="#139cfd" opacity="1.00" d=" M 429.57 252.03 C 431.27 252.16 432.99 252.29 434.70 252.48 C 434.95 253.04 435.46 254.16 435.71 254.72 C 433.11 255.14 430.59 254.72 429.57 252.03 Z" />
<path fill="#03080c" opacity="0.05" d=" M 434.70 252.48 C 437.67 252.71 440.66 252.96 443.57 253.69 L 444.71 255.55 C 441.67 255.69 438.71 254.93 435.71 254.72 C 435.46 254.16 434.95 253.04 434.70 252.48 Z" />
<path fill="#e3a8ff" opacity="1.00" d=" M 80.95 262.06 C 89.31 259.30 97.17 255.24 105.48 252.39 C 104.40 254.31 103.61 256.49 102.01 258.07 C 99.16 259.57 95.81 259.70 92.89 261.05 C 91.00 262.12 90.33 264.74 88.03 265.16 C 85.29 266.02 82.49 266.68 79.75 267.55 C 78.86 269.18 77.97 270.81 77.05 272.44 C 75.01 272.51 73.34 273.74 71.74 274.88 C 68.07 273.42 64.03 274.57 60.71 276.37 C 59.74 276.92 58.78 277.48 57.83 278.06 C 54.28 276.13 50.48 278.02 46.98 279.02 C 46.48 278.19 45.97 277.36 45.46 276.53 C 43.25 276.76 41.03 276.93 38.81 277.12 C 52.91 272.31 67.22 267.92 80.95 262.06 Z" />
<path fill="#e3a8ff" opacity="1.00" d=" M 199.98 366.06 C 205.08 366.15 210.16 366.80 215.18 367.73 C 210.07 367.52 205.02 366.89 199.98 366.06 Z" />
<path fill="#726781" opacity="0.51" d=" M 127.14 253.10 C 130.20 251.58 127.30 256.37 127.14 253.10 Z" />
<path fill="#6590b7" opacity="0.72" d=" M 474.26 253.18 C 475.56 252.36 476.34 252.58 476.60 253.85 C 475.29 254.66 474.51 254.44 474.26 253.18 Z" />
<path fill="#493f57" opacity="0.34" d=" M 143.88 255.20 C 147.23 255.78 150.48 254.32 153.83 254.21 C 153.66 254.74 153.32 255.79 153.14 256.32 C 151.08 256.64 148.98 257.12 146.89 256.70 C 144.46 255.80 141.75 255.48 139.26 256.32 L 138.76 258.24 C 136.63 259.54 134.17 258.86 131.91 258.32 C 132.08 258.15 132.42 257.80 132.58 257.63 C 136.33 256.75 140.10 255.94 143.88 255.20 Z" />
<path fill="#0e9afb" opacity="1.00" d=" M 443.57 253.69 C 445.39 253.90 447.23 254.04 449.07 254.24 C 449.33 254.65 449.85 255.47 450.11 255.88 C 448.29 255.91 446.48 255.94 444.71 255.55 L 443.57 253.69 Z" />
<path fill="#04101a" opacity="0.10" d=" M 449.07 254.24 C 451.90 254.51 454.77 254.75 457.50 255.63 C 457.68 255.92 458.05 256.52 458.24 256.81 C 455.52 256.85 452.57 257.28 450.11 255.88 C 449.85 255.47 449.33 254.65 449.07 254.24 Z" />
<path fill="#dda8f6" opacity="0.96" d=" M 139.26 256.32 C 141.75 255.48 144.46 255.80 146.89 256.70 C 144.45 258.28 141.55 258.24 138.76 258.24 L 139.26 256.32 Z" />
<path fill="#1a9dff" opacity="1.00" d=" M 507.80 256.25 C 520.42 260.92 532.76 266.39 545.60 270.46 C 553.63 273.68 562.07 275.65 570.22 278.52 C 570.44 279.96 570.68 281.41 570.91 282.86 C 567.46 282.10 563.97 280.81 560.38 281.53 C 559.99 281.58 559.21 281.68 558.81 281.73 C 555.92 279.84 552.83 278.05 549.36 277.56 C 548.23 277.11 547.32 277.82 546.51 278.51 C 544.60 277.44 542.60 276.54 540.63 275.61 C 540.55 275.57 540.38 275.49 540.30 275.45 L 540.39 275.55 C 537.47 274.87 534.52 274.14 531.51 274.53 C 530.91 274.14 530.31 273.76 529.71 273.41 C 530.56 273.18 532.25 272.72 533.09 272.49 C 532.94 271.43 532.76 270.38 532.55 269.34 C 529.51 267.62 525.84 267.71 522.71 266.28 C 521.07 264.93 519.92 262.82 517.67 262.44 C 513.87 261.33 508.87 260.91 507.80 256.25 Z" />
<path fill="#1a9dff" opacity="1.00" d=" M 560.26 321.65 C 563.81 322.34 567.26 320.95 570.68 320.18 C 570.81 321.52 570.96 322.88 571.11 324.23 C 555.88 329.02 540.58 333.68 525.83 339.84 C 520.76 341.75 515.69 343.64 510.64 345.59 C 511.17 341.52 515.60 341.59 518.62 340.48 C 521.23 339.85 522.90 337.58 525.18 336.34 C 528.29 335.12 531.60 334.57 534.81 333.67 C 534.82 332.61 534.83 331.55 534.85 330.50 C 533.15 330.43 531.30 330.57 530.09 329.13 C 530.41 328.96 531.06 328.63 531.39 328.46 C 534.23 328.85 537.06 328.35 539.76 327.41 C 540.91 328.03 541.83 327.80 542.52 326.72 C 542.76 326.42 543.23 325.83 543.46 325.53 L 544.68 325.53 C 548.97 326.06 553.02 324.49 556.97 323.06 C 558.34 323.13 559.43 322.66 560.26 321.65 Z" />
<path fill="#798a9c" opacity="0.61" d=" M 478.11 259.55 C 478.24 259.50 478.50 259.39 478.63 259.34 L 478.37 259.80 L 478.11 259.55 Z" />
<path fill="#76bfff" opacity="1.00" d=" M 481.92 258.94 C 483.20 258.97 484.32 259.42 485.27 260.28 L 484.89 261.03 C 483.45 261.44 482.45 260.98 481.88 259.67 L 481.92 258.94 Z" />
<path fill="#faa9ff" opacity="1.00" d=" M 166.58 260.12 C 168.28 260.04 169.98 259.88 171.67 259.69 C 163.15 286.65 163.10 316.19 171.64 343.16 C 170.10 343.00 168.56 342.87 167.03 342.75 C 166.70 341.81 166.38 340.88 166.07 339.95 C 163.84 331.46 162.05 322.83 161.25 314.08 C 161.09 307.06 161.22 300.04 161.19 293.02 C 161.03 281.80 164.44 271.02 166.58 260.12 Z" />
<path fill="#faa9ff" opacity="1.00" d=" M 151.70 261.81 C 153.33 261.54 154.97 261.27 156.61 261.02 C 154.56 268.28 152.11 275.45 150.96 282.93 C 147.53 302.57 149.91 322.96 156.85 341.58 C 155.48 341.48 154.06 341.68 152.73 341.31 C 152.08 340.30 151.56 339.23 151.07 338.14 C 148.65 331.32 146.89 324.26 145.94 317.08 C 144.93 310.11 145.35 303.05 145.22 296.04 C 145.20 284.31 148.47 272.98 151.70 261.81 Z" />
<path fill="#faa9ff" opacity="1.00" d=" M 107.68 267.00 C 109.77 266.70 111.87 266.59 113.98 266.60 C 110.76 271.90 107.01 276.98 105.18 282.98 C 101.76 291.20 101.51 300.28 102.37 309.02 C 103.93 319.03 108.56 328.25 114.19 336.57 C 112.22 336.22 110.24 335.92 108.26 335.64 C 97.71 320.41 94.05 300.12 100.55 282.53 C 102.37 277.10 105.47 272.25 107.68 267.00 Z" />
<path fill="#faa9ff" opacity="1.00" d=" M 93.92 269.00 C 96.13 268.61 98.39 268.61 100.63 268.48 C 94.64 275.27 89.19 282.88 87.06 291.84 C 83.43 306.68 89.33 322.63 99.87 333.28 C 97.89 333.91 95.76 334.44 93.71 333.69 C 88.19 326.61 83.90 318.36 82.21 309.50 C 81.33 301.35 81.27 292.84 84.54 285.17 C 86.63 279.25 90.25 274.04 93.92 269.00 Z" />
<path fill="#faa9ff" opacity="1.00" d=" M 78.37 272.25 C 80.99 271.02 83.85 270.56 86.73 271.13 C 78.79 278.50 70.72 287.54 70.16 298.93 C 69.11 311.94 77.10 323.69 86.62 331.77 C 83.99 331.60 81.36 331.37 78.78 330.80 C 73.41 324.16 67.82 317.17 66.21 308.54 C 65.69 304.03 65.68 299.44 66.15 294.93 C 67.85 286.33 72.72 278.79 78.37 272.25 Z" />
<path fill="#079cff" opacity="1.00" d=" M 432.26 259.62 C 433.96 259.81 435.67 259.97 437.38 260.12 C 440.59 270.84 442.58 281.91 443.23 293.08 C 443.08 301.68 443.76 310.34 442.36 318.87 C 441.55 327.05 439.53 335.03 437.29 342.92 L 437.27 342.98 C 435.77 343.04 434.27 343.10 432.78 343.16 C 432.83 342.62 432.94 341.52 433.00 340.98 C 435.74 330.87 437.69 320.51 438.27 310.04 C 439.64 293.03 436.93 275.95 432.26 259.62 Z" />
<path fill="#079cff" opacity="1.00" d=" M 489.54 266.38 C 491.76 266.49 493.97 266.72 496.17 267.05 C 499.99 274.05 503.67 281.26 505.50 289.07 C 508.31 302.71 506.48 317.40 499.58 329.59 C 498.37 331.71 497.04 333.75 495.83 335.87 C 493.70 336.13 491.57 336.38 489.45 336.70 C 493.01 331.36 496.65 325.98 498.78 319.87 C 501.97 311.61 502.50 302.60 501.56 293.87 C 499.94 283.85 495.46 274.54 489.54 266.38 Z" />
<path fill="#079cff" opacity="1.00" d=" M 517.57 271.47 C 520.02 271.21 522.53 271.15 524.92 271.91 C 532.64 279.55 538.61 289.90 538.36 301.04 C 538.97 311.58 533.78 321.58 526.68 329.05 C 524.13 331.30 520.86 332.33 517.51 331.59 C 526.07 324.00 533.79 313.86 533.92 301.92 C 533.86 289.81 526.39 279.17 517.57 271.47 Z" />
<path fill="#069cff" opacity="1.00" d=" M 446.72 261.12 C 448.51 261.27 450.30 261.31 452.10 261.45 C 461.77 286.98 461.68 315.92 452.06 341.44 C 450.24 341.59 448.43 341.80 446.64 342.07 C 457.24 316.46 456.92 286.81 446.72 261.12 Z" />
<path fill="#069cff" opacity="1.00" d=" M 461.29 262.63 C 463.12 262.91 464.97 263.21 466.83 263.45 C 473.46 278.23 476.66 294.76 474.65 310.92 C 473.72 320.90 470.74 330.61 466.69 339.75 C 464.89 339.89 463.11 340.19 461.34 340.48 C 469.08 324.63 471.74 306.51 469.48 289.06 C 468.04 279.90 465.09 271.06 461.29 262.63 Z" />
<path fill="#069cff" opacity="1.00" d=" M 475.60 264.31 C 477.57 264.63 479.53 265.00 481.50 265.35 C 488.66 278.57 492.52 293.89 490.56 308.92 C 489.74 319.01 486.13 328.67 481.52 337.61 C 479.40 338.01 477.29 338.45 475.17 338.81 C 484.65 324.73 487.97 306.88 485.29 290.20 C 483.73 281.03 480.03 272.43 475.60 264.31 Z" />
<path fill="#069cff" opacity="1.00" d=" M 503.63 269.02 C 505.85 269.07 508.06 269.08 510.28 269.19 C 517.66 278.42 523.13 289.96 522.46 302.04 C 522.85 313.24 517.92 324.07 510.90 332.58 C 510.70 332.96 510.28 333.73 510.07 334.11 C 508.13 333.81 506.20 333.50 504.26 333.28 C 511.95 324.69 518.07 313.80 517.93 301.98 C 518.33 289.50 511.66 278.08 503.63 269.02 Z" />
<path fill="#069cff" opacity="1.00" d=" M 531.51 274.53 C 534.52 274.14 537.47 274.87 540.39 275.55 L 540.63 275.61 C 548.12 282.35 554.96 291.33 554.28 301.98 C 554.88 311.62 548.26 319.17 542.47 326.02 C 541.79 326.37 540.44 327.07 539.76 327.41 C 537.06 328.35 534.23 328.85 531.39 328.46 C 535.45 325.19 539.65 322.00 542.98 317.95 C 548.06 312.03 551.30 303.68 548.93 295.94 C 546.28 286.76 538.74 280.23 531.51 274.53 Z" />
<path fill="#069cff" opacity="1.00" d=" M 546.51 278.51 C 547.32 277.82 548.23 277.11 549.36 277.56 C 552.83 278.05 555.92 279.84 558.81 281.73 C 565.78 286.34 571.10 294.40 570.20 303.03 C 570.16 308.94 566.50 313.89 562.59 317.97 C 561.66 318.97 560.74 319.97 559.85 321.00 C 558.39 320.52 557.52 322.00 556.97 323.06 C 553.02 324.49 548.97 326.06 544.68 325.53 C 552.04 320.63 560.50 315.99 564.26 307.54 C 566.57 302.64 565.51 296.81 562.52 292.45 C 558.36 286.64 552.47 282.33 546.51 278.51 Z" />
<path fill="#069cff" opacity="1.00" d=" M 458.12 345.70 C 460.12 345.55 462.10 345.33 464.09 345.07 C 463.86 345.42 463.40 346.13 463.17 346.48 C 461.18 346.98 459.15 347.35 457.11 347.57 C 457.37 347.10 457.87 346.17 458.12 345.70 Z" />
<path fill="#49779d" opacity="0.62" d=" M 492.14 261.06 C 492.58 261.06 493.46 261.05 493.90 261.05 C 493.28 262.53 492.69 262.54 492.14 261.06 Z" />
<path fill="#fba9ff" opacity="1.00" d=" M 137.31 263.15 C 138.93 262.88 140.59 262.88 141.98 263.91 C 130.57 287.77 131.10 316.67 142.67 340.37 C 140.78 340.08 138.89 339.82 136.99 339.65 C 134.67 332.18 131.67 324.87 130.28 317.14 C 128.95 309.51 129.09 301.75 129.28 294.05 C 130.16 283.39 133.16 272.97 137.31 263.15 Z" />
<path fill="#fba9ff" opacity="1.00" d=" M 121.16 267.93 C 122.64 265.56 124.97 264.14 127.83 264.39 C 125.75 269.88 122.45 274.86 120.94 280.58 C 117.68 290.03 117.35 300.19 118.21 310.07 C 119.43 320.13 123.29 329.68 128.21 338.48 C 126.40 338.20 124.59 338.02 122.78 337.87 C 116.16 325.02 111.96 310.53 113.35 295.97 C 114.01 286.21 117.00 276.75 121.16 267.93 Z" />
<path fill="#f9a9ff" opacity="1.00" d=" M 60.71 276.37 C 64.03 274.57 68.07 273.42 71.74 274.88 C 67.64 278.36 63.43 281.79 59.98 285.95 C 55.50 291.56 52.99 299.16 54.74 306.27 C 57.47 315.66 64.76 322.82 72.51 328.36 C 69.34 329.44 66.00 328.89 63.13 327.25 C 57.63 321.38 51.91 315.14 50.11 307.05 C 48.76 298.25 51.35 289.02 57.13 282.26 C 58.53 280.43 60.70 278.90 60.71 276.37 Z" />
<path fill="#8fcdf8" opacity="0.98" d=" M 540.30 275.45 C 540.38 275.49 540.55 275.57 540.63 275.61 L 540.39 275.55 L 540.30 275.45 Z" />
<path fill="#f7a9ff" opacity="1.00" d=" M 38.81 277.12 C 41.03 276.93 43.25 276.76 45.46 276.53 C 45.97 277.36 46.48 278.19 46.98 279.02 C 50.48 278.02 54.28 276.13 57.83 278.06 C 51.26 282.52 44.27 287.12 40.09 294.07 C 36.86 300.04 38.54 307.35 42.58 312.47 C 47.34 318.17 53.71 322.25 60.11 325.88 L 60.94 326.32 C 56.56 326.80 52.36 325.33 48.16 324.37 C 48.06 325.79 47.96 327.21 47.86 328.63 C 34.49 324.82 20.98 320.50 9.38 312.64 C 4.88 309.42 0.35 303.69 2.62 297.88 C 5.67 290.90 13.15 287.62 19.50 284.29 C 25.85 281.70 32.05 278.49 38.81 277.12 M 29.37 290.37 C 25.51 292.95 22.54 297.24 22.52 302.00 C 22.98 305.11 24.36 308.15 26.71 310.29 C 30.90 314.31 35.79 317.69 41.15 319.92 C 42.10 320.07 43.04 320.18 44.00 320.25 C 43.65 320.08 42.97 319.73 42.63 319.55 C 40.63 316.56 37.89 314.12 36.33 310.83 C 33.19 306.11 33.53 300.05 34.86 294.78 C 36.21 289.77 40.38 286.37 43.10 282.14 C 37.76 283.25 33.69 287.29 29.37 290.37 M 13.09 293.03 C 10.28 295.00 7.04 297.40 6.74 301.13 C 6.81 305.29 10.48 308.04 13.57 310.24 C 16.58 311.88 19.64 314.57 23.32 313.53 C 20.39 309.31 16.62 304.57 18.20 299.06 C 18.75 293.68 23.19 290.28 26.11 286.17 C 21.43 287.71 17.22 290.39 13.09 293.03 M 23.34 314.92 C 23.30 316.34 25.53 317.21 26.71 316.69 C 26.97 315.22 24.48 314.14 23.34 314.92 Z" />
<path fill="#089cff" opacity="1.00" d=" M 570.22 278.52 C 580.02 282.08 590.21 285.75 597.95 293.01 C 601.10 295.85 603.13 300.54 601.48 304.69 C 599.59 309.71 594.91 312.91 590.57 315.69 C 584.39 319.18 577.76 321.79 571.11 324.23 C 570.96 322.88 570.81 321.52 570.68 320.18 C 567.26 320.95 563.81 322.34 560.26 321.65 L 559.85 321.00 C 560.74 319.97 561.66 318.97 562.59 317.97 L 562.10 320.14 C 566.84 318.16 571.23 315.40 575.26 312.22 C 578.31 309.63 581.20 306.22 581.35 302.02 C 581.56 298.73 579.82 295.70 577.68 293.34 C 572.89 288.14 566.56 284.78 560.38 281.53 C 563.97 280.81 567.46 282.10 570.91 282.86 C 570.68 281.41 570.44 279.96 570.22 278.52 M 575.45 285.29 C 575.19 286.61 577.05 287.21 578.10 287.28 C 578.80 287.76 579.50 288.23 580.22 288.71 C 584.45 293.10 587.68 299.24 585.66 305.46 C 585.08 309.65 581.02 311.97 579.36 315.48 C 577.94 314.93 575.59 316.16 575.43 317.66 C 576.78 318.28 578.69 317.30 579.27 315.96 C 585.51 313.11 591.91 310.04 596.51 304.78 C 596.96 302.32 597.35 299.44 595.50 297.41 C 591.10 292.45 585.03 289.08 578.71 287.26 C 579.07 285.74 576.64 284.51 575.45 285.29 Z" />
<path fill="#49aef3" opacity="0.95" d=" M 575.45 285.29 C 576.64 284.51 579.07 285.74 578.71 287.26 L 578.10 287.28 C 577.05 287.21 575.19 286.61 575.45 285.29 Z" />
<path fill="#fadefd" opacity="1.00" d=" M 23.34 314.92 C 24.48 314.14 26.97 315.22 26.71 316.69 C 25.53 317.21 23.30 316.34 23.34 314.92 Z" />
<path fill="#5bb9f9" opacity="0.98" d=" M 556.97 323.06 C 557.52 322.00 558.39 320.52 559.85 321.00 L 560.26 321.65 C 559.43 322.66 558.34 323.13 556.97 323.06 Z" />
<path fill="#dfa7ff" opacity="1.00" d=" M 48.16 324.37 C 52.36 325.33 56.56 326.80 60.94 326.32 C 61.48 326.56 62.58 327.02 63.13 327.25 C 66.00 328.89 69.34 329.44 72.51 328.36 C 74.43 329.54 76.56 330.37 78.78 330.80 C 81.36 331.37 83.99 331.60 86.62 331.77 C 88.16 332.75 90.03 332.85 91.77 333.26 C 91.54 334.70 91.30 336.13 91.06 337.58 C 94.53 338.30 97.97 339.18 101.33 340.31 C 101.85 341.54 102.31 342.82 102.97 343.99 C 106.82 345.76 112.51 345.33 113.90 350.29 C 116.95 351.45 120.03 352.49 123.07 353.66 C 123.71 354.77 124.29 355.94 125.09 356.96 C 128.55 358.61 132.32 359.51 135.72 361.32 C 135.85 362.55 136.01 363.79 136.18 365.04 C 107.65 350.81 78.06 338.81 47.86 328.63 C 47.96 327.21 48.06 325.79 48.16 324.37 Z" />
<path fill="#83cafb" opacity="1.00" d=" M 539.76 327.41 C 540.44 327.07 541.79 326.37 542.47 326.02 L 542.52 326.72 C 541.83 327.80 540.91 328.03 539.76 327.41 Z" />
<path fill="#269eff" opacity="1.00" d=" M 517.51 331.59 C 520.86 332.33 524.13 331.30 526.68 329.05 L 526.17 330.94 C 527.46 330.34 528.80 329.76 530.09 329.13 C 531.30 330.57 533.15 330.43 534.85 330.50 C 534.83 331.55 534.82 332.61 534.81 333.67 C 531.60 334.57 528.29 335.12 525.18 336.34 C 522.90 337.58 521.23 339.85 518.62 340.48 C 515.60 341.59 511.17 341.52 510.64 345.59 C 507.07 347.80 502.81 348.90 498.96 350.63 C 482.81 358.12 466.65 365.63 450.89 373.89 C 450.99 372.97 451.21 371.12 451.31 370.20 C 454.06 368.95 456.91 367.94 459.62 366.62 C 461.79 365.50 462.54 362.69 464.91 361.83 C 467.41 360.68 470.02 359.78 472.57 358.74 C 472.86 357.60 473.16 356.47 473.46 355.34 C 476.53 354.28 479.65 353.36 482.81 352.57 C 482.82 351.53 482.83 350.50 482.84 349.47 C 482.16 349.21 480.81 348.71 480.14 348.46 C 484.65 347.76 489.15 346.98 493.53 345.64 C 493.84 344.52 494.16 343.41 494.49 342.30 C 497.98 340.52 501.76 339.48 505.43 338.16 C 504.85 336.65 504.28 335.14 503.71 333.63 C 503.85 333.54 504.12 333.37 504.26 333.28 C 506.20 333.50 508.13 333.81 510.07 334.11 C 511.14 334.32 512.09 334.04 512.92 333.26 C 514.47 332.78 516.03 332.30 517.51 331.59 Z" />
<path fill="#d1a7ff" opacity="1.00" d=" M 99.87 333.28 C 102.24 335.24 105.27 335.70 108.26 335.64 C 110.24 335.92 112.22 336.22 114.19 336.57 C 117.02 337.22 119.88 337.73 122.78 337.87 C 124.59 338.02 126.40 338.20 128.21 338.48 C 131.11 339.06 134.03 339.53 136.99 339.65 C 138.89 339.82 140.78 340.08 142.67 340.37 C 141.18 340.65 139.69 340.99 138.28 341.54 C 137.33 343.03 139.22 343.95 139.93 345.04 L 138.39 345.06 C 136.51 344.47 134.52 343.94 132.75 345.09 C 134.96 345.82 137.22 346.44 139.56 346.62 C 141.66 346.83 143.77 346.83 145.88 346.88 C 146.34 347.11 147.25 347.57 147.70 347.80 C 146.84 347.94 145.12 348.21 144.26 348.35 C 144.10 349.10 143.78 350.60 143.62 351.35 L 142.15 351.28 C 140.72 351.22 139.29 351.20 137.86 351.21 C 139.21 351.76 140.58 352.29 141.98 352.74 C 142.15 352.88 142.49 353.17 142.66 353.31 C 142.83 355.90 144.63 357.52 146.82 358.61 C 149.85 358.09 152.84 358.79 155.77 359.52 L 154.42 360.59 C 153.62 360.49 152.82 360.40 152.02 360.31 C 152.16 361.67 152.31 363.03 152.46 364.40 C 156.04 364.98 159.60 365.76 163.03 366.97 L 163.14 367.89 C 162.60 368.01 161.52 368.25 160.98 368.37 C 161.05 369.41 161.21 370.43 161.47 371.44 C 165.21 373.35 171.03 373.49 171.62 378.72 C 174.15 380.18 176.81 381.39 179.52 382.45 C 179.84 383.51 180.15 384.58 180.47 385.65 C 183.44 387.30 186.66 388.53 189.43 390.50 C 190.07 391.94 190.08 393.56 190.40 395.09 C 185.44 393.23 181.47 389.50 176.73 387.17 C 163.58 379.14 149.90 372.03 136.18 365.04 C 136.01 363.79 135.85 362.55 135.72 361.32 C 132.32 359.51 128.55 358.61 125.09 356.96 C 124.29 355.94 123.71 354.77 123.07 353.66 C 120.03 352.49 116.95 351.45 113.90 350.29 C 112.51 345.33 106.82 345.76 102.97 343.99 C 102.31 342.82 101.85 341.54 101.33 340.31 C 97.97 339.18 94.53 338.30 91.06 337.58 C 91.30 336.13 91.54 334.70 91.77 333.26 C 92.26 333.37 93.23 333.58 93.71 333.69 C 95.76 334.44 97.89 333.91 99.87 333.28 M 121.39 343.18 C 121.95 344.48 124.44 344.57 125.61 343.95 C 125.14 342.43 122.55 342.38 121.39 343.18 M 127.41 349.12 C 127.12 350.51 127.66 351.00 129.04 350.58 C 129.33 349.16 128.79 348.68 127.41 349.12 Z" />
<path fill="#559ad1" opacity="0.82" d=" M 510.07 334.11 C 510.28 333.73 510.70 332.96 510.90 332.58 C 511.41 332.75 512.42 333.09 512.92 333.26 C 512.09 334.04 511.14 334.32 510.07 334.11 Z" />
<path fill="#329eff" opacity="1.00" d=" M 495.83 335.87 C 498.56 335.58 501.50 335.49 503.71 333.63 C 504.28 335.14 504.85 336.65 505.43 338.16 C 501.76 339.48 497.98 340.52 494.49 342.30 C 494.16 343.41 493.84 344.52 493.53 345.64 C 489.15 346.98 484.65 347.76 480.14 348.46 C 480.81 348.71 482.16 349.21 482.84 349.47 C 482.83 350.50 482.82 351.53 482.81 352.57 C 479.65 353.36 476.53 354.28 473.46 355.34 C 473.16 356.47 472.86 357.60 472.57 358.74 C 470.02 359.78 467.41 360.68 464.91 361.83 C 462.54 362.69 461.79 365.50 459.62 366.62 C 456.91 367.94 454.06 368.95 451.31 370.20 C 451.21 371.12 450.99 372.97 450.89 373.89 L 450.86 374.15 C 436.63 381.49 423.02 389.95 409.50 398.50 C 405.74 400.92 402.35 403.94 398.30 405.88 C 398.50 405.45 398.91 404.59 399.11 404.16 C 400.57 402.30 401.87 400.32 403.38 398.50 C 405.01 397.34 406.90 396.65 408.63 395.65 C 410.71 394.72 410.94 392.06 412.65 390.74 C 414.77 389.46 417.29 388.94 419.32 387.49 C 419.93 386.25 420.35 384.94 420.83 383.66 C 423.45 382.32 426.27 381.34 428.72 379.70 C 428.85 378.22 428.75 376.74 428.69 375.27 C 431.27 374.82 434.00 374.64 436.36 373.36 C 437.76 371.95 438.52 370.04 439.71 368.46 C 440.28 368.15 441.43 367.52 442.00 367.21 C 443.52 366.42 445.39 365.98 446.54 364.64 C 446.83 363.34 447.04 362.03 447.16 360.71 L 447.58 360.51 C 449.23 359.77 450.86 358.90 452.65 358.49 C 454.89 358.53 457.14 359.19 459.38 358.61 C 458.63 358.29 457.13 357.66 456.39 357.34 C 456.13 356.47 455.88 355.59 455.63 354.72 C 454.87 354.43 454.11 354.14 453.36 353.85 C 454.99 351.98 457.33 351.62 459.69 351.70 C 461.22 353.48 463.45 352.33 465.16 351.48 C 465.24 351.44 465.41 351.36 465.50 351.32 L 465.79 351.17 C 465.13 351.12 463.81 351.01 463.15 350.96 C 463.15 349.84 463.17 347.60 463.17 346.48 C 466.15 346.42 469.31 346.47 471.92 344.79 C 471.96 343.34 471.96 341.88 471.98 340.44 C 470.21 340.18 468.45 339.92 466.69 339.75 C 469.52 339.52 472.36 339.31 475.17 338.81 C 477.29 338.45 479.40 338.01 481.52 337.61 C 484.19 337.67 486.84 337.29 489.45 336.70 C 491.57 336.38 493.70 336.13 495.83 335.87 M 481.67 343.03 C 481.03 343.08 479.75 343.20 479.10 343.25 L 478.54 343.29 C 478.69 343.42 478.99 343.67 479.14 343.79 C 479.80 343.75 481.12 343.67 481.78 343.63 C 482.75 344.54 485.35 343.65 484.62 342.13 C 483.39 341.49 482.41 341.79 481.67 343.03 M 474.25 349.19 C 474.54 350.44 475.34 350.65 476.63 349.82 C 476.32 348.56 475.53 348.35 474.25 349.19 Z" />
<path fill="#bda6ff" opacity="1.00" d=" M 151.07 338.14 C 151.56 339.23 152.08 340.30 152.73 341.31 C 154.06 341.68 155.48 341.48 156.85 341.58 C 160.06 342.07 163.26 342.76 166.53 342.63 C 166.42 341.96 166.19 340.62 166.07 339.95 C 166.38 340.88 166.70 341.81 167.03 342.75 C 168.56 342.87 170.10 343.00 171.64 343.16 L 171.98 343.20 C 170.53 343.66 169.10 344.22 167.84 345.09 C 168.48 346.11 169.19 347.08 169.89 348.06 C 169.23 348.05 167.89 348.03 167.22 348.02 C 165.06 347.77 162.92 347.32 160.75 347.07 C 157.94 346.77 155.12 346.54 152.30 346.31 C 150.86 346.19 149.41 346.10 147.97 346.03 C 145.34 345.36 142.66 344.81 139.93 345.04 C 139.22 343.95 137.33 343.03 138.28 341.54 C 139.69 340.99 141.18 340.65 142.67 340.37 C 145.63 340.77 148.60 341.16 151.60 341.31 C 151.47 340.52 151.20 338.93 151.07 338.14 Z" />
<path fill="#409fff" opacity="1.00" d=" M 461.34 340.48 C 463.11 340.19 464.89 339.89 466.69 339.75 C 468.45 339.92 470.21 340.18 471.98 340.44 C 471.96 341.88 471.96 343.34 471.92 344.79 C 469.48 343.18 466.65 344.62 464.09 345.07 C 462.10 345.33 460.12 345.55 458.12 345.70 C 455.28 345.91 452.42 346.03 449.60 346.50 C 447.63 346.87 445.69 347.31 443.77 347.89 C 443.75 347.59 443.71 346.98 443.68 346.68 C 440.93 347.09 438.19 347.55 435.44 347.87 C 435.35 348.72 435.26 349.57 435.18 350.42 C 438.06 350.03 440.93 349.65 443.82 349.31 C 445.60 349.13 447.39 348.97 449.18 348.75 C 451.82 348.36 454.45 347.81 457.11 347.57 C 459.15 347.35 461.18 346.98 463.17 346.48 C 463.17 347.60 463.15 349.84 463.15 350.96 C 461.99 351.21 460.83 351.45 459.69 351.70 C 457.33 351.62 454.99 351.98 453.36 353.85 C 454.11 354.14 454.87 354.43 455.63 354.72 C 455.88 355.59 456.13 356.47 456.39 357.34 C 457.13 357.66 458.63 358.29 459.38 358.61 C 457.14 359.19 454.89 358.53 452.65 358.49 C 450.86 358.90 449.23 359.77 447.58 360.51 C 447.44 360.46 447.17 360.34 447.03 360.29 C 446.33 360.25 444.92 360.16 444.22 360.12 C 443.11 359.84 440.90 361.73 442.91 362.13 C 443.47 361.95 444.59 361.59 445.15 361.41 C 445.65 361.24 446.66 360.89 447.16 360.71 C 447.04 362.03 446.83 363.34 446.54 364.64 C 445.39 365.98 443.52 366.42 442.00 367.21 C 441.29 367.20 439.88 367.17 439.18 367.15 C 439.31 367.48 439.58 368.13 439.71 368.46 C 438.52 370.04 437.76 371.95 436.36 373.36 C 434.00 374.64 431.27 374.82 428.69 375.27 C 428.75 376.74 428.85 378.22 428.72 379.70 C 426.27 381.34 423.45 382.32 420.83 383.66 C 420.35 384.94 419.93 386.25 419.32 387.49 C 417.29 388.94 414.77 389.46 412.65 390.74 C 410.94 392.06 410.71 394.72 408.63 395.65 C 406.90 396.65 405.01 397.34 403.38 398.50 C 401.87 400.32 400.57 402.30 399.11 404.16 C 398.91 404.59 398.50 405.45 398.30 405.88 L 398.16 406.17 C 387.53 413.91 377.19 422.19 365.30 427.98 L 365.11 427.11 C 364.09 422.70 369.25 421.99 371.69 419.67 C 371.78 418.46 371.80 417.25 371.76 416.05 C 372.41 415.72 373.69 415.08 374.33 414.75 C 376.49 413.84 378.61 412.85 380.71 411.80 C 380.23 410.19 379.73 408.57 379.27 406.97 C 379.93 406.71 380.60 406.48 381.29 406.28 C 384.21 405.81 387.08 404.90 389.35 402.93 C 386.66 403.22 384.06 404.08 381.76 405.50 C 380.35 405.94 378.89 406.21 377.45 406.50 C 376.77 403.76 373.76 403.89 371.58 403.30 C 380.58 401.11 389.59 398.75 397.86 394.47 C 395.74 395.21 393.62 395.98 391.42 396.40 C 390.11 394.40 387.87 393.61 385.66 393.13 C 393.32 391.74 400.59 388.93 408.02 386.65 C 408.06 386.64 408.16 386.61 408.20 386.60 L 408.17 386.60 C 407.33 386.67 405.65 386.80 404.81 386.86 C 404.78 385.68 404.71 383.31 404.68 382.13 C 407.49 381.29 410.37 380.70 413.25 380.11 C 413.38 379.73 413.63 378.99 413.76 378.62 C 406.74 379.35 399.98 381.56 392.95 382.28 C 389.27 382.30 386.18 380.02 382.76 379.04 C 390.29 378.47 397.64 376.66 405.11 375.58 C 409.40 374.70 413.90 374.44 417.99 372.77 C 418.61 372.20 419.15 371.56 419.62 370.85 C 417.87 369.60 416.14 368.33 414.42 367.05 C 417.32 366.01 421.57 367.15 423.31 364.03 C 425.05 364.28 426.81 364.53 428.58 364.59 C 430.97 364.26 433.33 363.73 435.70 363.25 C 435.68 362.82 435.63 361.98 435.61 361.56 C 433.41 361.90 431.22 362.33 429.06 362.85 L 428.10 363.03 C 427.05 361.80 426.09 360.50 425.15 359.19 C 426.05 358.11 426.72 356.89 427.26 355.61 C 424.89 354.05 422.38 352.64 419.59 352.01 C 422.76 351.71 425.98 351.73 429.11 351.05 C 429.40 350.32 430.00 348.86 430.30 348.14 C 426.35 348.49 422.41 348.86 418.46 348.87 C 423.36 347.11 428.67 347.00 433.80 347.63 C 433.81 346.60 433.83 345.58 433.86 344.57 C 427.63 345.76 421.27 345.43 414.99 344.95 C 420.78 344.38 426.60 344.25 432.38 343.55 C 432.54 342.91 432.84 341.62 433.00 340.98 C 432.94 341.52 432.83 342.62 432.78 343.16 C 434.27 343.10 435.77 343.04 437.27 342.98 L 437.29 342.92 C 440.41 342.74 443.55 342.59 446.64 342.07 C 448.43 341.80 450.24 341.59 452.06 341.44 C 455.16 341.22 458.27 341.04 461.34 340.48 M 446.67 354.00 C 444.81 354.07 442.84 353.78 441.07 354.47 C 438.23 354.67 435.14 354.26 432.54 355.61 C 432.43 356.14 432.22 357.20 432.12 357.73 C 434.61 356.81 437.88 357.59 439.92 355.80 C 441.74 356.16 444.03 356.68 445.50 355.12 C 448.17 355.38 452.16 355.91 453.68 353.11 C 451.41 353.34 448.59 352.47 446.67 354.00 M 424.76 370.73 C 426.93 372.07 429.48 370.57 431.28 369.27 C 429.03 369.34 426.82 369.83 424.76 370.73 M 421.33 377.10 C 421.60 380.38 424.28 375.46 421.33 377.10 Z" />
<path fill="#73bbfb" opacity="1.00" d=" M 481.67 343.03 C 482.41 341.79 483.39 341.49 484.62 342.13 C 485.35 343.65 482.75 344.54 481.78 343.63 L 481.67 343.03 Z" />
<path fill="#040f1a" opacity="0.10" d=" M 464.09 345.07 C 466.65 344.62 469.48 343.18 471.92 344.79 C 469.31 346.47 466.15 346.42 463.17 346.48 C 463.40 346.13 463.86 345.42 464.09 345.07 Z" />
<path fill="#badbf9" opacity="0.98" d=" M 478.54 343.29 L 479.10 343.25 L 479.14 343.79 C 478.99 343.67 478.69 343.42 478.54 343.29 Z" />
<path fill="#5782a8" opacity="0.67" d=" M 479.10 343.25 C 479.75 343.20 481.03 343.08 481.67 343.03 L 481.78 343.63 C 481.12 343.67 479.80 343.75 479.14 343.79 L 479.10 343.25 Z" />
<path fill="#afa5ff" opacity="1.00" d=" M 167.84 345.09 C 169.10 344.22 170.53 343.66 171.98 343.20 C 187.25 345.11 202.68 345.28 218.02 346.47 C 215.03 349.15 211.42 350.55 207.36 350.42 C 203.18 350.85 199.01 350.17 194.84 350.10 C 192.48 350.03 190.11 349.94 187.79 349.47 C 183.85 348.74 179.82 349.46 175.88 348.71 C 173.90 348.38 171.90 348.08 169.89 348.06 C 169.19 347.08 168.48 346.11 167.84 345.09 Z" />
<path fill="#afa5ff" opacity="1.00" d=" M 189.23 367.11 C 199.78 368.30 210.32 369.61 220.83 371.20 C 222.20 371.41 223.57 371.58 224.95 371.72 C 225.07 373.00 225.18 374.27 225.30 375.56 C 228.08 376.27 230.86 377.01 233.67 377.64 L 233.07 377.63 C 226.96 377.42 220.91 376.58 214.88 375.63 C 205.53 374.75 196.19 373.50 187.01 371.48 C 187.75 370.02 188.49 368.56 189.23 367.11 Z" />
<path fill="#e8b4fd" opacity="1.00" d=" M 138.39 345.06 L 139.93 345.04 C 142.66 344.81 145.34 345.36 147.97 346.03 C 147.45 346.24 146.40 346.67 145.88 346.88 C 143.77 346.83 141.66 346.83 139.56 346.62 L 138.39 345.06 Z" />
<path fill="#efb5ff" opacity="1.00" d=" M 152.30 346.31 C 155.12 346.54 157.94 346.77 160.75 347.07 C 160.68 347.63 160.52 348.75 160.44 349.31 C 158.19 349.12 155.93 348.89 153.75 348.26 C 153.39 347.77 152.66 346.80 152.30 346.31 Z" />
<path fill="#242424" opacity="0.15" d=" M 160.75 347.07 C 162.92 347.32 165.06 347.77 167.22 348.02 C 167.73 348.83 168.23 349.64 168.75 350.45 C 165.96 350.17 163.23 349.53 160.44 349.31 C 160.52 348.75 160.68 347.63 160.75 347.07 Z" />
<path fill="#0e9afc" opacity="1.00" d=" M 443.77 347.89 C 445.69 347.31 447.63 346.87 449.60 346.50 C 449.50 347.06 449.29 348.19 449.18 348.75 C 447.39 348.97 445.60 349.13 443.82 349.31 L 443.77 347.89 Z" />
<path fill="#bfa6ff" opacity="1.00" d=" M 144.26 348.35 C 145.12 348.21 146.84 347.94 147.70 347.80 C 149.71 348.01 151.73 348.19 153.75 348.26 C 155.93 348.89 158.19 349.12 160.44 349.31 C 163.23 349.53 165.96 350.17 168.75 350.45 C 171.11 350.67 173.49 350.75 175.87 350.92 C 176.43 350.97 177.55 351.08 178.11 351.14 C 177.02 351.78 175.93 352.41 174.91 353.15 C 175.10 354.70 176.88 355.38 177.77 356.49 C 175.50 356.08 173.22 355.71 170.93 355.47 C 169.08 355.25 167.24 355.03 165.42 354.70 C 162.57 354.01 159.63 354.01 156.74 354.43 C 155.09 353.28 153.04 353.19 151.13 352.84 C 148.69 352.07 146.19 351.41 143.62 351.35 C 143.78 350.60 144.10 349.10 144.26 348.35 Z" />
<path fill="#f4a9ff" opacity="1.00" d=" M 167.22 348.02 C 167.89 348.03 169.23 348.05 169.89 348.06 C 171.90 348.08 173.90 348.38 175.88 348.71 L 174.68 348.55 C 174.98 349.14 175.57 350.32 175.87 350.92 C 173.49 350.75 171.11 350.67 168.75 350.45 C 168.23 349.64 167.73 348.83 167.22 348.02 Z" />
<path fill="#70a2ff" opacity="1.00" d=" M 325.40 348.80 C 336.59 348.57 347.78 347.99 358.97 347.85 C 363.63 348.42 368.30 348.97 372.99 349.26 C 372.70 349.89 372.13 351.13 371.85 351.76 C 365.86 351.65 359.93 352.69 353.96 352.78 C 340.51 352.90 327.07 353.32 313.62 353.27 C 317.46 351.56 321.34 349.90 325.40 348.80 Z" />
<path fill="#a791c1" opacity="0.76" d=" M 127.41 349.12 C 128.79 348.68 129.33 349.16 129.04 350.58 C 127.66 351.00 127.12 350.51 127.41 349.12 Z" />
<path fill="#84a3ff" opacity="1.00" d=" M 267.05 348.40 C 286.50 348.75 305.95 349.57 325.40 348.80 C 321.34 349.90 317.46 351.56 313.62 353.27 C 295.91 353.29 278.19 353.38 260.47 353.10 C 262.49 352.36 264.58 351.84 266.70 351.48 C 266.79 350.71 266.97 349.17 267.05 348.40 Z" />
<path fill="#648fb7" opacity="0.72" d=" M 474.25 349.19 C 475.53 348.35 476.32 348.56 476.63 349.82 C 475.34 350.65 474.54 350.44 474.25 349.19 Z" />
<path fill="#85849a" opacity="0.61" d=" M 194.84 350.10 C 199.01 350.17 203.18 350.85 207.36 350.42 L 207.37 351.22 C 203.16 351.29 198.99 350.71 194.84 350.10 Z" />
<path fill="#e2b3ff" opacity="1.00" d=" M 142.15 351.28 L 143.62 351.35 C 146.19 351.41 148.69 352.07 151.13 352.84 L 152.05 354.14 C 148.91 353.89 145.78 353.69 142.66 353.31 C 142.53 352.80 142.28 351.79 142.15 351.28 Z" />
<path fill="#b0a5ff" opacity="1.00" d=" M 178.11 351.14 C 187.93 352.75 197.91 353.11 207.81 354.09 C 210.46 354.30 213.10 354.62 215.74 354.95 C 217.12 355.44 218.49 355.99 219.86 356.53 C 219.85 357.01 219.81 357.96 219.80 358.44 C 218.48 358.88 217.17 359.34 215.84 359.74 C 209.55 359.53 203.27 358.88 197.00 358.29 C 190.52 358.38 184.28 356.11 177.77 356.49 C 176.88 355.38 175.10 354.70 174.91 353.15 C 175.93 352.41 177.02 351.78 178.11 351.14 Z" />
<path fill="#739cc1" opacity="0.76" d=" M 465.16 351.48 C 465.24 351.44 465.41 351.36 465.50 351.32 C 465.41 351.36 465.24 351.44 465.16 351.48 Z" />
<path fill="#394567" opacity="0.40" d=" M 219.72 351.36 C 221.15 351.32 222.59 351.39 224.02 351.49 C 222.37 351.92 221.30 352.92 220.82 354.49 C 230.55 355.64 240.37 354.90 250.09 356.20 C 260.36 356.87 270.68 356.53 280.96 357.34 C 296.62 357.22 312.30 357.54 327.96 357.32 C 340.01 356.46 352.12 356.98 364.15 355.73 C 374.24 355.52 384.26 354.16 394.35 353.97 C 385.53 355.70 376.48 355.38 367.56 356.22 C 360.38 356.16 353.25 357.32 346.06 356.98 C 338.04 356.98 330.04 357.82 322.01 357.75 C 312.54 357.98 303.07 357.67 293.61 358.11 C 284.46 357.57 275.28 357.58 266.13 357.08 C 249.31 357.08 232.54 355.45 215.74 354.95 C 213.10 354.62 210.46 354.30 207.81 354.09 C 211.83 353.97 216.95 355.14 219.72 351.36 Z" />
<path fill="#53a0ff" opacity="1.00" d=" M 394.35 353.97 C 402.81 354.00 411.18 352.74 419.59 352.01 C 422.38 352.64 424.89 354.05 427.26 355.61 C 414.24 357.16 401.20 358.55 388.10 359.21 C 384.87 359.41 381.64 358.96 378.72 357.54 C 375.07 356.66 371.19 357.34 367.56 356.22 C 376.48 355.38 385.53 355.70 394.35 353.97 Z" />
<path fill="#53a0ff" opacity="1.00" d=" M 359.02 420.12 C 362.73 419.11 365.93 416.88 369.55 415.64 C 370.10 415.74 371.21 415.95 371.76 416.05 C 371.80 417.25 371.78 418.46 371.69 419.67 C 369.25 421.99 364.09 422.70 365.11 427.11 L 365.07 428.06 C 357.49 431.44 349.93 435.15 341.82 437.06 C 340.96 435.71 340.11 434.36 339.25 433.02 C 342.28 432.27 345.23 431.20 347.98 429.72 C 348.52 429.62 349.60 429.43 350.14 429.33 C 351.92 428.70 353.72 428.11 355.53 427.53 C 358.13 426.80 360.54 425.54 362.67 423.89 C 359.36 424.28 356.31 425.65 353.41 427.22 C 352.23 427.45 351.05 427.69 349.92 428.07 C 349.55 428.18 348.83 428.41 348.46 428.53 C 347.83 426.89 347.10 425.31 346.15 423.84 C 350.47 422.71 354.74 421.41 359.02 420.12 Z" />
<path fill="#c2a6ff" opacity="1.00" d=" M 142.66 353.31 C 145.78 353.69 148.91 353.89 152.05 354.14 C 153.94 354.81 155.90 355.33 157.90 355.60 C 160.25 356.01 162.64 356.15 165.03 356.33 C 166.19 356.62 167.36 356.94 168.53 357.24 C 168.27 358.82 168.00 360.41 167.72 362.00 C 169.58 363.48 171.88 364.04 174.19 364.37 C 176.77 364.92 179.42 365.02 182.05 365.18 C 184.44 365.85 186.81 366.56 189.23 367.11 C 188.49 368.56 187.75 370.02 187.01 371.48 C 186.80 371.45 186.38 371.39 186.18 371.36 C 183.59 370.99 181.02 370.56 178.48 369.96 C 176.57 369.40 174.60 369.02 172.60 369.03 C 174.01 369.91 175.49 370.72 177.13 371.12 C 179.72 371.85 182.39 372.29 185.07 372.50 C 186.47 372.75 187.85 373.08 189.23 373.41 C 189.26 375.28 189.35 377.18 189.80 379.01 C 196.24 382.33 203.66 382.87 210.62 384.51 C 214.68 385.53 218.87 385.78 222.98 386.49 C 221.99 386.70 220.00 387.13 219.01 387.34 C 218.91 387.97 218.71 389.24 218.62 389.87 C 219.46 390.52 220.32 391.16 221.19 391.80 C 212.64 389.18 203.52 389.37 195.10 386.16 C 198.75 387.64 202.28 389.49 206.17 390.30 C 206.14 391.38 206.07 393.56 206.04 394.65 L 204.51 394.46 C 209.77 396.17 214.94 398.20 220.26 399.74 C 219.55 399.93 218.12 400.29 217.40 400.47 C 217.13 401.22 216.57 402.72 216.30 403.46 C 216.25 403.58 216.17 403.82 216.12 403.94 C 217.89 404.67 219.61 405.50 221.34 406.32 C 221.75 406.50 222.57 406.85 222.97 407.03 C 223.88 408.43 224.71 409.87 225.58 411.30 C 227.26 412.18 228.92 413.12 230.52 414.16 C 230.61 414.42 230.80 414.95 230.90 415.22 C 231.25 415.46 231.96 415.95 232.32 416.20 C 232.33 417.09 232.34 418.88 232.35 419.78 C 234.90 421.62 238.09 422.27 240.98 423.40 L 239.85 424.46 C 238.31 425.46 236.43 425.46 234.68 425.62 L 234.10 425.66 C 225.22 420.51 217.01 414.34 208.87 408.12 C 202.58 404.40 197.15 399.27 190.56 396.09 C 190.52 395.84 190.44 395.34 190.40 395.09 C 190.08 393.56 190.07 391.94 189.43 390.50 C 186.66 388.53 183.44 387.30 180.47 385.65 C 180.15 384.58 179.84 383.51 179.52 382.45 C 176.81 381.39 174.15 380.18 171.62 378.72 C 171.03 373.49 165.21 373.35 161.47 371.44 C 161.21 370.43 161.05 369.41 160.98 368.37 C 161.52 368.25 162.60 368.01 163.14 367.89 C 165.28 369.12 165.04 365.83 163.03 366.97 C 159.60 365.76 156.04 364.98 152.46 364.40 C 152.31 363.03 152.16 361.67 152.02 360.31 C 152.82 360.40 153.62 360.49 154.42 360.59 C 156.76 361.14 159.10 361.73 161.47 362.15 C 160.19 360.16 157.93 359.77 155.77 359.52 C 152.84 358.79 149.85 358.09 146.82 358.61 C 144.63 357.52 142.83 355.90 142.66 353.31 Z" />
<path fill="#eab5fd" opacity="1.00" d=" M 156.74 354.43 C 159.63 354.01 162.57 354.01 165.42 354.70 L 165.03 356.33 C 162.64 356.15 160.25 356.01 157.90 355.60 C 157.61 355.31 157.03 354.72 156.74 354.43 Z" />
<path fill="#03080d" opacity="0.05" d=" M 432.54 355.61 C 435.14 354.26 438.23 354.67 441.07 354.47 C 440.78 354.80 440.21 355.46 439.92 355.80 C 437.88 357.59 434.61 356.81 432.12 357.73 C 432.22 357.20 432.43 356.14 432.54 355.61 Z" />
<path fill="#149cfe" opacity="1.00" d=" M 441.07 354.47 C 442.84 353.78 444.81 354.07 446.67 354.00 L 445.50 355.12 C 444.03 356.68 441.74 356.16 439.92 355.80 C 440.21 355.46 440.78 354.80 441.07 354.47 Z" />
<path fill="#f0b5ff" opacity="1.00" d=" M 170.93 355.47 C 173.22 355.71 175.50 356.08 177.77 356.49 C 177.67 356.87 177.48 357.62 177.38 358.00 C 175.07 358.06 172.74 358.06 170.45 357.67 C 170.57 357.12 170.81 356.02 170.93 355.47 Z" />
<path fill="#78a2ff" opacity="1.00" d=" M 322.01 357.75 C 330.04 357.82 338.04 356.98 346.06 356.98 C 344.60 357.95 343.35 359.19 342.16 360.48 C 338.91 360.55 335.63 360.73 332.53 361.79 C 311.15 362.21 289.75 362.52 268.38 361.88 C 281.08 360.35 293.96 361.29 306.73 360.78 C 306.73 360.38 306.71 359.59 306.70 359.19 C 302.32 359.18 297.85 359.43 293.61 358.11 C 303.07 357.67 312.54 357.98 322.01 357.75 Z" />
<path fill="#b8a5ff" opacity="1.00" d=" M 168.53 357.24 C 169.01 357.35 169.97 357.56 170.45 357.67 C 172.74 358.06 175.07 358.06 177.38 358.00 L 178.13 358.06 C 183.93 359.44 189.87 360.05 195.78 360.82 C 196.87 361.85 197.92 362.94 198.97 364.02 C 198.73 364.52 198.26 365.52 198.02 366.02 C 192.33 366.03 186.78 364.59 181.15 363.90 C 178.62 363.09 175.95 362.91 173.31 362.90 C 171.57 362.05 169.61 362.05 167.72 362.00 C 168.00 360.41 168.27 358.82 168.53 357.24 Z" />
<path fill="#8aa3ff" opacity="1.00" d=" M 264.58 361.79 C 265.09 360.21 265.61 358.65 266.13 357.08 C 275.28 357.58 284.46 357.57 293.61 358.11 C 297.85 359.43 302.32 359.18 306.70 359.19 C 306.71 359.59 306.73 360.38 306.73 360.78 C 293.96 361.29 281.08 360.35 268.38 361.88 C 267.11 361.85 265.84 361.82 264.58 361.79 Z" />
<path fill="#988bac" opacity="0.67" d=" M 155.77 359.52 C 157.93 359.77 160.19 360.16 161.47 362.15 C 159.10 361.73 156.76 361.14 154.42 360.59 L 155.77 359.52 Z" />
<path fill="#4ea0ff" opacity="1.00" d=" M 405.13 361.13 C 411.80 360.50 418.44 359.35 425.15 359.19 C 426.09 360.50 427.05 361.80 428.10 363.03 L 429.06 362.85 L 428.58 364.59 C 426.81 364.53 425.05 364.28 423.31 364.03 C 415.84 363.41 408.48 365.95 401.02 366.21 C 399.76 366.06 398.50 365.89 397.25 365.72 C 397.15 364.89 396.96 363.24 396.86 362.42 C 399.64 362.12 402.38 361.59 405.13 361.13 Z" />
<path fill="#4ea0ff" opacity="1.00" d=" M 389.48 370.36 C 397.79 369.26 406.13 368.36 414.42 367.05 C 416.14 368.33 417.87 369.60 419.62 370.85 C 419.15 371.56 418.61 372.20 417.99 372.77 C 417.82 372.39 417.46 371.61 417.29 371.23 C 410.52 372.10 403.83 373.50 397.04 374.22 C 394.79 374.24 392.55 374.11 390.31 373.99 C 390.10 373.08 389.68 371.27 389.48 370.36 Z" />
<path fill="#4ea0ff" opacity="1.00" d=" M 355.94 414.06 C 363.91 412.41 371.69 409.97 379.27 406.97 C 379.73 408.57 380.23 410.19 380.71 411.80 C 378.61 412.85 376.49 413.84 374.33 414.75 C 372.92 413.32 371.00 414.06 369.75 415.27 C 364.46 416.76 359.04 417.77 353.68 418.97 C 355.11 417.96 356.52 416.92 357.96 415.91 C 357.28 415.29 356.61 414.67 355.94 414.06 Z" />
<path fill="#7db9f2" opacity="0.95" d=" M 442.91 362.13 C 440.90 361.73 443.11 359.84 444.22 360.12 C 444.45 360.44 444.92 361.09 445.15 361.41 C 444.59 361.59 443.47 361.95 442.91 362.13 Z" />
<path fill="#3e73a6" opacity="0.65" d=" M 444.22 360.12 C 444.92 360.16 446.33 360.25 447.03 360.29 L 447.16 360.71 C 446.66 360.89 445.65 361.24 445.15 361.41 C 444.92 361.09 444.45 360.44 444.22 360.12 Z" />
<path fill="#afd4f7" opacity="0.97" d=" M 447.03 360.29 C 447.17 360.34 447.44 360.46 447.58 360.51 L 447.16 360.71 L 447.03 360.29 Z" />
<path fill="#a6a4ff" opacity="1.00" d=" M 195.78 360.82 C 200.57 361.25 205.26 362.46 210.07 362.76 C 219.19 363.96 228.45 363.04 237.53 364.58 C 236.92 366.11 236.20 367.62 235.28 369.00 C 231.12 368.49 226.90 368.26 222.75 369.02 C 220.22 368.59 217.70 368.14 215.18 367.73 C 210.16 366.80 205.08 366.15 199.98 366.06 C 199.49 366.05 198.51 366.03 198.02 366.02 C 198.26 365.52 198.73 364.52 198.97 364.02 C 197.92 362.94 196.87 361.85 195.78 360.82 Z" />
<path fill="#415985" opacity="0.52" d=" M 372.40 363.71 C 383.32 362.86 394.23 362.13 405.13 361.13 C 402.38 361.59 399.64 362.12 396.86 362.42 C 384.91 363.42 372.94 364.31 360.99 365.25 C 347.10 366.28 333.17 366.05 319.27 366.71 C 305.27 366.60 291.26 366.86 277.27 366.41 C 271.40 366.13 265.52 366.21 259.66 365.74 C 276.78 365.38 293.87 366.74 310.99 366.36 C 331.46 365.52 352.03 366.25 372.40 363.71 Z" />
<path fill="#e3b3fe" opacity="1.00" d=" M 173.31 362.90 C 175.95 362.91 178.62 363.09 181.15 363.90 L 182.05 365.18 C 179.42 365.02 176.77 364.92 174.19 364.37 L 173.31 362.90 Z" />
<path fill="#5ca1ff" opacity="1.00" d=" M 360.99 365.25 C 372.94 364.31 384.91 363.42 396.86 362.42 C 396.96 363.24 397.15 364.89 397.25 365.72 C 398.50 365.89 399.76 366.06 401.02 366.21 C 387.77 367.44 374.50 368.07 361.27 369.53 C 361.20 368.46 361.06 366.32 360.99 365.25 Z" />
<path fill="#5ca1ff" opacity="1.00" d=" M 354.97 382.11 C 364.29 381.69 373.54 380.44 382.76 379.04 C 386.18 380.02 389.27 382.30 392.95 382.28 C 382.96 383.44 373.03 385.08 363.03 386.15 C 361.59 385.99 360.17 385.78 358.75 385.56 C 357.76 384.39 356.73 383.25 355.56 382.25 L 354.97 382.11 Z" />
<path fill="#96a4ff" opacity="1.00" d=" M 237.53 364.58 C 244.91 364.92 252.28 365.42 259.66 365.74 C 265.52 366.21 271.40 366.13 277.27 366.41 C 277.12 367.22 276.84 368.85 276.70 369.67 C 273.32 369.64 269.95 369.99 266.63 370.64 C 265.47 370.62 264.31 370.60 263.16 370.57 C 253.89 369.56 244.57 369.63 235.28 369.00 C 236.20 367.62 236.92 366.11 237.53 364.58 Z" />
<path fill="#6da2ff" opacity="1.00" d=" M 319.27 366.71 C 333.17 366.05 347.10 366.28 360.99 365.25 C 361.06 366.32 361.20 368.46 361.27 369.53 C 346.91 370.32 332.55 371.00 318.16 370.79 C 318.53 369.42 318.90 368.06 319.27 366.71 Z" />
<path fill="#6da2ff" opacity="1.00" d=" M 325.03 392.81 C 336.58 392.90 347.98 390.71 359.50 390.17 C 356.53 391.48 353.27 391.47 350.09 391.49 C 351.41 391.91 352.73 392.35 354.06 392.79 C 353.79 393.44 353.26 394.74 352.99 395.39 C 340.55 396.43 328.13 397.98 315.61 397.88 C 317.46 397.35 319.30 396.79 321.15 396.26 C 322.43 395.10 323.72 393.95 325.03 392.81 Z" />
<path fill="#867e97" opacity="0.59" d=" M 163.03 366.97 C 165.04 365.83 165.28 369.12 163.14 367.89 L 163.03 366.97 Z" />
<path fill="#94cbff" opacity="1.00" d=" M 439.18 367.15 C 439.88 367.17 441.29 367.20 442.00 367.21 C 441.43 367.52 440.28 368.15 439.71 368.46 C 439.58 368.13 439.31 367.48 439.18 367.15 Z" />
<path fill="#454868" opacity="0.41" d=" M 222.75 369.02 C 226.90 368.26 231.12 368.49 235.28 369.00 C 244.57 369.63 253.89 369.56 263.16 370.57 C 252.38 370.90 241.66 369.27 230.88 369.64 C 230.54 370.23 229.85 371.39 229.51 371.97 C 227.99 371.88 226.46 371.82 224.95 371.72 C 223.57 371.58 222.20 371.41 220.83 371.20 C 223.32 371.23 225.81 370.88 228.27 370.46 C 226.43 369.95 224.60 369.46 222.75 369.02 Z" />
<path fill="#e4b3ff" opacity="1.00" d=" M 178.48 369.96 C 181.02 370.56 183.59 370.99 186.18 371.36 C 185.90 371.64 185.35 372.22 185.07 372.50 C 182.39 372.29 179.72 371.85 177.13 371.12 L 178.48 369.96 Z" />
<path fill="#9da4ff" opacity="1.00" d=" M 224.95 371.72 C 226.46 371.82 227.99 371.88 229.51 371.97 C 241.72 373.00 253.93 374.36 266.20 374.64 C 265.47 374.79 264.01 375.09 263.28 375.25 C 263.82 375.88 264.35 376.52 264.88 377.18 C 264.62 377.58 264.10 378.38 263.84 378.78 C 257.06 378.51 250.29 378.23 243.51 377.97 C 240.26 377.36 236.95 377.63 233.67 377.64 C 230.86 377.01 228.08 376.27 225.30 375.56 C 225.18 374.27 225.07 373.00 224.95 371.72 Z" />
<path fill="#9da4ff" opacity="1.00" d=" M 255.91 423.41 C 262.85 424.82 269.74 426.44 276.77 427.37 C 277.99 428.43 279.16 429.55 280.31 430.69 C 275.24 431.01 270.17 430.72 265.10 430.56 C 262.43 430.14 259.76 429.72 257.06 429.52 C 257.20 429.29 257.47 428.84 257.61 428.61 C 258.09 427.80 258.57 426.99 259.05 426.18 C 258.01 425.24 256.97 424.31 255.91 423.41 Z" />
<path fill="#8ca3ff" opacity="1.00" d=" M 263.28 375.25 C 264.01 375.09 265.47 374.79 266.20 374.64 C 272.13 374.67 278.07 374.72 283.99 375.25 C 297.76 375.78 311.55 375.69 325.32 375.21 C 320.32 376.69 315.07 375.98 309.94 376.21 C 303.62 376.44 297.29 376.00 290.99 376.62 C 296.39 377.36 301.89 376.73 307.28 377.46 C 307.57 377.96 308.15 378.97 308.43 379.48 C 293.57 379.33 278.66 380.02 263.84 378.78 C 264.10 378.38 264.62 377.58 264.88 377.18 C 264.35 376.52 263.82 375.88 263.28 375.25 Z" />
<path fill="#49557e" opacity="0.49" d=" M 233.67 377.64 C 236.95 377.63 240.26 377.36 243.51 377.97 L 244.53 378.15 C 242.18 378.59 238.49 377.37 236.94 379.09 C 237.01 379.47 237.13 380.23 237.19 380.60 C 256.34 383.03 275.69 383.34 294.95 384.33 C 308.64 384.77 322.29 383.75 335.95 383.24 C 342.27 382.64 348.61 382.08 354.97 382.11 L 355.56 382.25 C 342.03 383.64 328.45 384.37 314.85 384.70 C 298.25 384.80 281.63 384.68 265.06 383.51 C 252.99 382.78 240.90 382.00 228.95 380.08 C 230.81 379.75 234.50 381.44 235.09 379.00 C 234.59 378.66 233.58 377.97 233.07 377.63 L 233.67 377.64 Z" />
<path fill="#89c5ff" opacity="1.00" d=" M 421.33 377.10 C 424.28 375.46 421.60 380.38 421.33 377.10 Z" />
<path fill="#475f9e" opacity="0.62" d=" M 243.51 377.97 C 250.29 378.23 257.06 378.51 263.84 378.78 C 278.66 380.02 293.57 379.33 308.43 379.48 C 322.19 379.66 335.91 379.20 349.63 378.18 C 353.16 377.97 356.71 377.97 360.25 377.93 C 351.56 379.32 342.76 379.09 334.01 379.78 C 322.34 380.35 310.66 380.00 298.99 380.10 C 288.30 379.99 277.60 380.42 266.94 379.64 C 259.47 379.06 251.94 379.43 244.53 378.15 L 243.51 377.97 Z" />
<path fill="#9fa4ff" opacity="1.00" d=" M 225.27 380.43 C 225.96 380.30 227.33 380.03 228.02 379.90 L 228.95 380.08 C 240.90 382.00 252.99 382.78 265.06 383.51 C 265.72 384.53 266.39 385.56 267.07 386.59 C 264.22 386.81 261.39 387.16 258.57 387.54 C 247.25 387.18 236.00 385.91 224.75 384.77 C 224.92 383.32 225.09 381.87 225.27 380.43 Z" />
<path fill="#6ca1ff" opacity="1.00" d=" M 314.85 384.70 C 328.45 384.37 342.03 383.64 355.56 382.25 C 356.73 383.25 357.76 384.39 358.75 385.56 C 360.17 385.78 361.59 385.99 363.03 386.15 C 352.17 387.43 341.23 387.40 330.38 388.59 C 325.39 387.84 320.34 388.34 315.34 387.90 C 315.22 387.10 314.97 385.50 314.85 384.70 Z" />
<path fill="#56a0ff" opacity="1.00" d=" M 387.90 385.52 C 393.48 384.33 399.21 383.83 404.68 382.13 C 404.71 383.31 404.78 385.68 404.81 386.86 C 387.67 390.45 370.41 393.53 352.99 395.39 C 353.26 394.74 353.79 393.44 354.06 392.79 C 352.73 392.35 351.41 391.91 350.09 391.49 C 353.27 391.47 356.53 391.48 359.50 390.17 C 368.97 388.69 378.53 387.64 387.90 385.52 Z" />
<path fill="#85a3ff" opacity="1.00" d=" M 265.06 383.51 C 281.63 384.68 298.25 384.80 314.85 384.70 C 314.97 385.50 315.22 387.10 315.34 387.90 C 320.34 388.34 325.39 387.84 330.38 388.59 C 320.94 389.20 311.48 388.54 302.04 389.12 C 287.55 388.81 273.01 389.04 258.57 387.54 C 261.39 387.16 264.22 386.81 267.07 386.59 C 266.39 385.56 265.72 384.53 265.06 383.51 Z" />
<path fill="#92c0ef" opacity="0.94" d=" M 408.17 386.60 L 408.20 386.60 C 408.16 386.61 408.06 386.64 408.02 386.65 L 408.17 386.60 Z" />
<path fill="#a9a5ff" opacity="1.00" d=" M 219.01 387.34 C 220.00 387.13 221.99 386.70 222.98 386.49 C 234.60 389.19 246.52 390.07 258.35 391.45 C 252.64 391.84 247.41 394.66 241.63 394.57 C 234.90 393.05 227.87 393.66 221.19 391.80 C 220.32 391.16 219.46 390.52 218.62 389.87 C 218.71 389.24 218.91 387.97 219.01 387.34 Z" />
<path fill="#b3a5ff" opacity="1.00" d=" M 206.17 390.30 C 214.37 392.34 222.63 394.09 230.92 395.70 C 230.29 397.22 229.65 398.73 229.02 400.25 C 223.18 398.39 217.06 397.66 211.23 395.79 C 210.76 395.80 209.82 395.84 209.35 395.85 C 208.25 395.43 207.15 395.03 206.04 394.65 C 206.07 393.56 206.14 391.38 206.17 390.30 Z" />
<path fill="#93a3ff" opacity="1.00" d=" M 241.63 394.57 C 247.41 394.66 252.64 391.84 258.35 391.45 C 267.97 392.21 277.59 392.89 287.24 393.02 C 287.08 394.25 286.92 395.49 286.77 396.72 C 281.79 396.79 276.80 396.83 271.84 397.33 C 263.54 396.87 255.33 395.48 247.02 395.28 C 245.20 395.20 243.40 394.92 241.63 394.57 Z" />
<path fill="#93a3ff" opacity="1.00" d=" M 253.04 400.24 C 253.57 400.09 254.63 399.81 255.16 399.66 C 265.22 400.47 275.25 401.83 285.36 401.99 C 285.70 403.61 286.05 405.30 284.96 406.74 C 275.33 406.50 265.73 405.60 256.18 404.37 C 256.02 403.64 255.70 402.18 255.54 401.46 C 254.71 401.05 253.87 400.64 253.04 400.24 Z" />
<path fill="#80a2ff" opacity="1.00" d=" M 287.24 393.02 C 299.83 394.05 312.44 393.33 325.03 392.81 C 323.72 393.95 322.43 395.10 321.15 396.26 C 319.30 396.79 317.46 397.35 315.61 397.88 C 301.04 398.41 286.40 398.35 271.84 397.33 C 276.80 396.83 281.79 396.79 286.77 396.72 C 286.92 395.49 287.08 394.25 287.24 393.02 Z" />
<path fill="#80a2ff" opacity="1.00" d=" M 285.36 401.99 C 297.35 402.49 309.36 402.40 321.35 401.82 C 321.44 403.41 321.53 405.01 321.63 406.61 C 309.41 406.99 297.18 406.82 284.96 406.74 C 286.05 405.30 285.70 403.61 285.36 401.99 Z" />
<path fill="#80a2ff" opacity="1.00" d=" M 287.94 437.54 C 297.34 438.63 306.76 438.18 316.17 437.57 C 316.05 438.27 315.81 439.69 315.69 440.39 C 314.31 441.12 312.94 441.86 311.55 442.56 C 302.97 443.79 294.19 443.02 285.67 441.74 C 287.15 441.26 288.61 440.72 290.08 440.19 C 289.37 439.30 288.65 438.42 287.94 437.54 Z" />
<path fill="#5ba1ff" opacity="1.00" d=" M 338.02 409.31 C 349.27 407.69 360.55 406.09 371.58 403.30 C 373.76 403.89 376.77 403.76 377.45 406.50 C 366.21 409.31 354.80 411.34 343.37 413.17 C 341.76 411.66 340.09 410.14 338.02 409.31 Z" />
<path fill="#80bbfb" opacity="1.00" d=" M 381.76 405.50 C 384.06 404.08 386.66 403.22 389.35 402.93 C 387.08 404.90 384.21 405.81 381.29 406.28 L 381.76 405.50 Z" />
<path fill="#9aa4ff" opacity="1.00" d=" M 244.03 405.66 C 254.86 407.80 265.80 409.65 276.85 410.26 C 276.94 411.07 277.14 412.68 277.24 413.49 C 278.94 414.08 280.64 414.69 282.37 415.25 C 275.29 414.47 268.10 414.84 261.10 413.36 C 256.11 412.29 250.97 412.28 245.97 411.34 C 246.71 410.47 247.42 409.59 248.10 408.68 C 247.18 407.20 245.49 406.48 244.03 405.66 Z" />
<path fill="#71a2ff" opacity="1.00" d=" M 312.55 410.85 C 321.05 410.55 329.56 410.13 338.02 409.31 C 340.09 410.14 341.76 411.66 343.37 413.17 C 325.91 415.79 308.19 416.07 290.57 415.69 C 296.11 414.47 301.80 414.93 307.42 414.58 C 307.72 414.15 308.34 413.30 308.65 412.87 C 309.94 412.18 311.23 411.49 312.55 410.85 Z" />
<path fill="#71a2ff" opacity="1.00" d=" M 290.63 419.88 C 305.78 420.75 320.96 419.80 336.00 417.83 C 335.81 419.11 335.62 420.41 335.49 421.71 C 335.85 421.87 336.57 422.20 336.93 422.37 C 327.98 423.21 319.08 424.87 310.06 424.85 C 300.94 424.82 291.77 425.21 282.69 424.11 L 281.73 423.92 C 291.75 424.21 301.78 423.99 311.81 423.63 C 311.82 423.01 311.84 421.76 311.85 421.14 C 304.79 420.43 297.60 421.42 290.63 419.88 Z" />
<path fill="#71a2ff" opacity="1.00" d=" M 311.41 429.10 C 317.21 428.82 322.93 427.78 328.71 427.23 C 330.05 427.58 331.38 427.98 332.72 428.39 C 332.58 429.39 332.44 430.41 332.31 431.42 C 327.95 432.09 323.62 432.93 319.23 433.28 C 315.21 433.02 311.18 432.88 307.15 432.89 C 307.17 432.33 307.21 431.22 307.22 430.67 C 308.61 430.13 310.00 429.58 311.41 429.10 Z" />
<path fill="#86a3ff" opacity="1.00" d=" M 276.85 410.26 C 288.73 410.97 300.65 410.81 312.55 410.85 C 311.23 411.49 309.94 412.18 308.65 412.87 C 308.34 413.30 307.72 414.15 307.42 414.58 C 301.80 414.93 296.11 414.47 290.57 415.69 C 287.83 415.71 285.09 415.58 282.37 415.25 C 280.64 414.69 278.94 414.08 277.24 413.49 C 277.14 412.68 276.94 411.07 276.85 410.26 Z" />
<path fill="#86a3ff" opacity="1.00" d=" M 281.10 419.45 C 284.26 419.75 287.45 419.75 290.63 419.88 C 297.60 421.42 304.79 420.43 311.85 421.14 C 311.84 421.76 311.82 423.01 311.81 423.63 C 301.78 423.99 291.75 424.21 281.73 423.92 C 279.37 423.81 277.02 423.64 274.68 423.45 C 277.06 423.15 279.44 422.77 281.82 422.43 C 281.57 421.43 281.33 420.44 281.10 419.45 Z" />
<path fill="#60a1ff" opacity="1.00" d=" M 336.00 417.83 C 342.71 417.00 349.37 415.70 355.94 414.06 C 356.61 414.67 357.28 415.29 357.96 415.91 C 356.52 416.92 355.11 417.96 353.68 418.97 L 353.05 419.15 C 347.74 420.50 342.37 421.69 336.93 422.37 C 336.57 422.20 335.85 421.87 335.49 421.71 C 335.62 420.41 335.81 419.11 336.00 417.83 Z" />
<path fill="#8ec3fe" opacity="1.00" d=" M 369.75 415.27 C 371.00 414.06 372.92 413.32 374.33 414.75 C 373.69 415.08 372.41 415.72 371.76 416.05 C 371.21 415.95 370.10 415.74 369.55 415.64 L 369.75 415.27 Z" />
<path fill="#b1a5ff" opacity="1.00" d=" M 232.32 416.20 C 240.15 418.70 247.90 421.50 255.91 423.41 C 256.97 424.31 258.01 425.24 259.05 426.18 C 258.57 426.99 258.09 427.80 257.61 428.61 C 252.04 426.98 246.57 425.03 240.98 423.40 C 238.09 422.27 234.90 421.62 232.35 419.78 C 232.34 418.88 232.33 417.09 232.32 416.20 Z" />
<path fill="#62a1ff" opacity="1.00" d=" M 328.71 427.23 C 334.58 426.44 340.41 425.33 346.15 423.84 C 347.10 425.31 347.83 426.89 348.46 428.53 C 347.87 428.72 346.69 429.09 346.10 429.28 C 341.48 429.85 336.91 430.75 332.31 431.42 C 332.44 430.41 332.58 429.39 332.72 428.39 C 331.38 427.98 330.05 427.58 328.71 427.23 Z" />
<path fill="#91b5e2" opacity="0.89" d=" M 353.41 427.22 C 356.31 425.65 359.36 424.28 362.67 423.89 C 360.54 425.54 358.13 426.80 355.53 427.53 C 355.00 427.45 353.94 427.30 353.41 427.22 Z" />
<path fill="#67a1ff" opacity="1.00" d=" M 316.17 437.57 C 324.01 436.93 331.63 434.85 339.25 433.02 C 340.11 434.36 340.96 435.71 341.82 437.06 L 341.90 437.20 C 332.03 440.12 321.82 441.93 311.55 442.56 C 312.94 441.86 314.31 441.12 315.69 440.39 C 315.81 439.69 316.05 438.27 316.17 437.57 Z" />
<path fill="#94a4ff" opacity="1.00" d=" M 266.22 433.33 C 273.29 435.46 280.59 436.82 287.94 437.54 C 288.65 438.42 289.37 439.30 290.08 440.19 C 288.61 440.72 287.15 441.26 285.67 441.74 C 278.72 441.49 271.96 439.54 265.22 438.01 C 265.55 436.45 265.88 434.88 266.22 433.33 Z" />
</svg>
