<?xml version="1.0" encoding="UTF-8" ?>
<!DOCTYPE svg PUBLIC "-//W3C//DTD SVG 1.1//EN" "http://www.w3.org/Graphics/SVG/1.1/DTD/svg11.dtd">
<svg width="400pt" height="400pt" viewBox="0 0 400 400" version="1.1" xmlns="http://www.w3.org/2000/svg">
<g id="#fefffeff">
<path fill="#fefffe" opacity="1.00" d=" M 147.85 48.15 C 203.85 44.82 260.83 61.85 306.97 93.41 C 305.72 105.14 316.90 111.88 317.91 123.06 C 326.01 148.55 318.23 177.91 299.01 196.19 C 285.10 197.93 274.90 208.62 270.55 221.50 C 226.82 246.11 167.54 242.49 127.95 211.05 C 104.13 192.23 93.46 159.26 100.96 129.93 C 109.59 99.52 136.23 78.12 164.28 66.06 C 158.75 60.14 152.68 54.68 147.85 48.15 M 225.69 88.33 C 237.30 101.16 264.07 121.43 278.20 102.07 C 283.47 103.32 288.77 104.53 294.21 104.81 C 273.73 92.68 249.32 87.70 225.69 88.33 Z" />
<path fill="#fefffe" opacity="1.00" d=" M 33.21 222.69 C 25.51 154.25 74.67 84.53 142.07 70.07 C 122.45 83.47 102.96 100.39 96.07 124.05 C 83.99 158.68 98.82 198.81 128.32 219.69 C 168.77 248.60 225.38 251.72 269.75 229.96 C 273.05 271.06 324.31 283.16 358.09 275.06 C 330.82 328.98 275.16 369.07 214.25 373.25 C 126.54 382.89 37.84 311.78 33.21 222.69 Z" />
<path fill="#fefffe" opacity="1.00" d=" M 323.08 114.87 C 363.58 136.67 364.30 209.03 317.17 222.26 C 321.64 212.44 318.20 200.96 307.84 197.06 C 327.14 174.61 332.11 142.77 323.08 114.87 Z" />
</g>
<g id="#017afeff">
<path fill="#017afe" opacity="1.00" d=" M 185.56 0.00 L 214.45 0.00 C 262.25 4.39 308.90 24.83 342.31 59.69 C 376.19 92.90 395.54 138.81 400.00 185.67 L 400.00 214.46 C 395.66 262.26 375.14 308.89 340.31 342.31 C 307.10 376.19 261.19 395.54 214.33 400.00 L 185.54 400.00 C 137.74 395.66 91.11 375.14 57.69 340.31 C 23.84 307.11 4.44 261.20 0.00 214.34 L 0.00 185.66 C 4.47 138.80 23.81 92.89 57.69 59.69 C 91.11 24.85 137.75 4.34 185.56 0.00 M 147.85 48.15 C 152.68 54.68 158.75 60.14 164.28 66.06 C 136.23 78.12 109.59 99.52 100.96 129.93 C 93.46 159.26 104.13 192.23 127.95 211.05 C 167.54 242.49 226.82 246.11 270.55 221.50 C 274.90 208.62 285.10 197.93 299.01 196.19 C 318.23 177.91 326.01 148.55 317.91 123.06 C 316.90 111.88 305.72 105.14 306.97 93.41 C 260.83 61.85 203.85 44.82 147.85 48.15 M 33.21 222.69 C 37.84 311.78 126.54 382.89 214.25 373.25 C 275.16 369.07 330.82 328.98 358.09 275.06 C 324.31 283.16 273.05 271.06 269.75 229.96 C 225.38 251.72 168.77 248.60 128.32 219.69 C 98.82 198.81 83.99 158.68 96.07 124.05 C 102.96 100.39 122.45 83.47 142.07 70.07 C 74.67 84.53 25.51 154.25 33.21 222.69 M 323.08 114.87 C 332.11 142.77 327.14 174.61 307.84 197.06 C 318.20 200.96 321.64 212.44 317.17 222.26 C 364.30 209.03 363.58 136.67 323.08 114.87 Z" />
<path fill="#017afe" opacity="1.00" d=" M 225.69 88.33 C 249.32 87.70 273.73 92.68 294.21 104.81 C 288.77 104.53 283.47 103.32 278.20 102.07 C 264.07 121.43 237.30 101.16 225.69 88.33 Z" />
</g>
</svg>
