<?xml version="1.0" encoding="UTF-8" ?>
<!DOCTYPE svg PUBLIC "-//W3C//DTD SVG 1.1//EN" "http://www.w3.org/Graphics/SVG/1.1/DTD/svg11.dtd">
<svg width="480pt" height="480pt" viewBox="0 0 480 480" version="1.1" xmlns="http://www.w3.org/2000/svg">
<path fill="#f3811a" opacity="1.00" d=" M 209.29 123.24 C 229.58 113.40 252.86 110.12 275.14 113.41 C 302.52 117.37 328.14 131.93 345.70 153.29 C 357.19 167.21 365.46 183.90 369.07 201.61 C 368.85 203.67 368.18 205.65 367.42 207.57 C 364.51 214.96 361.73 222.39 358.87 229.80 C 354.08 242.21 344.73 252.54 333.58 259.60 C 325.89 264.40 317.14 267.78 308.04 268.34 C 289.35 268.75 270.65 268.51 251.98 269.18 C 212.64 269.40 173.32 270.17 133.98 270.58 C 130.69 270.35 127.98 274.14 129.89 277.07 C 131.57 278.57 133.95 278.22 136.03 278.32 C 179.36 278.61 222.68 279.59 266.01 279.82 C 278.93 280.35 291.88 280.23 304.81 280.45 C 311.81 280.63 319.00 282.96 324.03 287.99 C 329.98 293.90 332.14 302.88 330.81 311.02 C 330.03 315.86 328.60 320.57 327.21 325.26 C 326.86 326.85 325.50 327.81 324.24 328.67 C 218.16 328.86 112.08 328.61 5.99 328.69 C 4.54 328.56 2.67 328.96 1.69 327.57 C 0.30 325.69 0.62 323.21 0.32 321.01 C -1.20 302.15 4.96 282.78 17.27 268.38 C 30.29 252.68 50.24 243.24 70.59 242.61 C 67.65 230.20 69.06 216.59 75.41 205.44 C 82.32 192.78 94.81 183.33 108.90 180.21 C 121.60 177.51 135.39 179.52 146.49 186.39 C 147.93 187.31 149.38 188.19 150.90 188.98 C 160.38 160.37 182.09 136.17 209.29 123.24 Z" />
<path fill="#ffffff" opacity="1.00" d=" M 369.07 201.61 L 369.13 201.15 C 370.39 205.20 374.95 206.56 378.77 206.43 C 376.00 209.86 375.82 214.52 374.37 218.54 C 371.65 228.98 366.62 239.83 370.06 250.73 C 372.60 260.41 381.79 267.10 391.50 268.17 C 405.02 269.28 418.60 269.78 432.12 270.83 C 436.28 271.44 435.09 277.80 431.35 278.18 C 419.92 279.15 408.42 279.49 396.98 280.33 C 373.73 280.12 351.88 295.64 342.31 316.47 C 340.86 320.45 338.27 324.31 338.64 328.71 C 333.84 328.64 329.04 328.68 324.24 328.67 C 325.50 327.81 326.86 326.85 327.21 325.26 C 328.60 320.57 330.03 315.86 330.81 311.02 C 332.14 302.88 329.98 293.90 324.03 287.99 C 319.00 282.96 311.81 280.63 304.81 280.45 C 291.88 280.23 278.93 280.35 266.01 279.82 C 222.68 279.59 179.36 278.61 136.03 278.32 C 133.95 278.22 131.57 278.57 129.89 277.07 C 127.98 274.14 130.69 270.35 133.98 270.58 C 173.32 270.17 212.64 269.40 251.98 269.18 C 270.65 268.51 289.35 268.75 308.04 268.34 C 317.14 267.78 325.89 264.40 333.58 259.60 C 344.73 252.54 354.08 242.21 358.87 229.80 C 361.73 222.39 364.51 214.96 367.42 207.57 C 368.18 205.65 368.85 203.67 369.07 201.61 Z" />
<path fill="#fab03e" opacity="1.00" d=" M 374.37 218.54 C 375.82 214.52 376.00 209.86 378.77 206.43 C 397.95 205.38 417.46 210.09 433.82 220.23 C 456.19 233.86 472.49 257.11 477.33 282.89 C 479.87 297.11 479.49 311.99 475.54 325.92 C 475.22 327.55 473.63 328.81 471.97 328.65 C 427.52 328.74 383.08 328.75 338.64 328.71 C 338.27 324.31 340.86 320.45 342.31 316.47 C 351.88 295.64 373.73 280.12 396.98 280.33 C 408.42 279.49 419.92 279.15 431.35 278.18 C 435.09 277.80 436.28 271.44 432.12 270.83 C 418.60 269.78 405.02 269.28 391.50 268.17 C 381.79 267.10 372.60 260.41 370.06 250.73 C 366.62 239.83 371.65 228.98 374.37 218.54 Z" />
</svg>
