<?xml version="1.0" encoding="UTF-8" ?>
<!DOCTYPE svg PUBLIC "-//W3C//DTD SVG 1.1//EN" "http://www.w3.org/Graphics/SVG/1.1/DTD/svg11.dtd">
<svg width="1000pt" height="1000pt" viewBox="0 0 1000 1000" version="1.1" xmlns="http://www.w3.org/2000/svg">
<path fill="#2be9ff" opacity="1.00" d=" M 953.20 68.21 C 957.10 65.26 960.92 62.12 965.39 60.06 C 966.09 110.01 965.41 160.02 965.70 209.99 C 966.03 214.38 964.51 218.62 964.71 223.01 C 964.62 272.00 964.72 321.00 964.55 369.99 C 964.88 372.57 963.12 374.91 960.63 375.51 C 837.41 424.97 714.23 474.55 591.01 524.02 C 588.61 524.94 586.10 525.49 583.57 525.80 C 583.38 464.60 583.27 403.38 583.62 342.18 C 592.65 333.90 603.11 327.33 612.71 319.71 C 726.30 236.00 839.70 152.06 953.20 68.21 Z" />
<path fill="#2be9ff" opacity="1.00" d=" M 380.54 492.08 C 381.00 528.71 380.53 565.36 380.78 602.00 C 380.88 604.25 380.56 606.49 379.96 608.66 C 374.65 611.90 368.58 613.50 362.88 615.89 C 283.68 647.61 204.65 679.80 125.41 711.44 C 94.83 724.27 63.75 735.86 33.24 748.87 C 33.28 748.28 33.35 747.09 33.38 746.50 C 56.55 730.47 78.82 713.20 101.61 696.65 C 184.81 635.51 267.74 574.03 350.99 512.96 C 360.78 505.89 370.06 498.04 380.54 492.08 Z" />
<path fill="#4b45f7" opacity="1.00" d=" M 572.30 159.24 C 575.88 157.34 579.17 154.62 583.28 153.95 C 583.85 216.67 582.58 279.51 583.62 342.18 C 583.27 403.38 583.38 464.60 583.57 525.80 C 582.75 547.19 583.93 568.63 582.74 590.00 C 583.11 613.93 582.05 637.90 583.39 661.79 C 585.98 661.83 588.39 660.84 590.71 659.80 C 650.45 635.34 710.50 611.65 770.24 587.19 C 771.67 586.48 773.25 586.22 774.84 586.08 C 774.85 614.61 774.62 643.37 774.72 671.99 C 772.36 707.22 774.60 742.75 773.41 778.07 C 642.71 830.49 512.19 883.51 381.50 935.86 C 379.53 926.38 381.49 916.60 381.26 907.00 C 381.20 815.34 381.31 723.67 381.23 632.00 C 381.15 624.24 381.56 616.22 379.96 608.66 C 380.56 606.49 380.88 604.25 380.78 602.00 C 380.53 565.36 381.00 528.71 380.54 492.08 C 380.38 489.03 381.13 486.04 381.26 483.01 C 381.47 410.52 380.96 338.01 381.44 265.52 C 389.06 262.53 395.75 257.73 403.02 254.03 C 459.46 222.44 515.95 190.98 572.30 159.24 Z" />
</svg>
