<?xml version="1.0" encoding="UTF-8" ?>
<!DOCTYPE svg PUBLIC "-//W3C//DTD SVG 1.1//EN" "http://www.w3.org/Graphics/SVG/1.1/DTD/svg11.dtd">
<svg width="169pt" height="196pt" viewBox="0 0 169 196" version="1.1" xmlns="http://www.w3.org/2000/svg">
<path fill="#469ea2" opacity="1.00" d=" M 84.39 0.00 L 84.61 0.00 C 84.64 0.15 84.70 0.44 84.73 0.59 C 112.24 16.48 139.73 32.42 167.29 48.22 C 165.68 51.08 162.33 52.05 159.78 53.86 C 135.81 67.46 112.07 81.47 88.10 95.09 C 86.58 96.00 85.03 96.93 83.26 97.26 C 59.52 83.94 36.11 70.03 12.46 56.57 C 8.38 54.04 4.05 51.90 0.23 48.99 C 28.19 32.69 56.53 16.58 84.33 0.28 L 84.39 0.00 M 70.80 18.79 C 53.51 28.82 36.19 38.80 18.84 48.72 C 17.88 49.32 17.08 50.09 16.44 51.03 C 18.49 53.27 21.40 54.39 23.94 55.94 C 40.53 65.47 57.06 75.19 73.68 84.61 C 79.78 80.81 88.54 79.98 94.41 84.67 C 96.32 83.90 98.12 82.87 99.87 81.78 C 117.23 71.82 134.51 61.73 151.85 51.74 C 151.84 51.33 151.82 50.49 151.82 50.07 C 131.91 38.55 112.11 26.79 91.99 15.66 C 87.12 17.32 81.83 17.33 76.95 15.68 C 74.71 16.27 72.79 17.65 70.80 18.79 Z" />
<path fill="#6acad1" opacity="1.00" d=" M 70.80 18.79 C 72.79 17.65 74.71 16.27 76.95 15.68 C 81.83 17.33 87.12 17.32 91.99 15.66 C 112.11 26.79 131.91 38.55 151.82 50.07 C 151.82 50.49 151.84 51.33 151.85 51.74 C 134.51 61.73 117.23 71.82 99.87 81.78 C 98.12 82.87 96.32 83.90 94.41 84.67 C 88.54 79.98 79.78 80.81 73.68 84.61 C 57.06 75.19 40.53 65.47 23.94 55.94 C 21.40 54.39 18.49 53.27 16.44 51.03 C 17.08 50.09 17.88 49.32 18.84 48.72 C 36.19 38.80 53.51 28.82 70.80 18.79 Z" />
<path fill="#43999e" opacity="1.00" d=" M 167.29 48.22 C 167.55 48.37 168.08 48.66 168.34 48.80 C 168.29 55.18 168.50 61.57 168.01 67.94 C 168.04 94.08 167.73 120.22 168.47 146.34 C 140.33 162.44 112.29 178.71 84.23 194.92 L 83.65 194.61 C 84.30 190.45 84.00 186.24 84.03 182.06 C 84.07 157.38 84.01 132.70 84.06 108.02 C 83.98 104.43 84.58 100.70 83.26 97.26 C 85.03 96.93 86.58 96.00 88.10 95.09 C 112.07 81.47 135.81 67.46 159.78 53.86 C 162.33 52.05 165.68 51.08 167.29 48.22 M 155.66 62.67 C 138.23 72.95 120.66 82.99 103.25 93.29 C 102.30 93.96 101.07 94.36 100.44 95.39 C 100.37 98.59 100.70 101.98 99.12 104.92 C 97.46 108.84 93.94 111.48 90.21 113.27 C 90.06 135.44 90.11 157.63 90.29 179.80 C 91.62 179.99 92.92 179.65 94.06 178.96 C 113.21 167.76 132.43 156.70 151.65 145.63 C 152.54 142.18 153.18 138.43 155.70 135.71 C 157.13 133.93 159.81 132.63 159.34 129.94 C 159.37 108.64 159.33 87.33 159.35 66.03 C 159.33 64.77 159.17 63.52 158.86 62.30 C 157.71 61.88 156.64 62.00 155.66 62.67 Z" />
<path fill="#3d8e96" opacity="1.00" d=" M 0.00 48.82 L 0.23 48.99 C 4.05 51.90 8.38 54.04 12.46 56.57 C 36.11 70.03 59.52 83.94 83.26 97.26 C 84.58 100.70 83.98 104.43 84.06 108.02 C 84.01 132.70 84.07 157.38 84.03 182.06 C 84.00 186.24 84.30 190.45 83.65 194.61 C 55.84 178.43 28.10 162.10 0.00 146.47 L 0.00 48.82 M 9.20 65.00 C 9.28 87.36 9.10 109.73 9.26 132.09 C 11.46 134.17 14.02 136.06 15.10 139.04 C 16.48 141.44 15.70 145.12 18.56 146.49 C 37.35 157.38 56.21 168.16 74.98 179.09 C 75.90 179.62 76.91 179.90 77.99 179.93 C 78.51 177.67 78.33 175.34 78.34 173.04 C 78.36 155.05 78.34 137.05 78.37 119.05 C 78.26 117.10 78.73 114.99 77.92 113.15 C 75.50 111.58 72.85 110.19 71.20 107.73 C 68.29 104.15 67.83 99.40 67.91 94.96 C 49.52 83.99 30.86 73.44 12.34 62.67 C 10.66 61.26 8.71 63.13 9.20 65.00 Z" />
<path fill="#275a5d" opacity="0.58" d=" M 168.34 48.80 L 169.00 49.14 L 169.00 145.97 L 168.47 146.34 C 167.73 120.22 168.04 94.08 168.01 67.94 C 168.50 61.57 168.29 55.18 168.34 48.80 Z" />
<path fill="#5bb4be" opacity="1.00" d=" M 9.20 65.00 C 8.71 63.13 10.66 61.26 12.34 62.67 C 30.86 73.44 49.52 83.99 67.91 94.96 C 67.83 99.40 68.29 104.15 71.20 107.73 C 72.85 110.19 75.50 111.58 77.92 113.15 C 78.73 114.99 78.26 117.10 78.37 119.05 C 78.34 137.05 78.36 155.05 78.34 173.04 C 78.33 175.34 78.51 177.67 77.99 179.93 C 76.91 179.90 75.90 179.62 74.98 179.09 C 56.21 168.16 37.35 157.38 18.56 146.49 C 15.70 145.12 16.48 141.44 15.10 139.04 C 14.02 136.06 11.46 134.17 9.26 132.09 C 9.10 109.73 9.28 87.36 9.20 65.00 Z" />
<path fill="#65c2cb" opacity="1.00" d=" M 155.66 62.67 C 156.64 62.00 157.71 61.88 158.86 62.30 C 159.17 63.52 159.33 64.77 159.35 66.03 C 159.33 87.33 159.37 108.64 159.34 129.94 C 159.81 132.63 157.13 133.93 155.70 135.71 C 153.18 138.43 152.54 142.18 151.65 145.63 C 132.43 156.70 113.21 167.76 94.06 178.96 C 92.92 179.65 91.62 179.99 90.29 179.80 C 90.11 157.63 90.06 135.44 90.21 113.27 C 93.94 111.48 97.46 108.84 99.12 104.92 C 100.70 101.98 100.37 98.59 100.44 95.39 C 101.07 94.36 102.30 93.96 103.25 93.29 C 120.66 82.99 138.23 72.95 155.66 62.67 Z" />
</svg>
