<?xml version="1.0" encoding="UTF-8" ?>
<!DOCTYPE svg PUBLIC "-//W3C//DTD SVG 1.1//EN" "http://www.w3.org/Graphics/SVG/1.1/DTD/svg11.dtd">
<svg xmlns="http://www.w3.org/2000/svg" width="96" height="68" fill="none">
<path fill="#E93A88" d="m66.01 22.087 4.63 5.44c.53.611 1 1.114 1.19 1.4a7.288 7.288 0 0 1 2.16 5.174c-.13 2.286-1.62 3.843-3 5.509l-3.24 3.804-1.69 1.97a.46.46 0 0 0 .37.77h16.89c2.58 0 5.83 2.167 5.64 5.46a5.626 5.626 0 0 1-1.684 3.986 5.793 5.793 0 0 1-4.046 1.66H56.78c-1.74 0-6.42.187-7.73-3.804a4.675 4.675 0 0 1-.11-2.582c.38-1.263.983-2.45 1.78-3.509 1.33-1.97 2.77-3.942 4.19-5.853 1.83-2.504 3.71-4.928 5.56-7.48a.469.469 0 0 0 0-.582l-6.72-7.884a.468.468 0 0 0-.375-.184.475.475 0 0 0-.375.184c-1.8 2.395-9.68 12.999-11.36 15.147-1.68 2.149-5.82 2.267-8.11 0L23.02 30.316a.482.482 0 0 0-.82.335v19.996a6.73 6.73 0 0 1-1.22 3.979 6.888 6.888 0 0 1-3.34 2.535 5.83 5.83 0 0 1-5.217-.73 5.692 5.692 0 0 1-1.78-2.016A5.602 5.602 0 0 1 10 51.82V15.869a6.117 6.117 0 0 1 1.352-3.555 6.267 6.267 0 0 1 3.208-2.102 6.47 6.47 0 0 1 3.316.008 6.4 6.4 0 0 1 2.864 1.648L36.9 27.813a.47.47 0 0 0 .57.077.468.468 0 0 0 .15-.136l11.48-15.66a5.718 5.718 0 0 1 1.949-1.505 5.8 5.8 0 0 1 2.411-.555h29.86a5.812 5.812 0 0 1 2.368.509c.744.333 1.407.82 1.945 1.426a5.634 5.634 0 0 1 1.173 2.09c.236.771.302 1.583.194 2.381a5.764 5.764 0 0 1-2.006 3.554 5.923 5.923 0 0 1-3.884 1.374H66.39a.476.476 0 0 0-.406.249.458.458 0 0 0 .026.47Z"/>
</svg>