<?xml version="1.0" encoding="UTF-8" ?>
<!DOCTYPE svg PUBLIC "-//W3C//DTD SVG 1.1//EN" "http://www.w3.org/Graphics/SVG/1.1/DTD/svg11.dtd">
<svg width="41pt" height="41pt" viewBox="0 0 41 41" version="1.1" xmlns="http://www.w3.org/2000/svg">
<g id="#243f49ff">
<path fill="#243f49" opacity="1.00" d=" M 0.00 0.00 L 41.00 0.00 L 41.00 41.00 L 0.00 41.00 L 0.00 0.00 M 8.00 6.00 C 8.00 15.00 8.00 24.00 8.00 33.00 L 13.00 33.00 C 13.00 28.33 13.00 23.67 13.00 19.00 L 14.00 19.00 L 14.00 18.00 L 15.00 18.00 L 15.00 17.00 C 15.75 17.00 17.25 17.00 18.00 17.00 L 18.00 18.00 L 19.00 18.00 C 19.00 18.50 19.00 19.50 19.00 20.00 L 20.00 20.00 C 20.00 24.33 20.00 28.67 20.00 33.00 L 25.00 33.00 C 25.00 28.33 25.00 23.67 25.00 19.00 L 24.00 19.00 C 24.00 18.25 24.00 16.75 24.00 16.00 L 23.00 16.00 L 23.00 15.00 L 22.00 15.00 L 22.00 14.00 C 21.50 14.00 20.50 14.00 20.00 14.00 L 20.00 13.00 C 18.67 13.00 17.33 13.00 16.00 13.00 L 16.00 14.00 C 15.50 14.00 14.50 14.00 14.00 14.00 L 14.00 15.00 L 13.00 15.00 C 13.00 12.00 13.00 9.00 13.00 6.00 L 8.00 6.00 M 30.00 27.00 L 30.00 28.00 L 29.00 28.00 C 29.00 29.33 29.00 30.67 29.00 32.00 L 30.00 32.00 L 30.00 33.00 C 31.33 33.00 32.67 33.00 34.00 33.00 L 34.00 32.00 L 35.00 32.00 C 35.00 30.67 35.00 29.33 35.00 28.00 L 34.00 28.00 L 34.00 27.00 C 32.67 27.00 31.33 27.00 30.00 27.00 Z" />
</g>
<g id="#fff328ff">
<path fill="#fff328" opacity="1.00" d=" M 8.00 6.00 L 13.00 6.00 C 13.00 9.00 13.00 12.00 13.00 15.00 L 14.00 15.00 L 14.00 14.00 C 14.50 14.00 15.50 14.00 16.00 14.00 L 16.00 13.00 C 17.33 13.00 18.67 13.00 20.00 13.00 L 20.00 14.00 C 20.50 14.00 21.50 14.00 22.00 14.00 L 22.00 15.00 L 23.00 15.00 L 23.00 16.00 L 24.00 16.00 C 24.00 16.75 24.00 18.25 24.00 19.00 L 25.00 19.00 C 25.00 23.67 25.00 28.33 25.00 33.00 L 20.00 33.00 C 20.00 28.67 20.00 24.33 20.00 20.00 L 19.00 20.00 C 19.00 19.50 19.00 18.50 19.00 18.00 L 18.00 18.00 L 18.00 17.00 C 17.25 17.00 15.75 17.00 15.00 17.00 L 15.00 18.00 L 14.00 18.00 L 14.00 19.00 L 13.00 19.00 C 13.00 23.67 13.00 28.33 13.00 33.00 L 8.00 33.00 C 8.00 24.00 8.00 15.00 8.00 6.00 Z" />
<path fill="#fff328" opacity="1.00" d=" M 30.00 27.00 C 31.33 27.00 32.67 27.00 34.00 27.00 L 34.00 28.00 L 35.00 28.00 C 35.00 29.33 35.00 30.67 35.00 32.00 L 34.00 32.00 L 34.00 33.00 C 32.67 33.00 31.33 33.00 30.00 33.00 L 30.00 32.00 L 29.00 32.00 C 29.00 30.67 29.00 29.33 29.00 28.00 L 30.00 28.00 L 30.00 27.00 Z" />
</g>
</svg>
