<?xml version="1.0" encoding="UTF-8" ?>
<!DOCTYPE svg PUBLIC "-//W3C//DTD SVG 1.1//EN" "http://www.w3.org/Graphics/SVG/1.1/DTD/svg11.dtd">
<svg width="220pt" height="220pt" viewBox="0 0 220 220" version="1.1" xmlns="http://www.w3.org/2000/svg">
<path fill="#0d67fe" opacity="1.00" d=" M 129.99 37.15 C 145.89 28.16 161.97 19.55 177.93 10.68 C 178.09 22.19 177.94 33.70 178.01 45.22 C 178.13 65.52 178.10 85.82 178.02 106.12 C 177.96 120.08 178.04 134.05 177.98 148.01 C 175.94 163.33 169.84 178.65 158.26 189.25 C 150.65 197.57 140.74 203.82 129.88 206.89 C 107.74 214.20 82.07 208.82 64.56 193.44 C 58.91 189.73 55.51 183.76 51.40 178.59 C 48.45 173.08 45.47 167.51 43.50 161.55 C 42.25 157.09 41.47 152.50 41.02 147.89 C 40.96 127.31 41.02 106.73 40.99 86.15 C 52.08 79.75 63.36 73.73 74.58 67.58 C 76.88 66.01 79.33 64.68 81.95 63.73 C 82.02 81.56 82.06 99.40 81.93 117.24 C 81.61 126.57 81.53 135.93 81.95 145.26 C 83.79 152.27 87.55 159.52 94.63 162.38 C 105.59 168.52 121.19 164.28 127.00 153.00 C 131.80 144.79 129.45 134.98 130.01 125.98 C 129.95 110.94 130.01 95.89 129.99 80.85 C 130.01 66.28 130.00 51.71 129.99 37.15 Z" />
<path fill="#00c9ff" opacity="1.00" d=" M 217.43 15.37 C 217.81 15.20 218.57 14.85 218.95 14.68 C 219.06 39.68 218.97 64.69 219.00 89.69 C 207.54 94.95 195.63 99.14 184.01 104.03 C 182.10 104.95 180.21 106.10 178.02 106.12 C 178.10 85.82 178.13 65.52 178.01 45.22 C 190.92 34.98 204.38 25.43 217.43 15.37 Z" />
<path fill="#00c9ff" opacity="1.00" d=" M 81.93 117.24 C 97.74 104.84 114.15 93.21 129.99 80.85 C 130.01 95.89 129.95 110.94 130.01 125.98 C 117.69 131.03 105.40 136.15 93.00 140.99 C 89.28 142.32 85.83 144.40 81.95 145.26 C 81.53 135.93 81.61 126.57 81.93 117.24 Z" />
<path fill="#00c9ff" opacity="1.00" d=" M 0.72 178.19 C 13.94 167.83 27.48 157.84 41.02 147.89 C 41.47 152.50 42.25 157.09 43.50 161.55 C 28.93 166.23 15.29 173.49 0.72 178.19 Z" />
</svg>
