<?xml version="1.0" encoding="UTF-8" ?>
<!DOCTYPE svg PUBLIC "-//W3C//DTD SVG 1.1//EN" "http://www.w3.org/Graphics/SVG/1.1/DTD/svg11.dtd">
<svg width="360pt" height="360pt" viewBox="0 0 360 360" version="1.1" xmlns="http://www.w3.org/2000/svg">
<path fill="#2081e2" opacity="1.00" d=" M 175.45 0.00 L 184.59 0.00 C 218.33 0.91 251.80 11.33 279.83 30.20 C 305.27 47.15 326.31 70.68 340.22 97.91 C 352.59 121.81 359.24 148.56 360.00 175.44 L 360.00 184.61 C 359.10 218.08 348.81 251.25 330.26 279.14 C 312.46 306.14 287.24 328.19 258.09 342.21 C 234.98 353.43 209.41 359.41 183.74 360.00 L 175.41 360.00 C 141.90 359.11 108.67 348.79 80.76 330.19 C 50.17 310.01 25.99 280.27 12.56 246.18 C 4.68 226.32 0.49 205.06 0.00 183.72 L 0.00 175.38 C 0.72 151.47 5.99 127.67 15.93 105.89 C 29.21 76.39 50.67 50.66 77.24 32.22 C 105.87 12.10 140.51 0.91 175.45 0.00 M 175.61 80.80 C 175.31 85.20 175.59 89.62 175.51 94.03 C 166.21 91.60 157.01 88.74 147.62 86.68 C 147.89 87.87 148.28 89.01 148.80 90.12 C 153.32 98.56 157.39 107.26 160.76 116.23 C 166.60 132.03 171.44 148.98 169.17 165.97 C 166.17 181.91 156.68 195.54 148.15 208.99 C 148.21 210.50 149.71 210.84 150.96 210.74 C 159.13 210.79 167.31 210.72 175.49 210.75 C 175.51 217.46 175.50 224.17 175.49 230.88 C 166.65 230.85 157.81 230.92 148.97 230.85 C 139.55 230.86 131.10 222.45 131.18 213.01 C 131.05 211.43 131.68 208.25 129.06 208.66 C 111.35 208.62 93.63 208.55 75.93 208.70 C 74.40 226.50 82.47 244.51 95.65 256.35 C 106.60 266.23 121.25 271.82 136.00 271.75 C 167.34 271.73 198.69 271.79 230.03 271.72 C 239.07 271.79 247.15 266.53 252.95 259.97 C 261.38 250.37 267.18 238.88 274.43 228.43 C 279.91 220.42 289.10 216.34 297.52 212.19 C 297.40 207.82 297.68 203.43 297.41 199.07 C 296.91 197.44 295.04 198.27 293.93 198.53 C 276.36 203.71 258.70 208.62 241.15 213.88 C 233.72 219.21 228.74 228.83 219.04 230.62 C 211.31 231.21 203.53 230.72 195.78 230.87 C 195.72 224.16 195.75 217.46 195.76 210.76 C 201.30 210.53 206.94 211.18 212.42 210.44 C 219.05 204.74 224.90 198.17 230.20 191.23 C 235.39 184.35 239.90 176.68 241.58 168.14 C 243.24 158.81 240.12 149.41 235.74 141.26 C 227.08 125.88 214.27 113.33 200.67 102.30 C 199.21 101.02 197.46 100.17 195.70 99.40 C 195.76 93.57 195.80 87.73 195.73 81.90 C 195.78 77.11 191.86 72.71 187.13 72.09 C 181.79 71.22 176.08 75.33 175.61 80.80 M 136.57 111.47 C 120.82 135.74 105.40 160.23 89.73 184.56 C 88.87 185.49 87.56 188.60 89.97 188.40 C 105.96 188.61 121.96 188.49 137.96 188.46 C 139.62 188.83 140.10 186.86 140.88 185.86 C 145.98 176.63 151.98 166.96 151.40 155.99 C 150.84 141.32 145.75 127.28 140.15 113.86 C 139.61 112.48 138.25 109.42 136.57 111.47 Z" />
<path fill="#ffffff" opacity="1.00" d=" M 175.61 80.80 C 176.08 75.33 181.79 71.22 187.13 72.09 C 191.86 72.71 195.78 77.11 195.73 81.90 C 195.80 87.73 195.76 93.57 195.70 99.40 C 197.46 100.17 199.21 101.02 200.67 102.30 C 214.27 113.33 227.08 125.88 235.74 141.26 C 240.12 149.41 243.24 158.81 241.58 168.14 C 239.90 176.68 235.39 184.35 230.20 191.23 C 224.90 198.17 219.05 204.74 212.42 210.44 C 206.94 211.18 201.30 210.53 195.76 210.76 C 195.75 217.46 195.72 224.16 195.78 230.87 C 203.53 230.72 211.31 231.21 219.04 230.62 C 228.74 228.83 233.72 219.21 241.15 213.88 C 258.70 208.62 276.36 203.71 293.93 198.53 C 295.04 198.27 296.91 197.44 297.41 199.07 C 297.68 203.43 297.40 207.82 297.52 212.19 C 289.10 216.34 279.91 220.42 274.43 228.43 C 267.18 238.88 261.38 250.37 252.95 259.97 C 247.15 266.53 239.07 271.79 230.03 271.72 C 198.69 271.79 167.34 271.73 136.00 271.75 C 121.25 271.82 106.60 266.23 95.65 256.35 C 82.47 244.51 74.40 226.50 75.93 208.70 C 93.63 208.55 111.35 208.62 129.06 208.66 C 131.68 208.25 131.05 211.43 131.18 213.01 C 131.10 222.45 139.55 230.86 148.97 230.85 C 157.81 230.92 166.65 230.85 175.49 230.88 C 175.50 224.17 175.51 217.46 175.49 210.75 C 167.31 210.72 159.13 210.79 150.96 210.74 C 149.71 210.84 148.21 210.50 148.15 208.99 C 156.68 195.54 166.17 181.91 169.17 165.97 C 171.44 148.98 166.60 132.03 160.76 116.23 C 157.39 107.26 153.32 98.56 148.80 90.12 C 148.28 89.01 147.89 87.87 147.62 86.68 C 157.01 88.74 166.21 91.60 175.51 94.03 C 175.59 89.62 175.31 85.20 175.61 80.80 Z" />
<path fill="#ffffff" opacity="1.00" d=" M 136.57 111.47 C 138.25 109.42 139.61 112.48 140.15 113.86 C 145.75 127.28 150.84 141.32 151.40 155.99 C 151.98 166.96 145.98 176.63 140.88 185.86 C 140.10 186.86 139.62 188.83 137.96 188.46 C 121.96 188.49 105.96 188.61 89.97 188.40 C 87.56 188.60 88.87 185.49 89.73 184.56 C 105.40 160.23 120.82 135.74 136.57 111.47 Z" />
</svg>
