<?xml version="1.0" encoding="UTF-8" ?>
<!DOCTYPE svg PUBLIC "-//W3C//DTD SVG 1.1//EN" "http://www.w3.org/Graphics/SVG/1.1/DTD/svg11.dtd">
<svg width="1000pt" height="500pt" viewBox="0 0 1000 500" version="1.1" xmlns="http://www.w3.org/2000/svg">
<path fill="#20315b" opacity="1.00" d=" M 234.68 0.00 L 264.32 0.00 C 334.78 4.96 402.89 39.64 446.37 95.61 C 463.75 117.79 477.45 142.91 486.44 169.63 C 490.37 181.41 486.94 194.65 478.88 203.88 C 454.74 233.84 426.01 260.27 394.36 282.05 C 394.06 232.02 394.40 181.98 394.20 131.95 C 394.56 120.89 385.39 110.12 374.04 110.19 C 361.37 110.12 348.68 110.00 336.00 110.24 C 325.04 110.69 316.37 121.25 316.65 131.97 C 316.56 193.61 316.80 255.27 316.54 316.91 C 315.48 330.80 299.62 334.17 288.93 338.20 C 288.21 286.83 288.89 235.40 288.60 184.01 C 288.39 172.87 278.11 163.36 267.03 163.63 C 255.01 163.62 242.98 163.50 230.96 163.69 C 219.88 163.83 210.23 173.93 210.38 184.96 C 210.31 240.65 210.55 296.35 210.27 352.03 C 209.66 366.33 193.72 369.99 182.20 371.17 C 181.36 326.48 182.19 281.72 181.79 237.01 C 181.69 226.15 171.74 216.95 161.05 216.81 C 149.02 216.61 136.98 216.64 124.95 216.79 C 114.16 216.77 104.17 226.06 104.26 237.01 C 104.08 281.35 104.36 325.71 104.13 370.06 C 104.36 379.10 97.08 387.48 87.95 388.00 C 70.78 389.69 49.02 395.45 36.60 379.42 C 14.43 345.93 4.09 305.90 0.00 266.30 L 0.00 234.70 C 4.19 185.20 21.61 136.59 52.32 97.31 C 95.36 40.40 163.83 5.23 234.68 0.00 Z" />
<path fill="#20315b" opacity="1.00" d=" M 616.13 39.17 C 626.64 31.88 641.31 28.49 652.94 35.15 C 687.60 55.14 722.17 75.28 756.84 95.25 C 765.32 100.47 772.91 109.42 771.86 120.00 C 771.80 134.91 773.59 150.45 770.91 164.99 C 755.77 173.81 740.91 184.90 724.51 190.70 C 719.39 169.91 732.14 142.74 712.83 127.15 C 695.04 115.59 675.86 106.25 657.75 95.16 C 646.74 87.72 631.12 86.15 619.69 93.53 C 601.43 103.97 583.15 114.36 564.93 124.85 C 554.92 130.27 549.45 141.85 549.74 152.99 C 549.96 173.99 549.42 195.01 550.01 216.00 C 550.22 226.61 556.83 235.97 565.60 241.48 C 584.46 252.23 603.32 262.96 621.91 274.16 C 632.53 280.16 646.48 279.78 656.47 272.63 C 717.94 236.17 780.51 201.67 841.81 164.94 C 851.77 158.60 864.98 156.34 875.58 162.53 C 911.69 183.92 948.50 204.10 984.63 225.45 C 993.70 231.20 999.31 242.30 998.46 253.01 C 998.37 293.36 998.43 333.72 998.43 374.07 C 997.22 387.16 987.10 397.15 975.74 402.60 C 943.15 421.00 910.75 439.73 878.15 458.14 C 867.74 464.23 854.30 464.45 844.10 457.78 C 808.45 437.01 772.14 417.31 736.72 396.20 C 720.20 383.85 726.61 361.58 725.40 344.00 C 726.35 338.54 722.53 329.97 729.39 327.48 C 744.33 319.87 757.94 308.75 773.64 303.22 C 775.60 318.54 772.94 334.45 774.71 349.94 C 776.29 359.41 783.41 367.14 791.78 371.37 C 810.37 381.71 828.59 392.79 847.39 402.71 C 856.26 407.85 867.22 407.12 875.94 402.04 C 893.79 391.58 911.68 381.18 929.47 370.63 C 939.96 366.04 947.26 355.48 947.51 344.01 C 947.61 322.01 947.48 300.00 947.57 278.00 C 947.82 267.00 940.87 256.74 931.41 251.53 C 915.45 242.53 899.54 233.45 883.72 224.22 C 873.04 217.31 859.08 212.31 847.08 219.08 C 787.75 252.46 729.22 287.29 670.03 320.93 C 661.00 326.04 652.26 332.39 641.93 334.53 C 630.95 336.39 621.26 329.98 612.35 324.57 C 581.91 306.93 551.16 289.82 520.67 272.27 C 511.51 267.17 502.89 258.94 501.57 248.08 C 501.56 205.03 501.58 161.98 501.57 118.93 C 502.73 108.64 509.26 99.22 518.74 94.85 C 551.15 76.17 583.65 57.71 616.13 39.17 M 622.76 36.72 C 588.58 56.18 554.41 75.66 520.29 95.23 C 509.98 99.63 503.03 109.76 502.64 120.96 C 502.67 162.65 502.57 204.36 502.68 246.04 C 503.05 259.16 514.09 267.77 524.73 273.32 C 553.09 289.21 581.24 305.48 609.52 321.50 C 618.43 326.79 627.32 333.28 638.00 334.02 C 650.73 333.03 660.78 324.42 671.66 318.71 C 727.80 286.60 783.65 253.98 839.70 221.73 C 849.96 214.92 863.62 212.50 874.93 218.20 C 891.60 226.95 907.55 237.00 924.11 245.95 C 936.17 251.64 948.20 261.71 948.60 276.12 C 948.90 297.41 949.23 318.73 948.78 340.03 C 948.89 350.81 945.14 362.57 935.41 368.36 C 916.38 379.72 897.31 391.01 878.12 402.09 C 867.93 408.78 854.08 408.33 843.73 402.23 C 825.84 392.14 807.98 381.96 790.14 371.76 C 781.46 367.76 775.20 359.11 773.54 349.78 C 772.85 334.76 773.92 319.67 773.09 304.66 C 757.64 310.35 744.40 321.20 729.62 328.58 C 724.89 330.32 726.56 336.07 726.15 339.96 C 727.24 358.63 720.56 382.85 738.23 395.76 C 770.96 415.24 804.54 433.39 837.40 452.70 C 850.83 463.18 869.23 465.02 883.09 454.14 C 915.39 435.81 947.48 417.11 979.86 398.93 C 989.89 393.71 996.79 383.37 997.37 372.03 C 997.41 331.69 997.34 291.33 997.41 250.98 C 996.94 240.78 991.75 230.34 982.53 225.38 C 947.31 204.86 911.62 185.16 876.56 164.39 C 866.16 157.65 852.18 159.44 842.19 166.08 C 781.06 202.60 718.76 237.12 657.45 273.36 C 648.62 280.00 636.77 279.85 626.51 277.48 C 606.83 267.14 587.96 255.28 568.51 244.46 C 558.64 239.30 549.62 229.71 549.34 218.02 C 549.36 194.67 549.41 171.32 549.31 147.97 C 549.20 137.77 556.01 128.58 564.69 123.74 C 582.87 113.26 601.09 102.83 619.29 92.35 C 628.86 86.41 641.34 86.60 651.60 90.51 C 670.02 100.63 688.05 111.46 706.53 121.51 C 714.98 126.07 722.40 133.72 724.39 143.37 C 725.35 158.51 723.71 173.82 725.16 188.91 C 737.23 186.34 747.56 176.43 759.04 171.12 C 764.07 167.99 772.41 165.48 771.42 158.03 C 769.40 137.14 778.99 108.23 755.90 96.05 C 721.63 76.41 687.53 56.47 653.36 36.65 C 644.32 30.63 631.92 31.31 622.76 36.72 Z" />
<path fill="#8247e5" opacity="1.00" d=" M 622.76 36.72 C 631.92 31.31 644.32 30.63 653.36 36.65 C 687.53 56.47 721.63 76.41 755.90 96.05 C 778.99 108.23 769.40 137.14 771.42 158.03 C 772.41 165.48 764.07 167.99 759.04 171.12 C 747.56 176.43 737.23 186.34 725.16 188.91 C 723.71 173.82 725.35 158.51 724.39 143.37 C 722.40 133.72 714.98 126.07 706.53 121.51 C 688.05 111.46 670.02 100.63 651.60 90.51 C 641.34 86.60 628.86 86.41 619.29 92.35 C 601.09 102.83 582.87 113.26 564.69 123.74 C 556.01 128.58 549.20 137.77 549.31 147.97 C 549.41 171.32 549.36 194.67 549.34 218.02 C 549.62 229.71 558.64 239.30 568.51 244.46 C 587.96 255.28 606.83 267.14 626.51 277.48 C 636.77 279.85 648.62 280.00 657.45 273.36 C 718.76 237.12 781.06 202.60 842.19 166.08 C 852.18 159.44 866.16 157.65 876.56 164.39 C 911.62 185.16 947.31 204.86 982.53 225.38 C 991.75 230.34 996.94 240.78 997.41 250.98 C 997.34 291.33 997.41 331.69 997.37 372.03 C 996.79 383.37 989.89 393.71 979.86 398.93 C 947.48 417.11 915.39 435.81 883.09 454.14 C 869.23 465.02 850.83 463.18 837.40 452.70 C 804.54 433.39 770.96 415.24 738.23 395.76 C 720.56 382.85 727.24 358.63 726.15 339.96 C 726.56 336.07 724.89 330.32 729.62 328.58 C 744.40 321.20 757.64 310.35 773.09 304.66 C 773.92 319.67 772.85 334.76 773.54 349.78 C 775.20 359.11 781.46 367.76 790.14 371.76 C 807.98 381.96 825.84 392.14 843.73 402.23 C 854.08 408.33 867.93 408.78 878.12 402.09 C 897.31 391.01 916.38 379.72 935.41 368.36 C 945.14 362.57 948.89 350.81 948.78 340.03 C 949.23 318.73 948.90 297.41 948.60 276.12 C 948.20 261.71 936.17 251.64 924.11 245.95 C 907.55 237.00 891.60 226.95 874.93 218.20 C 863.62 212.50 849.96 214.92 839.70 221.73 C 783.65 253.98 727.80 286.60 671.66 318.71 C 660.78 324.42 650.73 333.03 638.00 334.02 C 627.32 333.28 618.43 326.79 609.52 321.50 C 581.24 305.48 553.09 289.21 524.73 273.32 C 514.09 267.77 503.05 259.16 502.68 246.04 C 502.57 204.36 502.67 162.65 502.64 120.96 C 503.03 109.76 509.98 99.63 520.29 95.23 C 554.41 75.66 588.58 56.18 622.76 36.72 Z" />
<path fill="#979694" opacity="1.00" d=" M 353.19 367.17 C 410.59 333.70 460.91 288.18 499.06 233.76 C 504.03 294.11 484.26 355.63 447.40 403.41 C 404.49 459.75 336.63 494.71 266.29 500.00 L 233.72 500.00 C 187.41 495.75 141.14 480.81 104.03 452.26 C 191.23 439.20 277.04 412.15 353.19 367.17 Z" />
</svg>
