<?xml version="1.0" encoding="UTF-8" ?>
<!DOCTYPE svg PUBLIC "-//W3C//DTD SVG 1.1//EN" "http://www.w3.org/Graphics/SVG/1.1/DTD/svg11.dtd">
<svg viewBox="-1 0 41 37" xmlns="http://www.w3.org/2000/svg">
<path d="M20.439.61a7.284 7.284 0 0 0-2.653-.49c-.925 0-1.816.163-2.673.49a6.831 6.831 0 0 0-2.265 1.387 6.453 6.453 0 0 0-.992 1.157V.426H0v3.367h4.02v10.244h3.816V3.793h3.638a7.57 7.57 0 0 0-.218.449c-.381.884-.572 1.89-.572 3.02 0 1.13.191 2.136.572 3.02a6.722 6.722 0 0 0 1.591 2.245 7.12 7.12 0 0 0 2.266 1.408c.857.313 1.748.47 2.673.47s1.81-.157 2.652-.47a7.065 7.065 0 0 0 2.286-1.408 6.487 6.487 0 0 0 1.571-2.245c.395-.884.592-1.89.592-3.02 0-1.13-.197-2.136-.592-3.02a6.487 6.487 0 0 0-1.571-2.245A6.785 6.785 0 0 0 20.439.61Zm-4.286 3.55a2.905 2.905 0 0 1 1.633-.469c.612 0 1.156.156 1.632.47.49.312.87.74 1.143 1.285.272.53.408 1.136.408 1.816 0 .68-.136 1.292-.408 1.837-.272.53-.653.952-1.143 1.265-.476.313-1.02.47-1.632.47a2.905 2.905 0 0 1-1.633-.47 3.426 3.426 0 0 1-1.142-1.265c-.272-.545-.409-1.157-.409-1.837 0-.68.136-1.286.409-1.816a3.386 3.386 0 0 1 1.142-1.286ZM24.356 23.009v-8.306H20.54v8.04c0 .708-.19 1.286-.57 1.735-.382.435-.98.66-1.796.673-.817.014-1.415-.204-1.796-.653-.381-.462-.572-1.047-.572-1.755v-8.04h-3.815v8.306c0 1.183.278 2.203.836 3.06a5.552 5.552 0 0 0 2.245 1.98c.938.449 1.972.673 3.102.673 1.142 0 2.176-.224 3.101-.673a5.553 5.553 0 0 0 2.245-1.98c.558-.857.836-1.877.836-3.06ZM9.999 23.804v-3.367H5.142v-2.326h5.877v-3.367H1.326v13.672h3.816v-4.612H10ZM33.28 23.395h-3.366v-4.857h-4.612v-3.816h13.672V36.12h-3.367V32.1H25.363v-3.816h10.244v-9.746H33.28v4.857ZM25.3 12.913h13.674V9.464h-7.04l7.04-7.693V.425H25.3v3.53h6.511l-6.51 7.611v1.347Z" fill="currentColor"/>
</svg>