<?xml version="1.0" encoding="UTF-8" ?>
<!DOCTYPE svg PUBLIC "-//W3C//DTD SVG 1.1//EN" "http://www.w3.org/Graphics/SVG/1.1/DTD/svg11.dtd">
<svg width="830pt" height="189pt" viewBox="0 0 830 189" version="1.1" xmlns="http://www.w3.org/2000/svg">
<path fill="#07c2f8" opacity="1.00" d=" M 1.22 1.58 C 17.06 1.35 32.91 1.41 48.75 1.56 C 49.90 42.33 48.90 83.19 49.25 124.00 C 49.57 132.13 48.28 140.50 50.56 148.44 C 53.71 158.71 70.45 159.55 75.13 150.11 C 77.07 145.30 77.07 139.98 77.41 134.87 C 78.12 90.40 76.87 45.86 78.04 1.42 C 93.66 1.55 109.28 1.30 124.90 1.55 C 125.20 43.03 124.81 84.51 125.11 125.98 C 124.86 138.78 122.98 151.83 117.54 163.52 C 110.59 177.57 95.56 186.32 80.11 187.23 C 61.58 188.92 41.26 189.74 24.44 180.51 C 6.61 169.79 1.75 147.37 1.34 128.02 C 1.06 85.88 1.31 43.72 1.22 1.58 Z" />
<path fill="#07c2f8" opacity="1.00" d=" M 145.98 1.59 C 170.01 1.28 194.04 1.54 218.07 1.45 C 231.67 1.88 246.49 5.61 255.63 16.39 C 266.08 27.50 270.15 42.95 271.41 57.79 C 273.32 83.11 273.61 108.64 270.81 133.91 C 268.93 148.47 263.86 163.55 252.50 173.49 C 240.39 184.74 222.63 185.43 207.00 185.42 C 186.60 185.00 166.12 186.28 145.79 184.73 C 145.98 123.69 145.60 62.63 145.98 1.59 M 193.14 36.98 C 193.38 73.31 193.32 109.65 193.16 145.98 C 193.18 147.73 193.77 150.14 195.94 150.16 C 202.77 151.41 210.73 150.89 216.24 146.24 C 221.88 139.61 222.54 130.39 222.75 122.06 C 223.02 101.41 223.05 80.74 222.63 60.09 C 221.88 53.16 221.18 45.20 215.85 40.11 C 209.41 35.26 200.70 35.60 193.14 36.98 Z" />
<path fill="#07c2f8" opacity="1.00" d=" M 471.33 1.40 C 488.82 1.46 506.32 1.49 523.81 1.38 C 524.46 62.92 524.31 124.50 523.89 186.04 C 506.37 186.20 488.82 186.48 471.31 185.89 C 471.36 124.39 471.31 62.89 471.33 1.40 M 477.81 8.23 C 477.48 65.19 477.52 122.18 477.79 179.15 C 490.90 179.47 504.03 179.44 517.14 179.16 C 517.42 122.18 517.44 65.20 517.13 8.22 C 504.02 8.24 490.92 8.23 477.81 8.23 Z" />
<path fill="#07c2f8" opacity="1.00" d=" M 619.83 1.41 C 636.49 1.43 653.14 1.54 669.80 1.36 C 670.45 62.94 670.30 124.57 669.88 186.15 C 650.95 186.04 632.00 186.64 613.09 185.81 C 604.53 157.89 598.10 129.30 588.53 101.71 C 586.85 129.66 588.13 157.67 587.72 185.65 C 571.06 186.65 554.37 186.11 537.69 186.09 C 537.53 124.59 537.56 63.08 537.68 1.57 C 556.79 1.42 575.92 1.44 595.04 1.56 C 604.52 29.11 609.60 58.00 619.30 85.45 C 620.20 57.45 619.12 29.42 619.83 1.41 M 544.31 8.25 C 544.45 65.18 544.45 122.11 544.31 179.04 C 556.46 179.51 568.64 179.61 580.78 178.94 C 581.93 142.38 580.89 105.75 581.28 69.15 C 583.35 69.23 585.42 69.31 587.49 69.39 C 597.49 105.92 608.20 142.26 618.09 178.82 C 632.99 179.79 647.95 179.32 662.87 179.06 C 662.97 122.12 663.01 65.19 662.85 8.25 C 650.66 8.23 638.47 8.23 626.28 8.24 C 626.29 44.78 626.63 81.33 626.12 117.86 C 624.15 117.79 622.20 117.71 620.25 117.63 C 609.70 81.40 600.31 44.82 590.44 8.39 C 575.07 8.05 559.69 8.31 544.31 8.25 Z" />
<path fill="#07c2f8" opacity="1.00" d=" M 292.60 1.54 C 310.48 1.46 328.35 1.38 346.23 1.59 C 346.42 48.08 346.22 94.58 346.32 141.08 C 365.20 141.76 384.05 140.05 402.91 141.58 C 403.69 156.40 403.04 171.28 403.26 186.13 C 366.41 186.09 329.56 186.61 292.72 185.71 C 292.46 124.33 292.71 62.93 292.60 1.54 M 299.35 8.28 C 299.39 65.14 299.49 122.00 299.30 178.87 C 331.42 179.73 363.57 179.38 395.70 179.06 C 395.64 168.80 395.58 158.54 395.75 148.29 C 376.89 148.12 358.00 149.01 339.19 147.53 C 338.80 101.11 339.48 54.67 338.84 8.26 C 325.67 8.23 312.51 8.19 299.35 8.28 Z" />
<path fill="#07c2f8" opacity="1.00" d=" M 682.88 1.63 C 700.83 1.38 718.79 1.37 736.74 1.63 C 737.04 20.14 735.99 38.71 737.29 57.18 C 746.44 40.42 754.79 23.24 763.03 6.01 C 764.13 4.10 765.18 1.10 767.94 1.52 C 786.06 1.51 804.21 1.26 822.34 1.69 C 808.49 28.29 792.46 53.71 778.01 79.98 C 776.85 81.86 776.89 84.13 777.97 86.03 C 794.66 119.30 811.25 152.62 827.95 185.89 C 807.74 186.32 787.48 186.58 767.29 185.74 C 758.80 166.71 751.29 147.23 741.83 128.66 C 739.19 131.89 736.56 135.56 736.72 139.95 C 736.65 155.24 736.73 170.55 736.73 185.85 C 718.93 186.40 701.09 186.51 683.29 185.65 C 682.08 124.33 682.78 62.96 682.88 1.63 M 689.99 8.29 C 689.90 65.19 689.28 122.14 690.32 179.01 C 703.33 179.66 716.36 179.30 729.37 179.25 C 729.71 164.98 728.92 150.68 729.70 136.44 C 732.36 128.18 738.25 121.37 743.17 114.32 C 753.79 135.44 762.55 157.44 771.95 179.12 C 786.94 179.41 801.95 179.59 816.94 179.01 C 802.41 149.38 787.18 120.12 772.34 90.65 C 770.69 87.16 767.53 83.08 770.28 79.29 C 783.86 55.63 797.57 32.03 811.09 8.32 C 797.38 8.10 783.67 8.33 769.96 8.20 C 759.06 29.90 748.27 51.65 737.36 73.34 C 736.14 76.81 732.34 76.28 729.40 76.13 C 729.30 53.51 729.62 30.87 729.26 8.25 C 716.17 8.25 703.08 8.19 689.99 8.29 Z" />
<path fill="#07c2f8" opacity="1.00" d=" M 408.40 129.85 C 424.77 129.84 441.21 129.01 457.54 130.37 C 457.79 148.85 457.53 167.33 457.67 185.82 C 441.25 186.44 424.78 186.50 408.36 185.65 C 408.12 167.05 408.24 148.45 408.40 129.85 M 415.25 136.80 C 415.42 150.83 415.22 164.87 415.36 178.90 C 427.00 179.76 438.69 179.24 450.36 179.25 C 450.41 165.08 450.51 150.91 450.31 136.74 C 438.62 136.59 426.93 136.49 415.25 136.80 Z" />
<path fill="#112654" opacity="1.00" d=" M 299.35 8.28 C 312.51 8.19 325.67 8.23 338.84 8.26 C 339.48 54.67 338.80 101.11 339.19 147.53 C 358.00 149.01 376.89 148.12 395.75 148.29 C 395.58 158.54 395.64 168.80 395.70 179.06 C 363.57 179.38 331.42 179.73 299.30 178.87 C 299.49 122.00 299.39 65.14 299.35 8.28 Z" />
<path fill="#112654" opacity="1.00" d=" M 477.81 8.23 C 490.92 8.23 504.02 8.24 517.13 8.22 C 517.44 65.20 517.42 122.18 517.14 179.16 C 504.03 179.44 490.90 179.47 477.79 179.15 C 477.52 122.18 477.48 65.19 477.81 8.23 Z" />
<path fill="#112654" opacity="1.00" d=" M 544.31 8.25 C 559.69 8.31 575.07 8.05 590.44 8.39 C 600.31 44.82 609.70 81.40 620.25 117.63 C 622.20 117.71 624.15 117.79 626.12 117.86 C 626.63 81.33 626.29 44.78 626.28 8.24 C 638.47 8.23 650.66 8.23 662.85 8.25 C 663.01 65.19 662.97 122.12 662.87 179.06 C 647.95 179.32 632.99 179.79 618.09 178.82 C 608.20 142.26 597.49 105.92 587.49 69.39 C 585.42 69.31 583.35 69.23 581.28 69.15 C 580.89 105.75 581.93 142.38 580.78 178.94 C 568.64 179.61 556.46 179.51 544.31 179.04 C 544.45 122.11 544.45 65.18 544.31 8.25 Z" />
<path fill="#112654" opacity="1.00" d=" M 689.99 8.29 C 703.08 8.19 716.17 8.25 729.26 8.25 C 729.62 30.87 729.30 53.51 729.40 76.13 C 732.34 76.28 736.14 76.81 737.36 73.34 C 748.27 51.65 759.06 29.90 769.96 8.20 C 783.67 8.33 797.38 8.10 811.09 8.32 C 797.57 32.03 783.86 55.63 770.28 79.29 C 767.53 83.08 770.69 87.16 772.34 90.65 C 787.18 120.12 802.41 149.38 816.94 179.01 C 801.95 179.59 786.94 179.41 771.95 179.12 C 762.55 157.44 753.79 135.44 743.17 114.32 C 738.25 121.37 732.36 128.18 729.70 136.44 C 728.92 150.68 729.71 164.98 729.37 179.25 C 716.36 179.30 703.33 179.66 690.32 179.01 C 689.28 122.14 689.90 65.19 689.99 8.29 Z" />
<path fill="#112654" opacity="1.00" d=" M 415.25 136.80 C 426.93 136.49 438.62 136.59 450.31 136.74 C 450.51 150.91 450.41 165.08 450.36 179.25 C 438.69 179.24 427.00 179.76 415.36 178.90 C 415.22 164.87 415.42 150.83 415.25 136.80 Z" />
</svg>
