<?xml version="1.0" encoding="UTF-8" ?>
<!DOCTYPE svg PUBLIC "-//W3C//DTD SVG 1.1//EN" "http://www.w3.org/Graphics/SVG/1.1/DTD/svg11.dtd">
<svg width="190pt" height="190pt" viewBox="0 0 190 190" version="1.1" xmlns="http://www.w3.org/2000/svg">
<path fill="#171691" opacity="1.00" d=" M 83.52 1.81 C 104.85 -0.88 127.13 3.95 145.16 15.73 C 168.68 30.49 184.98 56.28 187.89 83.93 C 190.36 105.51 185.28 127.98 173.14 146.05 C 164.36 159.48 152.05 170.64 137.76 177.92 C 108.22 193.60 70.08 191.47 42.57 172.41 C 25.60 161.13 12.65 144.07 6.09 124.79 C 1.93 113.01 0.73 100.31 1.51 87.88 C 3.03 60.87 17.62 35.19 39.34 19.24 C 52.27 9.88 67.55 3.38 83.52 1.81 M 82.47 15.73 C 52.75 20.05 26.66 42.70 18.37 71.57 C 12.31 91.18 14.30 113.17 23.80 131.37 C 33.42 150.13 50.76 164.89 70.99 170.98 C 90.86 177.53 113.17 175.27 131.68 165.72 C 150.21 156.07 164.87 139.01 171.00 118.97 C 179.93 92.45 172.95 61.47 153.92 41.05 C 136.41 21.26 108.53 11.49 82.47 15.73 Z" />
<path fill="#171691" opacity="1.00" d=" M 89.39 51.18 C 89.43 45.36 89.38 39.54 89.42 33.71 C 93.09 33.72 96.76 33.72 100.44 33.72 C 100.46 39.55 100.42 45.37 100.47 51.20 C 105.20 48.32 109.94 45.43 114.85 42.85 C 116.75 45.50 118.47 48.26 120.03 51.11 C 115.01 54.03 110.16 57.22 105.20 60.22 C 110.27 63.01 115.03 66.32 120.01 69.26 C 118.42 72.09 116.68 74.83 114.95 77.57 C 110.00 74.97 105.28 71.97 100.47 69.13 C 100.42 74.95 100.45 80.77 100.45 86.60 C 96.77 86.62 93.09 86.62 89.41 86.60 C 89.39 80.78 89.42 74.96 89.39 69.14 C 84.80 72.02 80.09 74.68 75.55 77.63 C 73.53 74.95 71.82 72.08 69.96 69.30 C 75.17 66.47 79.98 62.95 85.26 60.24 C 80.11 57.26 75.19 53.89 69.92 51.09 C 71.83 48.33 73.65 45.50 75.71 42.84 C 80.34 45.50 84.88 48.32 89.39 51.18 Z" />
<path fill="#171691" opacity="1.00" d=" M 57.08 88.00 C 60.68 87.98 64.29 87.98 67.89 88.00 C 67.89 93.89 67.89 99.78 67.89 105.67 C 72.72 102.77 77.73 100.18 82.52 97.21 C 84.19 100.02 85.83 102.86 87.42 105.71 C 82.74 108.92 77.65 111.47 72.91 114.59 C 77.73 117.84 82.94 120.46 87.70 123.79 C 86.01 126.54 84.29 129.27 82.58 132.01 C 77.75 129.12 72.73 126.59 67.89 123.71 C 67.88 129.49 67.89 135.28 67.89 141.06 C 64.28 141.07 60.68 141.07 57.08 141.06 C 57.07 135.27 57.10 129.48 57.06 123.68 C 52.36 126.53 47.44 129.00 42.82 131.99 C 41.01 129.31 39.15 126.67 37.32 124.00 C 42.25 120.84 47.33 117.94 52.30 114.84 C 47.41 111.66 42.27 108.90 37.33 105.80 C 39.14 103.06 40.99 100.35 42.80 97.61 C 47.46 100.48 52.36 102.93 57.08 105.70 C 57.08 99.80 57.08 93.90 57.08 88.00 Z" />
<path fill="#171691" opacity="1.00" d=" M 125.18 88.01 C 128.70 87.98 132.23 87.98 135.76 88.01 C 135.76 93.93 135.75 99.86 135.77 105.78 C 140.61 103.09 145.46 100.40 150.22 97.56 C 151.90 100.31 153.63 103.03 155.47 105.68 C 150.70 108.92 145.48 111.40 140.70 114.60 C 145.48 117.88 150.69 120.48 155.45 123.81 C 153.65 126.51 151.91 129.24 150.22 132.00 C 145.45 129.16 140.62 126.42 135.78 123.69 C 135.74 129.48 135.77 135.27 135.76 141.07 C 132.23 141.07 128.71 141.07 125.18 141.06 C 125.17 135.27 125.20 129.48 125.17 123.70 C 120.35 126.44 115.50 129.12 110.71 131.90 C 108.94 129.31 107.15 126.73 105.36 124.16 C 110.19 120.91 115.38 118.21 120.18 114.92 C 115.38 111.65 110.18 109.00 105.35 105.76 C 107.15 103.07 108.96 100.38 110.72 97.66 C 115.51 100.39 120.35 103.01 125.17 105.68 C 125.19 99.79 125.18 93.90 125.18 88.01 Z" />
</svg>
